<?xml version="1.0" encoding="utf-8"?>
<!-- Generator: Adobe Illustrator 19.1.0, SVG Export Plug-In . SVG Version: 6.00 Build 0)  -->
<svg version="1.1" xmlns="http://www.w3.org/2000/svg" xmlns:xlink="http://www.w3.org/1999/xlink" x="0px" y="0px"
	 viewBox="0 0 864 864" style="enable-background:new 0 0 864 864;" xml:space="preserve">
<style type="text/css">
	.st0{fill:#4EA2DA;}
	.st1{fill:#FFFFFF;}
	.st2{fill:none;stroke:#4FA2D9;stroke-width:20;stroke-miterlimit:10;}
	.st3{fill:#FFFFFF;stroke:#4FA2D9;stroke-width:8;stroke-miterlimit:10;}
	.st4{fill:none;stroke:#4EA2DA;stroke-width:10.8016;stroke-linecap:round;stroke-linejoin:round;stroke-miterlimit:10;}
	.st5{fill:none;stroke:#FFFFFF;stroke-width:10.8016;stroke-linecap:round;stroke-linejoin:round;stroke-miterlimit:10;}
	.st6{fill:none;stroke:#4EA2DA;stroke-width:9;stroke-linecap:round;stroke-linejoin:round;stroke-miterlimit:10;}
</style>
<g id="Layer_1">
</g>
<g id="Layer_2">
	<circle class="st0" cx="432" cy="432" r="378.5"/>
	<g>
		<path class="st1" d="M432,814.2c-19.1,0-38.3-1.4-57.1-4.3c-2.1-13.4-3.1-27.3-3.1-41.5c0-46.1,11-88.4,30.9-119.1
			c20.8-32,49.1-49,81.9-49c68.4,0,124.1,75.4,124.1,168.1c0,0.6,0,1.3,0,1.9C554.7,799,493.6,814.2,432,814.2z"/>
		<path class="st1" d="M484.7,601.8c67.6,0,122.6,74.7,122.6,166.6c0,0.3,0,0.6,0,1c-26.2,13.8-54,24.5-82.6,31.8
			c-30.1,7.6-61.3,11.5-92.6,11.5c-18.7,0-37.4-1.4-55.7-4.1c-1.9-13-2.9-26.5-2.9-40.2c0-45.8,10.9-87.8,30.7-118.3
			c9.9-15.3,21.7-27.2,35.1-35.4C453,606.2,468.4,601.8,484.7,601.8 M484.7,598.8c-69.3,0-114.3,75.9-114.3,169.6
			c0,14.8,1.1,29.1,3.3,42.8c19,2.9,38.5,4.5,58.4,4.5c64.4,0,125.1-16.1,178.2-44.5c0-0.9,0-1.9,0-2.8
			C610.2,674.8,554,598.8,484.7,598.8L484.7,598.8z"/>
	</g>
	<path class="st2" d="M543.6,613.5c-26.6,31.7-66.5,51.8-111.2,51.8h-2.9c-13.1,0-25.7-1.8-37.5-5"/>
	<g>
		<g>
			<path class="st1" d="M364.3,359.3c-13.8-32.5-36.8-61.9-67.7-78.8c-31-16.9-70.4-19.9-101.6-3.4s-51.6,53.6-44.3,88.1
				c2.9,13.7,11.2,27.6,24.6,31.5c13.7,3.9,28-3.7,38.8-12.9c13.3-11.4,24-25.7,37.1-37.4s29.9-21,47.4-19.2
				c14.5,1.5,27.3,10.5,36.5,21.7s15.4,24.6,21.4,37.8"/>
		</g>
		<path class="st3" d="M432.4,665.2h-2.9c-80.2,0-138.3-65-138.3-145.2v-73.2c0-80.2,58.1-118.4,138.3-118.4h2.9
			c80.2,0,145.2,38.2,145.2,118.4V520C577.6,600.2,512.6,665.2,432.4,665.2z"/>
		<ellipse class="st0" cx="416.6" cy="546.6" rx="68.1" ry="47.1"/>
		<ellipse class="st0" cx="326.2" cy="517.9" rx="10.8" ry="24"/>
		<ellipse class="st0" cx="525.6" cy="517.9" rx="10.8" ry="24"/>
		<path class="st4" d="M497.2,599.9c-12,24.8-42.7,42.4-78.6,42.4"/>
		<path class="st5" d="M366.1,532.8c7.4-7.9,18.1-14.2,30.7-18"/>
		<g>
			<path class="st1" d="M559.7,412c18.3-42.1,25.4-90.1,13.6-134.5s-44.3-84.2-87.8-98.9s-96.8-0.6-122.8,37.2
				c-10.3,15-16,35.3-7.6,51.4c8.6,16.4,28.5,23.1,46.9,25c22.7,2.3,45.7-0.4,68.5,1.5c22.8,1.9,46.6,9.4,60.6,27.5
				c11.5,15,14.6,35.1,12.2,53.9c-2.3,18.8-9.5,36.5-16.5,54.1"/>
		</g>
	</g>
	<ellipse class="st0" cx="432" cy="695.3" rx="17.2" ry="25.2"/>
	<line class="st6" x1="414.1" y1="760.2" x2="414.1" y2="811.6"/>
	<line class="st6" x1="489.6" y1="739.3" x2="489.6" y2="809"/>
</g>
</svg>
