<?xml version="1.0" encoding="utf-8"?>
<!-- Generator: Adobe Illustrator 19.1.0, SVG Export Plug-In . SVG Version: 6.00 Build 0)  -->
<svg version="1.1" id="Layer_1" xmlns="http://www.w3.org/2000/svg" xmlns:xlink="http://www.w3.org/1999/xlink" x="0px" y="0px"
	 viewBox="-50 177.1 510.9 415.5" style="enable-background:new -50 177.1 510.9 415.5;" xml:space="preserve">
<style type="text/css">
	.st0{fill:#FFFFFF;}
	.st1{fill:#3FA9F5;}
	.st2{fill:#4EA1D9;}
	.st3{opacity:0.91;}
</style>
<g>
	<g>
		<path class="st0" d="M30.3,458.5c0,6.1-2.1,11.2-6.3,15.3c-4.2,4.2-9.5,6.2-15.9,6.2c-6.4,0-11.6-2.1-15.9-6.2
			c-4.2-4.2-6.3-9.3-6.3-15.3c0-6.1,2.1-11.2,6.3-15.4c4.2-4.2,9.5-6.3,15.9-6.3c6.4,0,11.6,2.1,15.9,6.3
			C28.2,447.3,30.3,452.4,30.3,458.5z M-2.3,458.5c0,3.4,1,6.2,2.9,8.4c1.9,2.2,4.4,3.2,7.5,3.2c3,0,5.5-1.1,7.5-3.2
			c1.9-2.2,2.9-4.9,2.9-8.4c0-3.4-1-6.2-2.9-8.4c-1.9-2.2-4.4-3.3-7.5-3.3c-3,0-5.5,1.1-7.5,3.3C-1.3,452.2-2.3,455.1-2.3,458.5z"/>
	</g>
	<g>
		<path class="st0" d="M77.4,456.8v22.6H65.6v-22.9c0-3.3-0.5-5.8-1.5-7.3c-1-1.6-2.6-2.3-4.9-2.3c-2.3,0-4.3,0.8-6,2.5
			c-1.7,1.7-2.6,4.2-2.6,7.4v22.6H38.9v-41.9h11.7v4.8c3.2-3.6,6.9-5.5,11.1-5.5c2.6,0,5.1,0.8,7.2,2.3c2.2,1.6,3.8,3.5,4.9,5.7
			c1.6-2.5,3.8-4.5,6.5-5.9c2.7-1.4,5.5-2.1,8.2-2.1c4.9,0,8.9,1.5,11.9,4.4c3,2.9,4.5,7.2,4.5,12.7v25.5H93.2v-22.9
			c0-6.4-2.4-9.7-7.1-9.7c-2.3,0-4.4,0.8-6.1,2.5C78.3,451.1,77.4,453.6,77.4,456.8z"/>
	</g>
	<g>
		<path class="st0" d="M151.1,479.4h-11v-5.1c-3,3.8-6.7,5.7-11.2,5.7c-4.4,0-8.2-1.3-11.2-3.9c-3-2.6-4.5-6-4.5-10.3
			c0-4.3,1.6-7.5,4.7-9.6c3.1-2.1,7.4-3.2,12.8-3.2h8.7v-0.2c0-4.5-2.4-6.7-7.1-6.7c-2,0-4.2,0.4-6.4,1.2c-2.3,0.8-4.2,1.8-5.7,3
			l-5.2-7.6c5.5-4,11.8-6,18.9-6c5.1,0,9.2,1.3,12.5,3.8c3.2,2.5,4.8,6.6,4.8,12.1V479.4z M139.4,463.5v-2H132c-4.7,0-7,1.5-7,4.4
			c0,1.5,0.6,2.7,1.7,3.5c1.1,0.8,2.7,1.2,4.8,1.2c2.1,0,3.9-0.6,5.5-1.9C138.6,467.3,139.4,465.6,139.4,463.5z"/>
	</g>
	<g>
		<path class="st0" d="M173.5,456.8v22.6h-11.7v-57.8h11.7v20.6c3.5-3.6,7.5-5.4,11.9-5.4c4.4,0,8.1,1.6,11.1,4.7
			c3,3.1,4.5,7.3,4.5,12.5v25.5h-11.7v-22.9c0-6.4-2.4-9.7-7.1-9.7c-2.3,0-4.4,0.8-6.1,2.5C174.4,451.1,173.5,453.6,173.5,456.8z"/>
	</g>
	<g>
		<path class="st0" d="M247.2,479.4h-11v-5.1c-3,3.8-6.7,5.7-11.2,5.7c-4.4,0-8.2-1.3-11.2-3.9c-3-2.6-4.5-6-4.5-10.3
			c0-4.3,1.6-7.5,4.7-9.6c3.1-2.1,7.4-3.2,12.8-3.2h8.7v-0.2c0-4.5-2.4-6.7-7.1-6.7c-2,0-4.2,0.4-6.4,1.2c-2.3,0.8-4.2,1.8-5.7,3
			l-5.2-7.6c5.5-4,11.8-6,18.9-6c5.1,0,9.2,1.3,12.5,3.8c3.2,2.5,4.8,6.6,4.8,12.1V479.4z M235.4,463.5v-2h-7.3c-4.7,0-7,1.5-7,4.4
			c0,1.5,0.6,2.7,1.7,3.5c1.1,0.8,2.7,1.2,4.8,1.2c2.1,0,3.9-0.6,5.5-1.9C234.6,467.3,235.4,465.6,235.4,463.5z"/>
	</g>
	<g>
		<path class="st1" d="M258.7,478.1c-1.3-1.3-2-2.9-2-4.9c0-1.9,0.7-3.5,2-4.9c1.3-1.3,2.9-2,4.9-2c1.9,0,3.5,0.7,4.9,2
			c1.3,1.3,2,2.9,2,4.9c0,1.9-0.7,3.5-2,4.9c-1.3,1.3-2.9,2-4.9,2C261.6,480.1,260,479.4,258.7,478.1z"/>
	</g>
	<g>
		<path class="st2" d="M297.1,481.3c-5.3,0-10.1-2.3-14.2-6.7c-4.1-4.4-6.2-10-6.2-16.5c0-6.5,2-12,6-16.2c4-4.2,8.8-6.4,14.3-6.4
			c4.3,0,8.1,1.2,11.2,3.7v-18.9h14.3v60.4h-14.3v-3.6C305.1,479.9,301.4,481.3,297.1,481.3z M297,438.1c-4.8,0-8.8,1.8-12.4,5.6
			c-3.5,3.7-5.3,8.6-5.3,14.4c0,5.9,1.9,10.8,5.5,14.8c3.7,4,7.7,5.9,12.3,5.9c4.6,0,8.3-1.9,11.3-5.7l2.3-2.9v7.9h9.1v-55.3h-9.1
			v22.6l-2.2-2.5C305.5,439.7,301.7,438.1,297,438.1z M299.9,471.4c-3.1,0-5.8-1.2-8-3.6c-2.2-2.4-3.4-5.5-3.4-9.2
			c0-3.7,1.1-6.8,3.3-9.3c2.2-2.6,4.9-3.9,8.1-3.9c3.1,0,5.8,1.3,8,3.8c2.1,2.5,3.1,5.6,3.1,9.3c0,3.7-1.1,6.8-3.2,9.2
			C305.6,470.1,302.9,471.4,299.9,471.4z M299.8,447.9c-2.4,0-4.4,1-6.1,3c-1.8,2.1-2.6,4.6-2.6,7.7c0,3.1,0.9,5.5,2.7,7.4
			c1.8,1.9,3.8,2.8,6.2,2.8c2.3,0,4.3-0.9,5.9-2.8c1.7-1.9,2.5-4.4,2.5-7.5c0-3.1-0.8-5.6-2.5-7.7
			C304.1,448.9,302.2,447.9,299.8,447.9z"/>
	</g>
	<g>
		<path class="st2" d="M352,481.3c-6.7,0-12.3-2.2-16.8-6.6c-4.4-4.4-6.7-9.9-6.7-16.3c0-6.4,2.3-11.9,6.7-16.3
			c4.4-4.4,10.1-6.6,16.8-6.6c6.7,0,12.3,2.2,16.8,6.6c4.4,4.4,6.7,9.9,6.7,16.3c0,6.4-2.3,11.9-6.7,16.3
			C364.3,479.1,358.6,481.3,352,481.3z M352,438.1c-6,0-11,2-15,5.9c-4,4-5.9,8.7-5.9,14.5c0,5.8,1.9,10.5,5.9,14.4
			c3.9,3.9,9,5.9,15,5.9c6,0,11-2,15-5.9c4-3.9,5.9-8.7,5.9-14.4c0-5.8-1.9-10.5-5.9-14.5C363,440.1,357.9,438.1,352,438.1z
			 M352,471.4c-3.4,0-6.2-1.2-8.4-3.7c-2.2-2.4-3.3-5.5-3.3-9.2c0-3.7,1.1-6.9,3.2-9.3c2.2-2.5,5-3.7,8.4-3.7c3.4,0,6.2,1.2,8.4,3.7
			c2.2,2.4,3.2,5.5,3.2,9.3c0,3.7-1.1,6.8-3.3,9.2C358.2,470.1,355.4,471.4,352,471.4z M352,448.1c-2.7,0-4.8,0.9-6.5,2.8
			c-1.7,2-2.6,4.4-2.6,7.6c0,3.1,0.8,5.6,2.6,7.5c1.7,1.9,3.8,2.8,6.5,2.8c2.7,0,4.8-0.9,6.5-2.8c1.7-1.9,2.6-4.4,2.6-7.5
			c0-3.1-0.8-5.6-2.6-7.6C356.8,449,354.6,448.1,352,448.1z"/>
	</g>
	<g>
		<path class="st2" d="M401.2,497.2c-3.2,0-6.6-0.5-9.9-1.6c-3.4-1.1-6.4-2.6-8.9-4.5l-0.8-0.7l5.7-11.1l1.2,0.9
			c3.6,2.7,7.4,4.1,11.4,4.1c4,0,7.1-1,9.3-2.9c1.6-1.4,2.6-3.3,3-5.9c-3.5,2.8-7.6,4.2-12.2,4.2c-5.8,0-10.8-2-14.8-5.9
			c-4-3.9-6-9.3-6-15.8c0-6.5,2.1-12,6.2-16.2c4.1-4.2,8.9-6.3,14.2-6.3c4.3,0,8,1.4,11.1,4.2v-3.6H425V474c0,3.9-0.7,7.4-2.1,10.5
			c-1.4,3.1-3.3,5.6-5.6,7.4C412.8,495.4,407.4,497.2,401.2,497.2z M384.8,489.7c2.1,1.5,4.6,2.6,7.3,3.5c3.1,1,6.2,1.5,9.2,1.5
			c5.5,0,10.4-1.6,14.5-4.9c2-1.5,3.6-3.7,4.8-6.4c1.2-2.7,1.8-5.9,1.8-9.5v-35.3h-9.1v7.9l-2.3-2.9c-3-3.8-6.8-5.7-11.4-5.7
			c-4.7,0-8.7,1.8-12.4,5.6c-3.6,3.7-5.4,8.5-5.4,14.4c0,5.8,1.8,10.5,5.3,14c3.5,3.5,7.8,5.2,13,5.2c5.1,0,9.3-1.9,12.8-5.7
			l2.2-2.5v3.3c0,5-1.4,8.7-4.2,11.1c-2.7,2.3-6.4,3.5-11,3.5c-4.1,0-8-1.3-11.7-3.7L384.8,489.7z M402.3,470
			c-3.2,0-5.9-1.2-8.1-3.5c-2.2-2.3-3.3-5.3-3.3-8.9c0-3.7,1.1-6.6,3.4-8.8c2.2-2.1,4.9-3.2,8-3.2c3.1,0,5.7,1.1,7.9,3.3
			c2.1,2.2,3.2,5.1,3.2,8.8c0,3.7-1.1,6.7-3.1,8.9C408.2,468.8,405.5,470,402.3,470z M402.4,448.1c-2.4,0-4.5,0.8-6.2,2.5
			c-1.8,1.7-2.6,4-2.6,6.9c0,3,0.8,5.4,2.6,7.2c1.7,1.8,3.7,2.7,6.2,2.7c2.5,0,4.4-0.9,6.1-2.6c1.7-1.8,2.5-4.2,2.5-7.2
			c0-3-0.8-5.3-2.4-7C406.8,448.9,404.8,448.1,402.4,448.1z"/>
	</g>
</g>
<g>
	<path class="st0" d="M42,512.1c-1.4-1.4-2.1-3.2-2.1-5.5c0-2.3,0.7-4.1,2.1-5.5c1.4-1.4,3.1-2,5.1-2c2,0,3.5,0.8,4.7,2.5v-8.1H55
		V514h-3.1v-2.2c-1.1,1.6-2.8,2.4-5,2.4C45,514.2,43.4,513.5,42,512.1z M43,506.7c0,1.4,0.5,2.6,1.4,3.4c0.9,0.9,2,1.3,3.2,1.3
		c1.2,0,2.3-0.4,3.1-1.3c0.8-0.9,1.3-2,1.3-3.4c0-1.4-0.4-2.6-1.3-3.5c-0.8-0.9-1.9-1.4-3.1-1.4c-1.2,0-2.3,0.5-3.2,1.4
		C43.4,504.1,43,505.3,43,506.7z"/>
	<path class="st0" d="M71.7,512c-1.5,1.5-3.3,2.2-5.5,2.2c-2.2,0-4.1-0.7-5.5-2.2c-1.5-1.5-2.2-3.3-2.2-5.4c0-2.1,0.7-3.9,2.2-5.4
		c1.5-1.5,3.3-2.2,5.5-2.2c2.2,0,4.1,0.7,5.5,2.2c1.5,1.5,2.2,3.3,2.2,5.4C74,508.8,73.2,510.6,71.7,512z M62.9,510.1
		c0.9,0.9,2,1.3,3.3,1.3s2.5-0.4,3.3-1.3c0.9-0.9,1.3-2.1,1.3-3.5c0-1.4-0.4-2.6-1.3-3.5c-0.9-0.9-2-1.3-3.3-1.3s-2.5,0.4-3.3,1.3
		c-0.9,0.9-1.3,2.1-1.3,3.5C61.6,508.1,62,509.2,62.9,510.1z"/>
	<path class="st0" d="M91.1,499.3v12.8c0,2.6-0.7,4.6-2.1,5.9c-1.4,1.3-3.2,2-5.4,2s-4.2-0.7-6-2.1l1.5-2.4c1.4,1.1,2.9,1.6,4.4,1.6
		s2.6-0.4,3.5-1.1c0.9-0.8,1.3-2,1.3-3.6v-1.9c-0.5,0.9-1.1,1.6-2,2.1c-0.9,0.5-1.8,0.8-2.9,0.8c-2,0-3.6-0.7-4.8-2
		c-1.3-1.4-1.9-3.1-1.9-5.1c0-2,0.6-3.7,1.9-5.1c1.3-1.4,2.9-2,4.8-2c1.9,0,3.5,0.8,4.7,2.4v-2.2H91.1z M79.6,506.1
		c0,1.2,0.4,2.3,1.1,3.1c0.7,0.9,1.8,1.3,3,1.3c1.3,0,2.3-0.4,3.1-1.3c0.8-0.8,1.2-1.9,1.2-3.2c0-1.3-0.4-2.3-1.2-3.2
		c-0.8-0.9-1.8-1.3-3.1-1.3c-1.3,0-2.3,0.5-3,1.4C80,503.8,79.6,504.9,79.6,506.1z"/>
	<path class="st0" d="M95.3,507.2v-2.9h9.2v2.9H95.3z"/>
	<path class="st0" d="M112.3,498.1v1.2h3.9v2.5h-3.9V514h-3.1v-12.2h-1.9v-2.5h1.9v-1.1c0-1.5,0.5-2.8,1.4-3.7s2.1-1.4,3.4-1.4
		c1.3,0,2.5,0.5,3.6,1.5l-1.3,2.2c-0.6-0.6-1.2-1-1.9-1s-1.2,0.2-1.5,0.6C112.5,496.8,112.3,497.4,112.3,498.1z"/>
	<path class="st0" d="M126.9,502.2c-1.5,0-2.7,0.5-3.5,1.5c-0.8,1-1.2,2.3-1.2,4v6.3h-3.1v-14.7h3.1v3c0.5-0.9,1.2-1.7,2-2.3
		c0.9-0.6,1.8-0.9,2.7-0.9l0,3.1C127,502.2,127,502.2,126.9,502.2z"/>
	<path class="st0" d="M130.4,496.3c-0.4-0.4-0.6-0.8-0.6-1.4c0-0.5,0.2-1,0.6-1.4c0.4-0.4,0.8-0.6,1.4-0.6s1,0.2,1.4,0.6
		c0.4,0.4,0.6,0.8,0.6,1.4c0,0.5-0.2,1-0.6,1.4c-0.4,0.4-0.8,0.6-1.4,0.6S130.7,496.7,130.4,496.3z M133.3,514h-3.1v-14.7h3.1V514z"
		/>
	<path class="st0" d="M151.4,508h-11.5c0.1,1.1,0.6,1.9,1.5,2.6c0.9,0.7,1.9,1,3.1,1c1.8,0,3.2-0.6,4.2-1.7l1.8,1.9
		c-1.6,1.6-3.7,2.5-6.2,2.5c-2.1,0-3.8-0.7-5.3-2.1c-1.4-1.4-2.2-3.2-2.2-5.5c0-2.3,0.7-4.2,2.2-5.5c1.5-1.4,3.2-2,5.2-2
		c2,0,3.7,0.6,5.1,1.8c1.4,1.2,2.1,2.9,2.1,5V508z M139.9,505.6h8.4c0-1.2-0.4-2.2-1.2-2.8c-0.8-0.7-1.7-1-2.9-1
		c-1.1,0-2.2,0.3-3.1,1C140.4,503.4,139.9,504.4,139.9,505.6z"/>
	<path class="st0" d="M157.9,506v8h-3.1v-14.7h3.1v2.7c0.5-0.9,1.2-1.6,2.1-2.1c0.9-0.5,1.8-0.8,2.8-0.8c1.7,0,3,0.5,4,1.5
		c1,1,1.5,2.5,1.5,4.4v9h-3.1v-8.1c0-2.7-1.1-4.1-3.4-4.1c-1.1,0-2,0.4-2.8,1.1C158.3,503.6,157.9,504.7,157.9,506z"/>
	<path class="st0" d="M173.9,512.1c-1.4-1.4-2.1-3.2-2.1-5.5c0-2.3,0.7-4.1,2.1-5.5c1.4-1.4,3.1-2,5.1-2s3.5,0.8,4.7,2.5v-8.1h3.1
		V514h-3.1v-2.2c-1.1,1.6-2.8,2.4-5,2.4C176.9,514.2,175.2,513.5,173.9,512.1z M174.9,506.7c0,1.4,0.5,2.6,1.4,3.4
		c0.9,0.9,2,1.3,3.2,1.3c1.2,0,2.3-0.4,3.1-1.3c0.8-0.9,1.3-2,1.3-3.4c0-1.4-0.4-2.6-1.3-3.5c-0.8-0.9-1.9-1.4-3.1-1.4
		c-1.2,0-2.3,0.5-3.2,1.4C175.3,504.1,174.9,505.3,174.9,506.7z"/>
	<path class="st0" d="M194.4,514h-3.1v-20.5h3.1V514z"/>
	<path class="st0" d="M200.8,519.9c-1.3,0-2.6-0.5-3.7-1.5l1.4-2.5c0.6,0.6,1.3,0.9,2,0.9c0.7,0,1.3-0.2,1.7-0.7
		c0.4-0.5,0.7-1,0.7-1.6c0-0.3-2-5.3-5.9-15.1h3.3l4.4,10.8l4.4-10.8h3.3l-7.1,17.5c-0.4,1-1,1.7-1.8,2.3S201.7,519.9,200.8,519.9z"
		/>
	<path class="st0" d="M230.3,499.1c2,0,3.7,0.7,5.1,2c1.4,1.4,2.1,3.2,2.1,5.5s-0.7,4.1-2.1,5.5c-1.4,1.4-3,2.1-4.9,2.1
		c-1.9,0-3.5-0.8-5-2.4v2.2h-3.1v-20.5h3.1v8.4C226.7,500,228.3,499.1,230.3,499.1z M225.4,506.7c0,1.4,0.4,2.6,1.3,3.4
		c0.8,0.9,1.9,1.3,3.1,1.3c1.2,0,2.3-0.4,3.2-1.3c0.9-0.9,1.4-2,1.4-3.4c0-1.4-0.4-2.6-1.3-3.5c-0.9-0.9-1.9-1.4-3.2-1.4
		c-1.2,0-2.3,0.5-3.1,1.4C225.8,504.1,225.4,505.3,225.4,506.7z"/>
	<path class="st0" d="M251.3,507.2v-8h3.1V514h-3.1v-2.7c-0.5,0.9-1.2,1.6-2.1,2.1c-0.9,0.5-1.8,0.8-2.8,0.8c-1.7,0-3-0.5-4-1.5
		c-1-1-1.5-2.5-1.5-4.4v-9h3.1v8.1c0,2.7,1.1,4.1,3.4,4.1c1.1,0,2-0.4,2.8-1.1C250.9,509.7,251.3,508.6,251.3,507.2z"/>
	<path class="st0" d="M269.3,509.6c0,1.4-0.5,2.5-1.5,3.4c-1,0.8-2.3,1.3-3.9,1.3c-1.1,0-2.2-0.2-3.3-0.6c-1.2-0.4-2.2-0.9-3.1-1.6
		l1.5-2.4c1.7,1.3,3.4,1.9,5,1.9c0.7,0,1.3-0.2,1.7-0.5c0.4-0.3,0.6-0.7,0.6-1.2c0-0.7-1-1.4-2.9-2c-0.1-0.1-0.3-0.1-0.3-0.1
		c-3.1-0.8-4.6-2.2-4.6-4.2c0-1.4,0.5-2.5,1.6-3.3c1.1-0.8,2.4-1.2,4.1-1.2c1.7,0,3.3,0.5,4.8,1.5l-1.2,2.3
		c-1.2-0.8-2.5-1.2-3.9-1.2c-0.7,0-1.3,0.1-1.8,0.4c-0.5,0.3-0.7,0.7-0.7,1.2c0,0.5,0.2,0.8,0.7,1.1c0.3,0.2,0.8,0.3,1.4,0.5
		c0.6,0.1,1.1,0.3,1.6,0.4c0.5,0.1,0.9,0.3,1.3,0.5c0.4,0.2,0.9,0.4,1.4,0.8C268.8,507.2,269.3,508.2,269.3,509.6z"/>
	<path class="st0" d="M273,496.3c-0.4-0.4-0.6-0.8-0.6-1.4c0-0.5,0.2-1,0.6-1.4s0.8-0.6,1.4-0.6s1,0.2,1.4,0.6s0.6,0.8,0.6,1.4
		c0,0.5-0.2,1-0.6,1.4c-0.4,0.4-0.8,0.6-1.4,0.6S273.4,496.7,273,496.3z M275.9,514h-3.1v-14.7h3.1V514z"/>
	<path class="st0" d="M283.5,506v8h-3.1v-14.7h3.1v2.7c0.5-0.9,1.2-1.6,2.1-2.1c0.9-0.5,1.8-0.8,2.8-0.8c1.7,0,3,0.5,4,1.5
		c1,1,1.5,2.5,1.5,4.4v9h-3.1v-8.1c0-2.7-1.1-4.1-3.4-4.1c-1.1,0-2,0.4-2.8,1.1C283.9,503.6,283.5,504.7,283.5,506z"/>
	<path class="st0" d="M312,508h-11.5c0.1,1.1,0.6,1.9,1.5,2.6c0.9,0.7,1.9,1,3.1,1c1.8,0,3.2-0.6,4.2-1.7l1.8,1.9
		c-1.6,1.6-3.7,2.5-6.2,2.5c-2.1,0-3.8-0.7-5.3-2.1c-1.4-1.4-2.2-3.2-2.2-5.5c0-2.3,0.7-4.2,2.2-5.5c1.5-1.4,3.2-2,5.2-2
		c2,0,3.7,0.6,5.1,1.8c1.4,1.2,2.1,2.9,2.1,5V508z M300.5,505.6h8.4c0-1.2-0.4-2.2-1.2-2.8c-0.8-0.7-1.7-1-2.9-1
		c-1.1,0-2.2,0.3-3.1,1C300.9,503.4,300.5,504.4,300.5,505.6z"/>
	<path class="st0" d="M325.9,509.6c0,1.4-0.5,2.5-1.5,3.4c-1,0.8-2.3,1.3-3.9,1.3c-1.1,0-2.2-0.2-3.3-0.6s-2.2-0.9-3.1-1.6l1.5-2.4
		c1.7,1.3,3.4,1.9,5,1.9c0.7,0,1.3-0.2,1.7-0.5c0.4-0.3,0.6-0.7,0.6-1.2c0-0.7-1-1.4-2.9-2c-0.1-0.1-0.3-0.1-0.3-0.1
		c-3.1-0.8-4.6-2.2-4.6-4.2c0-1.4,0.5-2.5,1.6-3.3c1.1-0.8,2.4-1.2,4.1-1.2c1.7,0,3.3,0.5,4.8,1.5l-1.2,2.3
		c-1.2-0.8-2.5-1.2-3.9-1.2c-0.7,0-1.3,0.1-1.8,0.4c-0.5,0.3-0.7,0.7-0.7,1.2c0,0.5,0.2,0.8,0.7,1.1c0.3,0.2,0.8,0.3,1.4,0.5
		c0.6,0.1,1.1,0.3,1.6,0.4c0.5,0.1,0.9,0.3,1.3,0.5c0.4,0.2,0.9,0.4,1.4,0.8C325.4,507.2,325.9,508.2,325.9,509.6z"/>
	<path class="st0" d="M339.9,509.6c0,1.4-0.5,2.5-1.5,3.4c-1,0.8-2.3,1.3-3.9,1.3c-1.1,0-2.2-0.2-3.3-0.6s-2.2-0.9-3.1-1.6l1.5-2.4
		c1.7,1.3,3.4,1.9,5,1.9c0.7,0,1.3-0.2,1.7-0.5c0.4-0.3,0.6-0.7,0.6-1.2c0-0.7-1-1.4-2.9-2c-0.1-0.1-0.3-0.1-0.3-0.1
		c-3.1-0.8-4.6-2.2-4.6-4.2c0-1.4,0.5-2.5,1.6-3.3c1.1-0.8,2.4-1.2,4.1-1.2c1.7,0,3.3,0.5,4.8,1.5l-1.2,2.3
		c-1.2-0.8-2.5-1.2-3.9-1.2c-0.7,0-1.3,0.1-1.8,0.4c-0.5,0.3-0.7,0.7-0.7,1.2c0,0.5,0.2,0.8,0.7,1.1c0.3,0.2,0.8,0.3,1.4,0.5
		c0.6,0.1,1.1,0.3,1.6,0.4c0.5,0.1,0.9,0.3,1.3,0.5c0.4,0.2,0.9,0.4,1.4,0.8C339.4,507.2,339.9,508.2,339.9,509.6z"/>
	<path class="st0" d="M357.1,508h-11.5c0.1,1.1,0.6,1.9,1.5,2.6c0.9,0.7,1.9,1,3.1,1c1.8,0,3.2-0.6,4.2-1.7l1.8,1.9
		c-1.6,1.6-3.7,2.5-6.2,2.5c-2.1,0-3.8-0.7-5.3-2.1c-1.4-1.4-2.2-3.2-2.2-5.5c0-2.3,0.7-4.2,2.2-5.5c1.5-1.4,3.2-2,5.2-2
		c2,0,3.7,0.6,5.1,1.8c1.4,1.2,2.1,2.9,2.1,5V508z M345.6,505.6h8.4c0-1.2-0.4-2.2-1.2-2.8c-0.8-0.7-1.7-1-2.9-1
		c-1.1,0-2.2,0.3-3.1,1C346,503.4,345.6,504.4,345.6,505.6z"/>
	<path class="st0" d="M371,509.6c0,1.4-0.5,2.5-1.5,3.4c-1,0.8-2.3,1.3-3.9,1.3c-1.1,0-2.2-0.2-3.3-0.6c-1.2-0.4-2.2-0.9-3.1-1.6
		l1.5-2.4c1.7,1.3,3.4,1.9,5,1.9c0.7,0,1.3-0.2,1.7-0.5c0.4-0.3,0.6-0.7,0.6-1.2c0-0.7-1-1.4-2.9-2c-0.1-0.1-0.3-0.1-0.3-0.1
		c-3.1-0.8-4.6-2.2-4.6-4.2c0-1.4,0.5-2.5,1.6-3.3c1.1-0.8,2.4-1.2,4.1-1.2c1.7,0,3.3,0.5,4.8,1.5l-1.2,2.3
		c-1.2-0.8-2.5-1.2-3.9-1.2c-0.7,0-1.3,0.1-1.8,0.4c-0.5,0.3-0.7,0.7-0.7,1.2c0,0.5,0.2,0.8,0.7,1.1c0.3,0.2,0.8,0.3,1.4,0.5
		c0.6,0.1,1.1,0.3,1.6,0.4c0.5,0.1,0.9,0.3,1.3,0.5c0.4,0.2,0.9,0.4,1.4,0.8C370.5,507.2,371,508.2,371,509.6z"/>
</g>
<g class="st3">
	<g>
		<circle class="st2" cx="205.4" cy="309.5" r="96.5"/>
	</g>
	<g>
		<path class="st0" d="M219,404.6v-17.3c0-0.6,0.5-1.1,1.1-1.1s1.1,0.5,1.1,1.1v17c2.6-0.4,5.2-1,7.8-1.6c7.3-1.9,14.4-4.6,21.1-8.1
			c0-0.1,0-0.2,0-0.2c0-23.4-14-42.5-31.3-42.5c-4.2,0-8.1,1.1-11.6,3.3c-3.4,2.1-6.4,5.1-9,9c-5,7.8-7.8,18.5-7.8,30.2
			c0,3.5,0.2,6.9,0.7,10.2c2.8,0.4,5.7,0.7,8.5,0.9v-12.5c0-0.6,0.5-1.1,1.1-1.1s1.1,0.5,1.1,1.1v12.6c1.1,0,2.3,0.1,3.4,0.1
			C210,405.5,214.5,405.2,219,404.6z"/>
		<path class="st0" d="M219,405c-4.5,0.6-9,1-13.5,1c-1.1,0-2.3,0-3.4-0.1v0.1c0,0.1,0,0.2,0,0.3c1.1,0,2.3,0.1,3.5,0.1
			c4.6,0,9.1-0.3,13.6-1C219,405.3,219,405.2,219,405L219,405z"/>
		<path class="st0" d="M250.9,394.3c0-23.9-14.3-43.2-32-43.2s-29.2,19.4-29.2,43.2c0,3.8,0.3,7.4,0.8,10.9c3,0.5,6.1,0.8,9.2,1
			c0-0.1,0-0.1,0-0.2v-0.2c-3-0.2-5.9-0.5-8.8-0.9c-0.5-3.4-0.8-7-0.8-10.6c0-11.7,2.8-22.5,7.9-30.4c5.3-8.2,12.5-12.5,20.9-12.5
			c17.4,0,31.6,19.2,31.6,42.9c0,0.2,0,0.3,0,0.5c-9.1,4.8-19,8.2-29.2,9.9v0.4c10.5-1.7,20.5-5.2,29.6-10
			C250.9,394.7,250.9,394.5,250.9,394.3z"/>
		<path class="st0" d="M205.4,405.5c-1.1,0-2.3,0-3.4-0.1v0.4c1.1,0,2.3,0.1,3.4,0.1c4.5,0,9.1-0.3,13.5-1v-0.4
			C214.5,405.2,210,405.5,205.4,405.5z"/>
		<path class="st0" d="M191.2,404.5c-0.5-3.3-0.7-6.8-0.7-10.2c0-11.7,2.8-22.4,7.8-30.2c2.5-3.9,5.5-6.9,9-9
			c3.5-2.2,7.5-3.3,11.6-3.3c17.2,0,31.3,19.1,31.3,42.5c0,0.1,0,0.2,0,0.2c-6.7,3.5-13.8,6.3-21.1,8.1c-2.6,0.7-5.2,1.2-7.8,1.6
			v0.4c10.2-1.7,20.1-5,29.2-9.9c0-0.2,0-0.3,0-0.5c0-23.6-14.2-42.9-31.6-42.9c-8.4,0-15.6,4.3-20.9,12.5
			c-5.1,7.8-7.9,18.6-7.9,30.4c0,3.6,0.3,7.2,0.8,10.6c2.9,0.4,5.9,0.7,8.8,0.9v-0.4C196.9,405.2,194,404.9,191.2,404.5z"/>
		<path class="st2" d="M200.9,391.7c-0.6,0-1.1,0.5-1.1,1.1v12.5c0.8,0,1.5,0.1,2.3,0.1v-12.6C202,392.2,201.5,391.7,200.9,391.7z"
			/>
		<path class="st2" d="M202,405.9c-0.8,0-1.5-0.1-2.3-0.1v0.2c0,0.1,0,0.1,0,0.2c0.7,0,1.5,0.1,2.2,0.1c0-0.1,0-0.2,0-0.3V405.9z"/>
		<path class="st2" d="M202,405.5c-0.8,0-1.5-0.1-2.3-0.1v0.4c0.8,0,1.5,0.1,2.3,0.1V405.5z"/>
		<path class="st2" d="M220.1,386.1c-0.6,0-1.1,0.5-1.1,1.1v17.3c0.8-0.1,1.5-0.2,2.3-0.4v-17C221.3,386.6,220.8,386.1,220.1,386.1z
			"/>
		<path class="st2" d="M219,405L219,405c0,0.2,0,0.3,0,0.4c0.8-0.1,1.5-0.2,2.3-0.3v-0.4C220.5,404.7,219.8,404.9,219,405z"/>
		<path class="st2" d="M219,404.6v0.4c0.8-0.1,1.5-0.2,2.3-0.4v-0.4C220.5,404.4,219.8,404.5,219,404.6z"/>
	</g>
	<g>
		<path class="st2" d="M205.6,371.5h-0.7c-3.5,0-7-0.5-10.2-1.4l1.4-4.9c2.8,0.8,5.8,1.2,8.9,1.2h0.7c10.2,0,19.8-4.5,26.4-12.3
			l3.9,3.3C228.3,366.4,217.3,371.5,205.6,371.5z"/>
	</g>
	<g>
		<g>
			<path class="st0" d="M188.2,290.9c-3.5-8.3-9.4-15.8-17.3-20.1c-7.9-4.3-17.9-5.1-25.9-0.9c-8,4.2-13.2,13.7-11.3,22.5
				c0.7,3.5,2.8,7,6.3,8c3.5,1,7.1-0.9,9.9-3.3c3.4-2.9,6.1-6.6,9.5-9.5s7.6-5.4,12.1-4.9c3.7,0.4,7,2.7,9.3,5.5s3.9,6.3,5.5,9.7"/>
		</g>
		<g>
			<path class="st0" d="M205.6,369h-0.7c-20.5,0-35.3-16.6-35.3-37v-18.7c0-20.5,14.8-30.2,35.3-30.2h0.7c20.5,0,37,9.7,37,30.2
				v18.7C242.6,352.4,226,369,205.6,369z"/>
			<path class="st2" d="M205.6,370h-0.7c-10.1,0-19.3-4-26-11.2c-6.6-7.1-10.2-16.6-10.2-26.9v-18.7c0-10,3.6-18.2,10.3-23.6
				c6.3-5,15.2-7.7,25.9-7.7h0.7c10.8,0,20.1,2.6,26.8,7.6c7.4,5.5,11.3,13.6,11.3,23.6v18.7C243.6,352.9,226.5,370,205.6,370z
				 M204.8,284.1c-10.2,0-18.8,2.5-24.7,7.2c-6.4,5.1-9.6,12.5-9.6,22v18.7c0,9.7,3.4,18.8,9.7,25.5c6.3,6.8,15.1,10.5,24.6,10.5
				h0.7c19.9,0,36-16.2,36-36v-18.7c0-9.3-3.6-16.9-10.4-22c-6.3-4.7-15.2-7.2-25.6-7.2H204.8z"/>
		</g>
		<g>
			<ellipse class="st2" cx="201.5" cy="338.7" rx="17.4" ry="12"/>
		</g>
		<g>
			<ellipse class="st2" cx="178.5" cy="331.4" rx="2.8" ry="6.1"/>
		</g>
		<g>
			<ellipse class="st2" cx="229.3" cy="331.4" rx="2.8" ry="6.1"/>
		</g>
		<g>
			<path class="st2" d="M202,364.5c-0.8,0-1.4-0.6-1.4-1.4c0-0.8,0.6-1.4,1.4-1.4c8.3,0,15.9-4,18.8-10c0.3-0.7,1.2-1,1.8-0.6
				c0.7,0.3,1,1.2,0.6,1.8C219.9,359.9,211.5,364.5,202,364.5z"/>
		</g>
		<g>
			<path class="st0" d="M188.6,336.5c-0.3,0-0.7-0.1-0.9-0.4c-0.6-0.5-0.6-1.4-0.1-1.9c2.1-2.2,5-3.9,8.5-5c0.7-0.2,1.5,0.2,1.7,0.9
				c0.2,0.7-0.2,1.5-0.9,1.7c-3,0.9-5.5,2.3-7.2,4.2C189.4,336.4,189,336.5,188.6,336.5z"/>
		</g>
		<g>
			<path class="st0" d="M238,304.4c4.7-10.7,6.5-23,3.5-34.3s-11.3-21.5-22.4-25.2c-11.1-3.8-24.7-0.2-31.3,9.5
				c-2.6,3.8-4.1,9-1.9,13.1c2.2,4.2,7.3,5.9,12,6.4c5.8,0.6,11.7-0.1,17.5,0.4c5.8,0.5,11.9,2.4,15.5,7c2.9,3.8,3.7,9,3.1,13.7
				s-2.4,9.3-4.2,13.8"/>
		</g>
	</g>
	<g>
		<ellipse class="st2" cx="205.4" cy="376.6" rx="4.4" ry="6.4"/>
	</g>
</g>
</svg>
