<?xml version="1.0" encoding="utf-8"?>
<!-- Generator: Adobe Illustrator 19.1.0, SVG Export Plug-In . SVG Version: 6.00 Build 0)  -->
<svg version="1.1" id="Layer_1" xmlns="http://www.w3.org/2000/svg" xmlns:xlink="http://www.w3.org/1999/xlink" x="0px" y="0px"
	 viewBox="-675 139.5 648.4 523.5" style="enable-background:new -675 139.5 648.4 523.5;" xml:space="preserve">
<style type="text/css">
	.st0{fill:#4EA1D9;}
	.st1{fill:#3FA9F5;}
	.st2{fill:#FFFFFF;}
</style>
<g>
	<g>
		<path d="M-639.2,280.3c0.7,1.7,0.6,3.3-0.2,4.8c-0.8,1.5-2.2,2.6-4.1,3.4c-1.3,0.5-2.7,0.8-4.3,0.9c-1.6,0.1-3.1-0.1-4.5-0.5
			l0.6-3.6c2.7,0.7,5,0.7,7-0.1c0.8-0.3,1.4-0.8,1.8-1.4c0.3-0.6,0.4-1.2,0.1-1.8c-0.4-0.9-1.9-1.2-4.5-1c-0.2,0-0.4,0-0.5,0
			c-4.1,0.5-6.6-0.5-7.6-2.8c-0.7-1.7-0.5-3.2,0.3-4.7c0.9-1.5,2.4-2.7,4.4-3.5c2.1-0.8,4.2-1,6.6-0.5l-0.3,3.3
			c-1.8-0.4-3.6-0.2-5.3,0.4c-0.9,0.4-1.6,0.8-2,1.4c-0.4,0.5-0.5,1.1-0.3,1.8c0.2,0.6,0.7,0.9,1.4,0.9c0.5,0,1.1,0,1.9-0.1
			s1.5-0.2,2.1-0.2c0.6,0,1.3-0.1,1.9,0c0.6,0,1.3,0.1,2.1,0.3C-641,277.5-639.9,278.6-639.2,280.3z"/>
	</g>
	<g>
		<path d="M-634.1,267.2l3.6,9.1c0.3,0.8,0.8,1.4,1.5,1.8c0.6,0.3,1.4,0.3,2.2,0s1.4-1,1.8-2.1l2.6,2c-0.8,1.7-2.1,2.9-3.7,3.5
			s-3.2,0.6-4.8,0c-1.6-0.7-2.7-1.9-3.5-3.8l-3.6-9l-2.2,0.9l-1.2-3l2.2-0.9l-2.2-5.6l3.8-1.5l2.2,5.6l4.7-1.9l1.2,3L-634.1,267.2z"
			/>
	</g>
	<g>
		<path d="M-627.1,256.8c-0.7-0.3-1.1-0.7-1.4-1.4c-0.3-0.7-0.2-1.3,0-2c0.3-0.7,0.7-1.1,1.4-1.4c0.6-0.3,1.3-0.2,2,0
			c0.7,0.3,1.1,0.7,1.4,1.4s0.2,1.3,0,2c-0.3,0.7-0.7,1.1-1.4,1.4C-625.8,257.1-626.4,257.1-627.1,256.8z M-615.1,276.8l-3.8,1.5
			l-7.1-17.8l3.8-1.5L-615.1,276.8z"/>
	</g>
	<g>
		<path d="M-601.6,271.8c-2.5,1-5,1-7.4,0c-2.5-1-4.2-2.8-5.3-5.6c-1.1-2.7-1-5.3,0.1-7.8c1.2-2.5,3.1-4.2,5.8-5.3
			c2.7-1.1,5.3-1,7.9,0.1l-1.1,3.6c-2.1-0.7-3.9-0.8-5.5-0.2c-1.6,0.6-2.7,1.7-3.5,3.2c-0.7,1.5-0.8,3.1-0.1,4.7
			c0.7,1.6,1.8,2.8,3.4,3.5c1.6,0.7,3.2,0.7,4.9,0c1.7-0.7,2.9-2,3.8-4.2l3.2,1.5C-596.7,268.5-598.8,270.6-601.6,271.8z"/>
	</g>
	<g>
		<path d="M-586.5,265.5l-3.8,1.5l-9.9-24.9l3.8-1.5l5.8,14.6l4.2-10.5l4.8-1.9l-4,9.8l11.6,7.9l-4.6,1.8l-8.4-5.7l-1.6,3.8
			L-586.5,265.5z"/>
	</g>
	<g>
		<path d="M-557.1,245.3l-14,5.6c0.6,1.3,1.6,2.1,3,2.4c1.4,0.4,2.8,0.3,4.2-0.3c2.2-0.9,3.7-2.3,4.3-4.1l3.1,1.5
			c-1.1,2.8-3.2,4.7-6.3,6c-2.5,1-5,1-7.4,0c-2.4-1-4.2-2.9-5.3-5.7s-1.1-5.4,0-7.8c1.1-2.4,2.9-4,5.3-5c2.4-1,4.8-1.1,7.1-0.3
			c2.3,0.8,3.9,2.5,5,5L-557.1,245.3z M-572.3,247.9l10.2-4.1c-0.6-1.5-1.5-2.5-2.8-2.9s-2.6-0.4-4,0.2c-1.4,0.5-2.4,1.5-3.2,2.7
			C-572.7,245.1-572.8,246.5-572.3,247.9z"/>
	</g>
	<g>
		<path d="M-546.4,232.9c-1.9,0.7-3,1.9-3.5,3.5s-0.3,3.4,0.5,5.4l3,7.6l-3.8,1.5l-7.1-17.8l3.8-1.5l1.4,3.6
			c0.2-1.4,0.6-2.6,1.4-3.7c0.8-1.1,1.7-1.9,2.9-2.4L-546.4,232.9C-546.3,232.8-546.4,232.9-546.4,232.9z"/>
	</g>
</g>
<g>
	<g>
		<path d="M-569.3,275.1v3.1l-11.7,5.4v-2.9l8.7-4v-0.3l-8.7-3.9v-2.8L-569.3,275.1z"/>
	</g>
	<g>
		<path d="M-554.6,275.1v3.1l-11.7,5.4v-2.9l8.7-4v-0.3l-8.7-3.9v-2.8L-554.6,275.1z"/>
	</g>
</g>
<g>
	<g>
		<g>
			<path class="st0" d="M-483,602.3c0,5.1-1.7,9.3-5.3,12.7c-3.4,3.4-7.8,5.2-13.2,5.2c-5.3,0-9.7-1.7-13.2-5.2
				c-3.4-3.4-5.3-7.6-5.3-12.7c0-5.1,1.7-9.3,5.3-12.7c3.4-3.4,7.8-5.2,13.2-5.2c5.3,0,9.7,1.7,13.2,5.2
				C-484.8,593.1-483,597.4-483,602.3z M-510.1,602.3c0,2.9,0.8,5.2,2.4,7c1.6,1.8,3.7,2.7,6.2,2.7s4.6-0.9,6.2-2.7
				c1.6-1.8,2.4-4.1,2.4-7c0-2.9-0.8-5.2-2.4-7c-1.6-1.8-3.7-2.7-6.2-2.7s-4.6,0.9-6.2,2.7C-509.2,597.2-510.1,599.5-510.1,602.3z"
				/>
		</g>
	</g>
	<g>
		<g>
			<path class="st0" d="M-443.9,601v18.7h-9.8v-19c0-2.8-0.4-4.8-1.2-6.1s-2.2-1.9-4.1-1.9c-1.9,0-3.5,0.7-5,2.1
				c-1.4,1.4-2.2,3.4-2.2,6.2v18.7h-9.7v-34.8h9.7v3.9c2.7-3.1,5.7-4.5,9.2-4.5c2.2,0,4.2,0.7,6,1.9c1.8,1.3,3.2,2.9,4,4.7
				c1.3-2.1,3.2-3.7,5.4-4.9c2.3-1.1,4.5-1.7,6.8-1.7c4.1,0,7.4,1.2,9.8,3.6c2.5,2.4,3.7,5.9,3.7,10.5v21.1h-9.8v-19
				c0-5.4-2-8-5.8-8c-1.9,0-3.6,0.7-5.1,2.1C-443.3,596.2-443.9,598.3-443.9,601z"/>
		</g>
	</g>
	<g>
		<g>
			<path class="st0" d="M-382.8,619.7h-9.1v-4.2c-2.5,3.2-5.5,4.7-9.3,4.7c-3.7,0-6.8-1.1-9.3-3.2c-2.5-2.1-3.7-5-3.7-8.5
				c0-3.5,1.3-6.2,3.9-7.9c2.6-1.7,6.1-2.7,10.6-2.7h7.3v-0.2c0-3.7-2-5.5-5.8-5.5c-1.7,0-3.4,0.3-5.4,1c-1.9,0.7-3.4,1.5-4.8,2.5
				l-4.3-6.3c4.6-3.3,9.8-5,15.7-5c4.2,0,7.6,1.1,10.3,3.2c2.7,2.1,4,5.4,4,10v22.2H-382.8z M-392.6,606.4v-1.7h-6.1
				c-3.9,0-5.8,1.2-5.8,3.6c0,1.2,0.5,2.2,1.4,2.9c1,0.7,2.3,1,4,1s3.3-0.6,4.6-1.6C-393.3,609.7-392.6,608.3-392.6,606.4z"/>
		</g>
	</g>
	<g>
		<g>
			<path class="st0" d="M-364.3,601v18.7h-9.7v-47.9h9.7v17c3-3,6.2-4.5,9.8-4.5s6.7,1.3,9.2,3.9c2.5,2.6,3.7,6,3.7,10.3v21.1h-9.7
				v-19c0-5.4-2-8-5.8-8c-1.9,0-3.6,0.7-5.1,2.1C-363.6,596.2-364.3,598.3-364.3,601z"/>
		</g>
	</g>
	<g>
		<g>
			<path class="st0" d="M-303.2,619.7h-9.1v-4.2c-2.5,3.2-5.5,4.7-9.3,4.7c-3.7,0-6.8-1.1-9.3-3.2c-2.5-2.1-3.7-5-3.7-8.5
				c0-3.5,1.3-6.2,3.9-7.9c2.6-1.7,6.1-2.7,10.6-2.7h7.3v-0.2c0-3.7-2-5.5-5.8-5.5c-1.7,0-3.4,0.3-5.4,1c-1.9,0.7-3.4,1.5-4.8,2.5
				l-4.3-6.3c4.6-3.3,9.8-5,15.7-5c4.2,0,7.6,1.1,10.3,3.2c2.7,2.1,4,5.4,4,10v22.2H-303.2z M-313,606.4v-1.7h-6.1
				c-3.9,0-5.8,1.2-5.8,3.6c0,1.2,0.5,2.2,1.4,2.9s2.3,1,4,1c1.7,0,3.3-0.6,4.6-1.6C-313.6,609.7-313,608.3-313,606.4z"/>
		</g>
	</g>
	<g>
		<g>
			<path class="st1" d="M-293.6,618.6c-1.1-1.1-1.6-2.5-1.6-4c0-1.6,0.6-3,1.6-4c1.1-1.1,2.5-1.6,4-1.6c1.6,0,3,0.6,4,1.6
				c1.1,1.1,1.6,2.5,1.6,4c0,1.6-0.6,3-1.6,4c-1.1,1.1-2.5,1.6-4,1.6C-291.3,620.2-292.6,619.7-293.6,618.6z"/>
		</g>
	</g>
	<g>
		<g>
			<path class="st0" d="M-261.8,621.3c-4.4,0-8.4-1.9-11.8-5.5c-3.4-3.6-5.2-8.3-5.2-13.7c0-5.4,1.7-9.9,5-13.4
				c3.3-3.5,7.3-5.3,11.9-5.3c3.6,0,6.7,1.1,9.3,3.1v-15.7h11.9v50.1h-11.9v-3C-255.2,620.1-258.3,621.3-261.8,621.3z M-261.9,585.4
				c-3.9,0-7.4,1.5-10.3,4.6c-3,3.1-4.4,7.1-4.4,12c0,4.9,1.5,9,4.6,12.2c3.1,3.3,6.4,4.9,10.2,4.9s6.9-1.5,9.4-4.7l1.9-2.4v6.6h7.6
				v-45.8h-7.6v18.7l-1.8-2.1C-254.8,586.8-258,585.4-261.9,585.4z M-259.5,613c-2.6,0-4.8-1.1-6.7-3.1c-1.8-2-2.8-4.5-2.8-7.6
				c0-3.1,1-5.6,2.7-7.7c1.8-2.1,4.1-3.3,6.7-3.3c2.6,0,4.8,1.1,6.6,3.2c1.7,2.1,2.6,4.7,2.6,7.7s-0.9,5.6-2.6,7.6
				C-254.8,612-257,613-259.5,613z M-259.6,593.6c-2,0-3.6,0.8-5.1,2.5c-1.4,1.7-2.2,3.8-2.2,6.3c0,2.6,0.8,4.6,2.2,6.1
				c1.5,1.6,3.2,2.4,5.1,2.4c1.9,0,3.5-0.8,4.9-2.3c1.4-1.6,2.1-3.6,2.1-6.2c0-2.6-0.7-4.7-2.1-6.4
				C-256,594.4-257.6,593.6-259.6,593.6z"/>
		</g>
	</g>
	<g>
		<g>
			<path class="st0" d="M-216.3,621.3c-5.5,0-10.2-1.8-13.9-5.4c-3.7-3.6-5.5-8.1-5.5-13.5c0-5.4,1.9-9.8,5.5-13.5s8.3-5.5,13.9-5.5
				s10.2,1.8,13.9,5.5c3.6,3.6,5.5,8.2,5.5,13.5c0,5.4-1.9,9.8-5.5,13.5C-206.2,619.4-210.8,621.3-216.3,621.3z M-216.3,585.4
				c-5,0-9.2,1.6-12.4,4.9c-3.3,3.3-4.9,7.2-4.9,12c0,4.8,1.6,8.7,4.9,12c3.3,3.3,7.5,4.9,12.4,4.9s9.2-1.6,12.4-4.9
				c3.3-3.3,4.9-7.2,4.9-12c0-4.8-1.6-8.7-4.9-12C-207.2,587.1-211.4,585.4-216.3,585.4z M-216.3,613c-2.9,0-5.2-1.1-7-3.1
				c-1.8-2-2.7-4.6-2.7-7.6c0-3.1,0.9-5.6,2.7-7.6c1.8-2,4.2-3.1,7-3.1c2.9,0,5.2,1.1,7,3.1c1.8,2,2.7,4.6,2.7,7.6
				c0,3.1-0.9,5.6-2.7,7.6C-211.1,612-213.5,613-216.3,613z M-216.3,593.7c-2.2,0-4,0.8-5.4,2.4c-1.4,1.6-2.2,3.6-2.2,6.3
				c0,2.6,0.7,4.6,2.1,6.2c1.4,1.5,3.2,2.3,5.4,2.3c2.2,0,4-0.8,5.4-2.3c1.4-1.6,2.1-3.6,2.1-6.2c0-2.6-0.7-4.7-2.2-6.3
				C-212.4,594.5-214.1,593.7-216.3,593.7z"/>
		</g>
	</g>
	<g>
		<g>
			<path class="st0" d="M-175.5,634.5c-2.7,0-5.4-0.5-8.2-1.3c-2.8-0.9-5.3-2.1-7.4-3.7l-0.7-0.6l4.7-9.2l1.1,0.8
				c3,2.3,6.2,3.4,9.5,3.4c3.3,0,5.9-0.8,7.7-2.4c1.3-1.1,2.2-2.8,2.5-4.9c-2.9,2.3-6.3,3.5-10.1,3.5c-4.8,0-8.9-1.6-12.2-5
				c-3.3-3.3-5-7.6-5-13.1c0-5.4,1.7-9.9,5.1-13.4c3.4-3.5,7.4-5.3,11.8-5.3c3.5,0,6.6,1.1,9.2,3.4v-3h11.9v31.4
				c0,3.3-0.6,6.1-1.7,8.7c-1.1,2.6-2.7,4.6-4.7,6.1C-165.9,633-170.4,634.5-175.5,634.5z M-189.1,628.2c1.7,1.2,3.8,2.2,6,2.9
				c2.6,0.8,5.2,1.2,7.6,1.2c4.6,0,8.6-1.3,12-4c1.7-1.2,3.1-3.1,4-5.3c1.1-2.3,1.5-4.9,1.5-7.8V586h-7.6v6.6l-1.9-2.4
				c-2.5-3.2-5.6-4.7-9.5-4.7s-7.3,1.5-10.2,4.6c-3,3.1-4.5,7.1-4.5,12c0,4.9,1.4,8.7,4.4,11.6c3,2.9,6.5,4.3,10.7,4.3
				c4.3,0,7.7-1.5,10.6-4.8l1.8-2.1v2.8c0,4.1-1.1,7.3-3.4,9.2c-2.3,1.9-5.4,2.9-9.1,2.9c-3.3,0-6.7-1.1-9.8-3.1L-189.1,628.2z
				 M-174.6,611.9c-2.6,0-4.9-1-6.7-2.9c-1.8-1.9-2.7-4.4-2.7-7.5c0-3.1,1-5.4,2.8-7.3s4.1-2.7,6.7-2.7c2.6,0,4.8,1,6.5,2.7
				c1.7,1.8,2.6,4.2,2.6,7.3c0,3.1-0.9,5.5-2.6,7.4C-169.7,610.9-171.9,611.9-174.6,611.9z M-174.5,593.7c-2,0-3.7,0.7-5.2,2.1
				c-1.4,1.4-2.2,3.3-2.2,5.7c0,2.5,0.7,4.4,2.1,5.9c1.4,1.5,3.1,2.2,5.2,2.2c2,0,3.7-0.7,5.1-2.2c1.3-1.5,2-3.4,2-5.9
				s-0.7-4.4-2-5.8C-170.9,594.4-172.5,593.7-174.5,593.7z"/>
		</g>
	</g>
</g>
<g>
	<path class="st0" d="M-519.8,553.5c-1.7-1.7-2.6-4-2.6-6.8s0.9-5.1,2.6-6.7c1.7-1.7,3.8-2.5,6.2-2.5c2.4,0,4.4,1,5.8,3.1v-9.9h3.8
		v25.3h-3.8v-2.7c-1.4,2-3.5,3-6.2,3C-516.1,556.1-518.1,555.2-519.8,553.5z M-518.6,546.8c0,1.7,0.6,3.1,1.7,4.2
		c1.1,1.1,2.4,1.6,3.9,1.6c1.5,0,2.8-0.5,3.8-1.7c1-1.1,1.6-2.5,1.6-4.2s-0.5-3.2-1.6-4.3c-1-1.2-2.3-1.7-3.8-1.7
		c-1.5,0-2.8,0.6-3.9,1.7S-518.6,545.1-518.6,546.8z"/>
	<path class="st0" d="M-483.2,553.4c-1.8,1.8-4.1,2.7-6.8,2.7c-2.7,0-5-0.9-6.8-2.7c-1.8-1.8-2.7-4-2.7-6.6c0-2.6,0.9-4.8,2.7-6.6
		c1.8-1.8,4.1-2.7,6.8-2.7c2.7,0,5,0.9,6.8,2.7c1.8,1.8,2.7,4,2.7,6.6C-480.5,549.3-481.4,551.5-483.2,553.4z M-494.1,551
		c1.1,1.1,2.4,1.7,4.1,1.7s3-0.5,4.1-1.7c1.1-1.1,1.6-2.5,1.6-4.3c0-1.7-0.5-3.2-1.6-4.3c-1.1-1.1-2.4-1.7-4.1-1.7s-3,0.6-4.1,1.7
		c-1.1,1.1-1.6,2.5-1.6,4.3C-495.7,548.5-495.2,549.9-494.1,551z"/>
	<path class="st0" d="M-459.4,537.7v15.8c0,3.2-0.9,5.6-2.6,7.2c-1.7,1.6-4,2.4-6.7,2.4c-2.7,0-5.2-0.9-7.4-2.6l1.8-2.9
		c1.8,1.3,3.6,2,5.4,2c1.8,0,3.2-0.5,4.3-1.4s1.6-2.4,1.6-4.5v-2.3c-0.6,1.1-1.4,1.9-2.4,2.6c-1.1,0.6-2.2,1-3.6,1
		c-2.4,0-4.4-0.8-5.9-2.5s-2.3-3.8-2.3-6.3c0-2.5,0.8-4.6,2.3-6.3c1.5-1.7,3.5-2.5,5.9-2.5c2.4,0,4.3,1,5.8,3v-2.7H-459.4z
		 M-473.5,546c0,1.5,0.5,2.8,1.4,3.8c0.9,1.1,2.2,1.6,3.7,1.6c1.6,0,2.8-0.5,3.8-1.6c1-1,1.4-2.3,1.4-3.9s-0.5-2.9-1.5-3.9
		c-1-1.1-2.2-1.6-3.8-1.6c-1.5,0-2.8,0.6-3.7,1.7C-473.1,543.2-473.5,544.5-473.5,546z"/>
	<path class="st0" d="M-454.2,547.4v-3.6h11.3v3.6H-454.2z"/>
	<path class="st0" d="M-433.3,536.2v1.5h4.8v3.1h-4.8v15h-3.8v-15h-2.3v-3.1h2.3v-1.4c0-1.9,0.6-3.4,1.7-4.5
		c1.1-1.1,2.5-1.7,4.2-1.7s3.1,0.6,4.4,1.8l-1.6,2.7c-0.7-0.8-1.5-1.2-2.3-1.2s-1.5,0.3-1.9,0.8
		C-433.1,534.6-433.3,535.3-433.3,536.2z"/>
	<path class="st0" d="M-415.4,541.3c-1.9,0-3.3,0.6-4.3,1.8s-1.4,2.9-1.4,4.9v7.8h-3.8v-18.1h3.8v3.6c0.6-1.1,1.4-2.1,2.5-2.8
		c1.1-0.7,2.2-1.1,3.4-1.1l0,3.8C-415.2,541.3-415.3,541.3-415.4,541.3z"/>
	<path class="st0" d="M-411.1,534.1c-0.5-0.5-0.7-1-0.7-1.7s0.2-1.2,0.7-1.7s1-0.7,1.7-0.7s1.2,0.2,1.7,0.7s0.7,1,0.7,1.7
		s-0.2,1.2-0.7,1.7s-1,0.7-1.7,0.7S-410.6,534.5-411.1,534.1z M-407.5,555.8h-3.8v-18.1h3.8V555.8z"/>
	<path class="st0" d="M-385.2,548.4h-14.2c0.1,1.3,0.7,2.4,1.8,3.2s2.4,1.2,3.8,1.2c2.3,0,4-0.7,5.2-2.1l2.2,2.4c-2,2-4.5,3-7.6,3
		c-2.5,0-4.7-0.8-6.5-2.5c-1.8-1.7-2.7-4-2.7-6.8c0-2.8,0.9-5.1,2.7-6.8c1.8-1.7,4-2.5,6.4-2.5s4.6,0.7,6.3,2.2
		c1.7,1.5,2.6,3.5,2.6,6.1V548.4z M-399.4,545.4h10.4c0-1.5-0.5-2.7-1.4-3.5c-1-0.8-2.1-1.2-3.5-1.2c-1.4,0-2.7,0.4-3.8,1.3
		C-398.8,542.8-399.4,544-399.4,545.4z"/>
	<path class="st0" d="M-377.2,546v9.8h-3.8v-18.1h3.8v3.3c0.6-1.1,1.5-2,2.5-2.6c1.1-0.6,2.2-1,3.5-1c2,0,3.7,0.6,5,1.9
		c1.3,1.2,1.9,3.1,1.9,5.4v11.1h-3.8v-9.9c0-3.3-1.4-5-4.2-5c-1.3,0-2.5,0.4-3.4,1.3C-376.7,543-377.2,544.3-377.2,546z"/>
	<path class="st0" d="M-357.6,553.5c-1.7-1.7-2.6-4-2.6-6.8s0.9-5.1,2.6-6.7c1.7-1.7,3.8-2.5,6.2-2.5s4.4,1,5.8,3.1v-9.9h3.8v25.3
		h-3.8v-2.7c-1.4,2-3.5,3-6.2,3C-353.9,556.1-355.9,555.2-357.6,553.5z M-356.3,546.8c0,1.7,0.6,3.1,1.7,4.2
		c1.1,1.1,2.4,1.6,3.9,1.6c1.5,0,2.8-0.5,3.8-1.7c1-1.1,1.6-2.5,1.6-4.2s-0.5-3.2-1.6-4.3c-1-1.2-2.3-1.7-3.8-1.7
		c-1.5,0-2.8,0.6-3.9,1.7S-356.3,545.1-356.3,546.8z"/>
	<path class="st0" d="M-332.3,555.8h-3.8v-25.3h3.8V555.8z"/>
	<path class="st0" d="M-324.5,563c-1.7,0-3.2-0.6-4.5-1.8l1.7-3.1c0.8,0.7,1.6,1.1,2.5,1.1c0.9,0,1.5-0.3,2.1-0.9
		c0.5-0.6,0.8-1.3,0.8-2c0-0.3-2.4-6.5-7.3-18.6h4.1l5.4,13.3l5.4-13.3h4.1l-8.8,21.5c-0.5,1.2-1.3,2.1-2.2,2.8
		C-322.2,562.7-323.3,563-324.5,563z"/>
	<path class="st0" d="M-288.2,537.4c2.4,0,4.5,0.8,6.2,2.5c1.7,1.7,2.6,3.9,2.6,6.7c0,2.8-0.9,5.1-2.6,6.8c-1.7,1.7-3.7,2.6-6,2.6
		c-2.3,0-4.3-1-6.1-3v2.7h-3.8v-25.3h3.8v10.3C-292.6,538.6-290.6,537.4-288.2,537.4z M-294.2,546.8c0,1.7,0.5,3.1,1.6,4.2
		c1,1.1,2.3,1.7,3.8,1.7s2.8-0.5,3.9-1.6c1.1-1.1,1.7-2.5,1.7-4.2c0-1.7-0.5-3.2-1.6-4.3c-1.1-1.1-2.4-1.7-3.9-1.7
		c-1.5,0-2.8,0.6-3.8,1.7C-293.6,543.6-294.2,545-294.2,546.8z"/>
	<path class="st0" d="M-262.4,547.5v-9.8h3.8v18.1h-3.8v-3.3c-0.6,1.1-1.5,2-2.5,2.6c-1.1,0.6-2.2,1-3.5,1c-2,0-3.7-0.6-5-1.9
		c-1.3-1.2-1.9-3.1-1.9-5.4v-11.1h3.8v9.9c0,3.3,1.4,5,4.2,5c1.3,0,2.5-0.4,3.4-1.3C-262.9,550.4-262.4,549.2-262.4,547.5z"/>
	<path class="st0" d="M-240.1,550.4c0,1.7-0.6,3.1-1.9,4.1c-1.2,1-2.8,1.5-4.8,1.5c-1.3,0-2.7-0.2-4.1-0.7c-1.4-0.5-2.7-1.1-3.8-2
		l1.8-3c2.1,1.6,4.2,2.4,6.1,2.4c0.9,0,1.5-0.2,2-0.6c0.5-0.4,0.7-0.9,0.7-1.5c0-0.9-1.2-1.7-3.6-2.5c-0.2-0.1-0.3-0.1-0.4-0.1
		c-3.8-1-5.7-2.7-5.7-5.1c0-1.7,0.7-3,2-4c1.3-1,3-1.5,5.1-1.5s4.1,0.6,5.9,1.8l-1.4,2.8c-1.5-1-3.1-1.5-4.8-1.5
		c-0.9,0-1.6,0.2-2.2,0.5c-0.6,0.3-0.9,0.8-0.9,1.5c0,0.6,0.3,1,0.9,1.3c0.4,0.2,1,0.4,1.7,0.6c0.7,0.2,1.4,0.4,2,0.5
		s1.1,0.4,1.7,0.6c0.5,0.2,1.1,0.5,1.7,1C-240.8,547.4-240.1,548.6-240.1,550.4z"/>
	<path class="st0" d="M-235.6,534.1c-0.5-0.5-0.7-1-0.7-1.7s0.2-1.2,0.7-1.7s1-0.7,1.7-0.7s1.2,0.2,1.7,0.7s0.7,1,0.7,1.7
		s-0.2,1.2-0.7,1.7s-1,0.7-1.7,0.7S-235.1,534.5-235.6,534.1z M-232,555.8h-3.8v-18.1h3.8V555.8z"/>
	<path class="st0" d="M-222.7,546v9.8h-3.8v-18.1h3.8v3.3c0.6-1.1,1.5-2,2.5-2.6c1.1-0.6,2.2-1,3.5-1c2,0,3.7,0.6,5,1.9
		c1.3,1.2,1.9,3.1,1.9,5.4v11.1h-3.8v-9.9c0-3.3-1.4-5-4.2-5c-1.3,0-2.5,0.4-3.4,1.3S-222.7,544.3-222.7,546z"/>
	<path class="st0" d="M-187.6,548.4h-14.2c0.1,1.3,0.7,2.4,1.8,3.2c1.1,0.8,2.4,1.2,3.8,1.2c2.3,0,4-0.7,5.2-2.1l2.2,2.4
		c-2,2-4.5,3-7.6,3c-2.5,0-4.7-0.8-6.5-2.5c-1.8-1.7-2.7-4-2.7-6.8c0-2.8,0.9-5.1,2.7-6.8c1.8-1.7,4-2.5,6.4-2.5
		c2.5,0,4.6,0.7,6.3,2.2c1.7,1.5,2.6,3.5,2.6,6.1V548.4z M-201.8,545.4h10.4c0-1.5-0.5-2.7-1.4-3.5c-1-0.8-2.1-1.2-3.5-1.2
		s-2.7,0.4-3.8,1.3C-201.3,542.8-201.8,544-201.8,545.4z"/>
	<path class="st0" d="M-170.6,550.4c0,1.7-0.6,3.1-1.9,4.1c-1.2,1-2.8,1.5-4.8,1.5c-1.3,0-2.7-0.2-4.1-0.7c-1.4-0.5-2.7-1.1-3.8-2
		l1.8-3c2.1,1.6,4.2,2.4,6.1,2.4c0.9,0,1.5-0.2,2-0.6c0.5-0.4,0.7-0.9,0.7-1.5c0-0.9-1.2-1.7-3.6-2.5c-0.2-0.1-0.3-0.1-0.4-0.1
		c-3.8-1-5.7-2.7-5.7-5.1c0-1.7,0.7-3,2-4c1.3-1,3-1.5,5.1-1.5s4.1,0.6,5.9,1.8l-1.4,2.8c-1.5-1-3.1-1.5-4.8-1.5
		c-0.9,0-1.6,0.2-2.2,0.5c-0.6,0.3-0.9,0.8-0.9,1.5c0,0.6,0.3,1,0.9,1.3c0.4,0.2,1,0.4,1.7,0.6c0.7,0.2,1.4,0.4,2,0.5
		s1.1,0.4,1.7,0.6c0.5,0.2,1.1,0.5,1.7,1C-171.2,547.4-170.6,548.6-170.6,550.4z"/>
	<path class="st0" d="M-153.3,550.4c0,1.7-0.6,3.1-1.9,4.1c-1.2,1-2.8,1.5-4.8,1.5c-1.3,0-2.7-0.2-4.1-0.7c-1.4-0.5-2.7-1.1-3.8-2
		l1.8-3c2.1,1.6,4.2,2.4,6.1,2.4c0.9,0,1.5-0.2,2-0.6c0.5-0.4,0.7-0.9,0.7-1.5c0-0.9-1.2-1.7-3.6-2.5c-0.2-0.1-0.3-0.1-0.4-0.1
		c-3.8-1-5.7-2.7-5.7-5.1c0-1.7,0.7-3,2-4c1.3-1,3-1.5,5.1-1.5s4.1,0.6,5.9,1.8l-1.4,2.8c-1.5-1-3.1-1.5-4.8-1.5
		c-0.9,0-1.6,0.2-2.2,0.5c-0.6,0.3-0.9,0.8-0.9,1.5c0,0.6,0.3,1,0.9,1.3c0.4,0.2,1,0.4,1.7,0.6c0.7,0.2,1.4,0.4,2,0.5
		s1.1,0.4,1.7,0.6c0.5,0.2,1.1,0.5,1.7,1C-153.9,547.4-153.3,548.6-153.3,550.4z"/>
</g>
<g>
	<g>
		<circle class="st0" cx="-339.4" cy="336.9" r="177.1"/>
	</g>
	<g>
		<g>
			<path class="st2" d="M-339.4,515.7c-8.9,0-17.9-0.7-26.7-2c-1-6.3-1.4-12.8-1.4-19.4c0-21.6,5.1-41.4,14.5-55.7
				c9.7-15,23-22.9,38.3-22.9c32,0,58.1,35.3,58.1,78.7c0,0.3,0,0.6,0,0.9C-282,508.6-310.6,515.7-339.4,515.7z"/>
		</g>
		<g>
			<path class="st2" d="M-314.7,416.3c31.6,0,57.4,35,57.4,78c0,0.2,0,0.3,0,0.5c-12.3,6.5-25.3,11.5-38.7,14.9
				c-14.1,3.6-28.7,5.4-43.3,5.4c-8.7,0-17.5-0.6-26.1-1.9c-0.9-6.1-1.4-12.4-1.4-18.8c0-21.4,5.1-41.1,14.4-55.4
				c4.6-7.2,10.2-12.7,16.4-16.6C-329.5,418.4-322.4,416.3-314.7,416.3 M-314.7,414.9c-32.5,0-53.5,35.5-53.5,79.4
				c0,6.9,0.5,13.6,1.5,20c8.9,1.4,18,2.1,27.3,2.1c30.1,0,58.5-7.5,83.4-20.8c0-0.4,0-0.9,0-1.3
				C-256,450.5-282.3,414.9-314.7,414.9L-314.7,414.9z"/>
		</g>
	</g>
	<g>
		<path class="st0" d="M-339.2,450.7h-1.4c-6.4,0-12.8-0.8-18.8-2.5l2.5-9c5.2,1.4,10.7,2.2,16.3,2.2h1.4c18.7,0,36.4-8.2,48.4-22.6
			l7.2,6C-297.4,441.3-317.7,450.7-339.2,450.7z"/>
	</g>
	<g>
		<g>
			<path class="st2" d="M-371.1,302.8c-6.4-15.2-17.2-29-31.7-36.9c-14.5-7.9-32.9-9.3-47.5-1.6s-24.1,25.1-20.7,41.2
				c1.4,6.4,5.2,12.9,11.5,14.7c6.4,1.8,13.1-1.7,18.2-6c6.2-5.4,11.2-12,17.3-17.5c6.1-5.5,14-9.8,22.2-9
				c6.8,0.7,12.8,4.9,17.1,10.2c4.3,5.3,7.2,11.5,10,17.7"/>
		</g>
		<g>
			<path class="st2" d="M-339.2,446h-1.4c-37.5,0-64.7-30.4-64.7-68v-34.3c0-37.5,27.2-55.4,64.7-55.4h1.4c37.5,0,68,17.9,68,55.4
				v34.3C-271.2,415.6-301.6,446-339.2,446z"/>
			<path class="st0" d="M-339.2,447.9h-1.4c-18.5,0-35.5-7.3-47.8-20.5c-12.1-13-18.8-30.5-18.8-49.3v-34.3c0-18.4,6.6-33.3,19-43.2
				c11.5-9.2,28-14,47.6-14h1.4c19.9,0,36.9,4.8,49.2,14c13.5,10.1,20.7,25,20.7,43.3v34.3C-269.4,416.6-300.7,447.9-339.2,447.9z
				 M-340.6,290.3c-18.8,0-34.4,4.6-45.3,13.2c-11.7,9.3-17.6,22.9-17.6,40.3v34.3c0,17.9,6.3,34.5,17.8,46.8
				c11.6,12.5,27.6,19.3,45.1,19.3h1.4c36.4,0,66.1-29.6,66.1-66.1v-34.3c0-17-6.6-30.9-19.1-40.3c-11.6-8.7-27.9-13.3-46.9-13.3
				H-340.6z"/>
		</g>
		<g>
			<ellipse class="st0" cx="-346.6" cy="390.5" rx="31.9" ry="22"/>
		</g>
		<g>
			<ellipse class="st0" cx="-388.9" cy="377" rx="5.1" ry="11.2"/>
		</g>
		<g>
			<ellipse class="st0" cx="-295.6" cy="377" rx="5.1" ry="11.2"/>
		</g>
		<g>
			<path class="st0" d="M-345.6,437.8c-1.4,0-2.5-1.1-2.5-2.5c0-1.4,1.1-2.5,2.5-2.5c15.3,0,29.2-7.4,34.5-18.4
				c0.6-1.3,2.1-1.8,3.4-1.2c1.3,0.6,1.8,2.1,1.2,3.4C-312.9,429.5-328.2,437.8-345.6,437.8z"/>
		</g>
		<g>
			<path class="st2" d="M-370.2,386.5c-0.6,0-1.2-0.2-1.7-0.7c-1-0.9-1.1-2.5-0.1-3.6c3.8-4.1,9.2-7.2,15.5-9.1
				c1.3-0.4,2.7,0.4,3.1,1.7c0.4,1.3-0.4,2.7-1.7,3.1c-5.5,1.6-10.1,4.3-13.2,7.7C-368.9,386.3-369.5,386.5-370.2,386.5z"/>
		</g>
		<g>
			<path class="st2" d="M-279.6,327.5c8.6-19.7,11.9-42.2,6.4-62.9s-20.7-39.4-41.1-46.3c-20.3-6.9-45.3-0.3-57.5,17.4
				c-4.8,7-7.5,16.5-3.6,24.1c4,7.7,13.4,10.8,22,11.7c10.6,1.1,21.4-0.2,32,0.7c10.7,0.9,21.8,4.4,28.4,12.9
				c5.4,7,6.8,16.4,5.7,25.2c-1.1,8.8-4.4,17.1-7.7,25.3"/>
		</g>
	</g>
	<g>
		<ellipse class="st0" cx="-339.4" cy="460.1" rx="8.1" ry="11.8"/>
	</g>
	<g>
		<path class="st0" d="M-347.7,516.6c-1.2,0-2.1-0.9-2.1-2.1v-24.1c0-1.2,0.9-2.1,2.1-2.1c1.2,0,2.1,0.9,2.1,2.1v24.1
			C-345.6,515.7-346.6,516.6-347.7,516.6z"/>
	</g>
	<g>
		<path class="st0" d="M-312.4,515.4c-1.2,0-2.1-0.9-2.1-2.1v-32.6c0-1.2,0.9-2.1,2.1-2.1s2.1,0.9,2.1,2.1v32.6
			C-310.3,514.5-311.3,515.4-312.4,515.4z"/>
	</g>
</g>
</svg>
