<?xml version="1.0" encoding="utf-8"?>
<!-- Generator: Adobe Illustrator 19.1.0, SVG Export Plug-In . SVG Version: 6.00 Build 0)  -->
<svg version="1.1" id="Layer_1" xmlns="http://www.w3.org/2000/svg" xmlns:xlink="http://www.w3.org/1999/xlink" x="0px" y="0px"
	 viewBox="0 0 787 304" style="enable-background:new 0 0 787 304;" xml:space="preserve">
<style type="text/css">
	.st0{fill:#55A4DB;}
	.st1{font-family:'Montserrat-Bold';}
	.st2{font-size:37.6176px;}
	.st3{fill:none;stroke:#55A4DB;stroke-width:1.5;stroke-miterlimit:10;}
	.st4{fill:#FFFFFF;}
	.st5{font-size:27.8133px;}
</style>
<g>
	<text transform="matrix(1 0 0 1 295.5822 256.5487)"><tspan x="0" y="0" class="st0 st1 st2">omaha.</tspan><tspan x="141" y="0" class="st3 st1 st2">dog</tspan></text>
</g>
<path class="st0" d="M580.9,256.5c-29.2,0-54.7-19-63.6-46.2H289.4c-8.9,27.2-34.4,46.2-63.6,46.2c-37,0-67-30.1-67-67
	c0-15.2,5.3-30,14.9-41.8c-9.5-11.8-14.9-26.6-14.9-41.8c0-37,30.1-67,67-67c29.2,0,54.7,19,63.6,46.2h227.9
	c8.9-27.2,34.4-46.2,63.6-46.2c37,0,67,30.1,67,67c0,15.2-5.3,30-14.9,41.8c9.5,11.8,14.9,26.6,14.9,41.8
	C648,226.5,617.9,256.5,580.9,256.5z"/>
<text transform="matrix(1 0 0 1 245.8459 159.6765)" class="st4 st1 st5">dog-friendly business </text>
<g>
	<path d="M42.8,171.6c0.7,1.7,0.6,3.3-0.2,4.8c-0.8,1.5-2.2,2.6-4.1,3.4c-1.3,0.5-2.7,0.8-4.3,0.9c-1.6,0.1-3.1-0.1-4.5-0.5l0.6-3.6
		c2.7,0.7,5,0.7,7-0.1c0.8-0.3,1.4-0.8,1.8-1.4c0.3-0.6,0.4-1.2,0.1-1.8c-0.4-0.9-1.9-1.2-4.5-1c-0.2,0-0.4,0-0.5,0
		c-4.1,0.5-6.6-0.5-7.6-2.8c-0.7-1.7-0.5-3.2,0.3-4.7c0.9-1.5,2.4-2.7,4.4-3.5c2.1-0.8,4.2-1,6.6-0.5l-0.3,3.3
		c-1.8-0.4-3.6-0.2-5.3,0.4c-0.9,0.4-1.6,0.8-2,1.4c-0.4,0.5-0.5,1.1-0.3,1.8c0.2,0.6,0.7,0.9,1.4,0.9c0.5,0,1.1,0,1.9-0.1
		c0.8-0.1,1.5-0.2,2.1-0.2c0.6,0,1.3-0.1,1.9,0c0.6,0,1.3,0.1,2.1,0.3C41,168.8,42.1,169.9,42.8,171.6z"/>
	<path d="M47.9,158.5l3.6,9.1c0.3,0.8,0.8,1.4,1.5,1.8c0.6,0.3,1.4,0.3,2.2,0c0.8-0.3,1.4-1,1.8-2.1l2.6,2c-0.8,1.7-2.1,2.9-3.7,3.5
		c-1.6,0.6-3.2,0.6-4.8,0c-1.6-0.7-2.7-1.9-3.5-3.8l-3.6-9l-2.2,0.9l-1.2-3l2.2-0.9l-2.2-5.6l3.8-1.5l2.2,5.6l4.7-1.9l1.2,3
		L47.9,158.5z"/>
	<path d="M54.9,148.1c-0.7-0.3-1.1-0.7-1.4-1.4s-0.2-1.3,0-2c0.3-0.7,0.7-1.1,1.4-1.4c0.6-0.3,1.3-0.2,2,0c0.7,0.3,1.1,0.7,1.4,1.4
		s0.2,1.3,0,2c-0.3,0.7-0.7,1.1-1.4,1.4C56.2,148.4,55.6,148.4,54.9,148.1z M66.9,168.1l-3.8,1.5l-7.1-17.8l3.8-1.5L66.9,168.1z"/>
	<path d="M80.4,163.1c-2.5,1-5,1-7.4,0c-2.5-1-4.2-2.8-5.3-5.6c-1.1-2.7-1-5.3,0.1-7.8c1.2-2.5,3.1-4.2,5.8-5.3
		c2.7-1.1,5.3-1,7.9,0.1l-1.1,3.6c-2.1-0.7-3.9-0.8-5.5-0.2c-1.6,0.6-2.7,1.7-3.5,3.2c-0.7,1.5-0.8,3.1-0.1,4.7
		c0.7,1.6,1.8,2.8,3.4,3.5c1.6,0.7,3.2,0.7,4.9,0c1.7-0.7,2.9-2,3.8-4.2l3.2,1.5C85.3,159.8,83.2,161.9,80.4,163.1z"/>
	<path d="M95.5,156.8l-3.8,1.5l-9.9-24.9l3.8-1.5l5.8,14.6l4.2-10.5l4.8-1.9l-4,9.8l11.6,7.9l-4.6,1.8l-8.4-5.7l-1.6,3.8L95.5,156.8
		z"/>
	<path d="M124.9,136.6l-14,5.6c0.6,1.3,1.6,2.1,3,2.4c1.4,0.4,2.8,0.3,4.2-0.3c2.2-0.9,3.7-2.3,4.3-4.1l3.1,1.5
		c-1.1,2.8-3.2,4.7-6.3,6c-2.5,1-5,1-7.4,0c-2.4-1-4.2-2.9-5.3-5.7c-1.1-2.8-1.1-5.4,0-7.8c1.1-2.4,2.9-4,5.3-5
		c2.4-1,4.8-1.1,7.1-0.3c2.3,0.8,3.9,2.5,5,5L124.9,136.6z M109.7,139.2l10.2-4.1c-0.6-1.5-1.5-2.5-2.8-2.9c-1.3-0.4-2.6-0.4-4,0.2
		c-1.4,0.5-2.4,1.5-3.2,2.7C109.3,136.4,109.2,137.8,109.7,139.2z"/>
	<path d="M135.6,124.2c-1.9,0.7-3,1.9-3.5,3.5c-0.5,1.6-0.3,3.4,0.5,5.4l3,7.6l-3.8,1.5l-7.1-17.8l3.8-1.5l1.4,3.6
		c0.2-1.4,0.6-2.6,1.4-3.7c0.8-1.1,1.7-1.9,2.9-2.4l1.5,3.8C135.7,124.1,135.6,124.2,135.6,124.2z"/>
</g>
<g>
	<path d="M112.7,166.4v3.1l-11.7,5.4V172l8.7-4v-0.3l-8.7-3.9V161L112.7,166.4z"/>
	<path d="M127.4,166.4v3.1l-11.7,5.4V172l8.7-4v-0.3l-8.7-3.9V161L127.4,166.4z"/>
</g>
</svg>
