<?xml version="1.0" encoding="utf-8"?>
<!-- Generator: Adobe Illustrator 19.1.0, SVG Export Plug-In . SVG Version: 6.00 Build 0)  -->
<svg version="1.1" id="Layer_1" xmlns="http://www.w3.org/2000/svg" xmlns:xlink="http://www.w3.org/1999/xlink" x="0px" y="0px"
	 viewBox="-140 293 510.9 207" style="enable-background:new -140 293 510.9 207;" xml:space="preserve">
<style type="text/css">
	.st0{enable-background:new    ;}
	.st1{fill:#FFFFFF;}
	.st2{fill:#3FA9F5;}
	.st3{fill:none;stroke:#3FA9F5;stroke-width:2;stroke-miterlimit:10;}
</style>
<g>
	<g class="st0">
		<path class="st1" d="M-42.6,400c0,5.6-1.9,10.2-5.8,14c-3.8,3.8-8.7,5.7-14.5,5.7c-5.8,0-10.6-1.9-14.5-5.7
			c-3.8-3.8-5.8-8.5-5.8-14c0-5.6,1.9-10.2,5.8-14.1c3.8-3.8,8.7-5.7,14.5-5.7c5.8,0,10.6,1.9,14.5,5.7
			C-44.5,389.7-42.6,394.4-42.6,400z M-72.3,400c0,3.1,0.9,5.7,2.7,7.7c1.8,2,4.1,3,6.8,3c2.8,0,5.1-1,6.8-3c1.8-2,2.7-4.5,2.7-7.7
			s-0.9-5.7-2.7-7.7c-1.8-2-4.1-3-6.8-3c-2.8,0-5.1,1-6.8,3C-71.4,394.3-72.3,396.9-72.3,400z"/>
		<path class="st1" d="M0.5,398.5v20.6h-10.8v-20.9c0-3-0.5-5.3-1.4-6.7s-2.4-2.1-4.5-2.1c-2.1,0-3.9,0.8-5.5,2.3
			c-1.6,1.5-2.4,3.8-2.4,6.8v20.6h-10.7v-38.3H-24v4.3c2.9-3.3,6.3-5,10.1-5c2.4,0,4.6,0.7,6.6,2.1c2,1.4,3.5,3.2,4.4,5.2
			c1.5-2.3,3.5-4.1,5.9-5.4s5-1.9,7.5-1.9c4.5,0,8.1,1.3,10.9,4c2.8,2.7,4.1,6.6,4.1,11.6v23.3H14.9v-20.9c0-5.9-2.2-8.8-6.5-8.8
			c-2.1,0-4,0.8-5.6,2.3C1.3,393.2,0.5,395.5,0.5,398.5z"/>
		<path class="st1" d="M67.9,419.1h-10v-4.6c-2.8,3.5-6.2,5.2-10.2,5.2s-7.5-1.2-10.2-3.5c-2.8-2.3-4.1-5.5-4.1-9.4
			c0-3.9,1.4-6.8,4.3-8.8c2.8-1.9,6.7-2.9,11.7-2.9h8v-0.2c0-4.1-2.2-6.1-6.5-6.1c-1.9,0-3.8,0.4-5.9,1.1c-2.1,0.7-3.8,1.6-5.2,2.7
			l-4.8-6.9c5-3.7,10.8-5.5,17.2-5.5c4.7,0,8.4,1.2,11.4,3.5c2.9,2.3,4.4,6,4.4,11V419.1z M57.1,404.5v-1.9h-6.7
			c-4.3,0-6.4,1.3-6.4,4c0,1.4,0.5,2.4,1.5,3.2c1,0.7,2.5,1.1,4.4,1.1c1.9,0,3.6-0.6,5-1.7C56.4,408,57.1,406.5,57.1,404.5z"/>
		<path class="st1" d="M88.3,398.5v20.6H77.6v-52.8h10.7v18.8c3.2-3.3,6.8-4.9,10.9-4.9c4,0,7.4,1.4,10.1,4.3
			c2.8,2.8,4.1,6.6,4.1,11.4v23.3h-10.7v-20.9c0-5.9-2.2-8.8-6.5-8.8c-2.1,0-4,0.8-5.6,2.3C89.1,393.2,88.3,395.5,88.3,398.5z"/>
		<path class="st1" d="M155.6,419.1h-10v-4.6c-2.8,3.5-6.2,5.2-10.2,5.2c-4.1,0-7.5-1.2-10.2-3.5c-2.8-2.3-4.1-5.5-4.1-9.4
			c0-3.9,1.4-6.8,4.3-8.8s6.7-2.9,11.7-2.9h8v-0.2c0-4.1-2.2-6.1-6.5-6.1c-1.9,0-3.8,0.4-5.9,1.1c-2.1,0.7-3.8,1.6-5.2,2.7l-4.8-6.9
			c5-3.7,10.8-5.5,17.2-5.5c4.7,0,8.4,1.2,11.4,3.5c2.9,2.3,4.4,6,4.4,11V419.1z M144.9,404.5v-1.9h-6.7c-4.3,0-6.4,1.3-6.4,4
			c0,1.4,0.5,2.4,1.5,3.2c1,0.7,2.5,1.1,4.4,1.1s3.6-0.6,5-1.7C144.2,408,144.9,406.5,144.9,404.5z"/>
	</g>
	<g class="st0">
		<path class="st2" d="M166.2,417.9c-1.2-1.2-1.8-2.7-1.8-4.4s0.6-3.2,1.8-4.5c1.2-1.2,2.7-1.8,4.5-1.8c1.8,0,3.2,0.6,4.4,1.8
			c1.2,1.2,1.8,2.7,1.8,4.5s-0.6,3.2-1.8,4.4c-1.2,1.2-2.7,1.8-4.4,1.8C168.9,419.7,167.4,419.1,166.2,417.9z"/>
	</g>
	<g class="st0">
		<path class="st3" d="M201.3,419.7c-4.5,0-8.6-1.9-12.1-5.8c-3.6-3.8-5.3-8.6-5.3-14.3c0-5.7,1.7-10.4,5.2-14
			c3.5-3.6,7.5-5.4,12.2-5.4c4.7,0,8.4,1.6,11.4,4.9v-18.8h10.7v52.8h-10.7v-5.1C209.6,417.8,205.8,419.7,201.3,419.7z M194.5,400.1
			c0,3.1,0.9,5.6,2.8,7.6c1.9,2,4,3,6.5,3c2.5,0,4.6-1,6.3-3c1.7-2,2.6-4.5,2.6-7.6c0-3.1-0.9-5.7-2.6-7.8c-1.7-2.1-3.9-3.1-6.4-3.1
			c-2.5,0-4.7,1-6.5,3.1C195.4,394.4,194.5,397,194.5,400.1z"/>
		<path class="st3" d="M271.6,400c0,5.6-1.9,10.2-5.8,14c-3.8,3.8-8.7,5.7-14.5,5.7c-5.8,0-10.6-1.9-14.5-5.7
			c-3.8-3.8-5.8-8.5-5.8-14c0-5.6,1.9-10.2,5.8-14.1c3.8-3.8,8.7-5.7,14.5-5.7c5.8,0,10.6,1.9,14.5,5.7
			C269.7,389.7,271.6,394.4,271.6,400z M241.9,400c0,3.1,0.9,5.7,2.7,7.7c1.8,2,4.1,3,6.8,3s5.1-1,6.8-3c1.8-2,2.7-4.5,2.7-7.7
			s-0.9-5.7-2.7-7.7c-1.8-2-4.1-3-6.8-3s-5.1,1-6.8,3C242.8,394.3,241.9,396.9,241.9,400z"/>
		<path class="st3" d="M307.9,412.7c-3.4,3.8-7.6,5.6-12.6,5.6c-5,0-9.2-1.7-12.7-5.1c-3.4-3.4-5.2-7.9-5.2-13.6
			c0-5.7,1.8-10.3,5.3-14c3.5-3.6,7.6-5.4,12.1-5.4c4.6,0,8.3,1.9,11.3,5.6v-5.1h10.7v33.4c0,3.4-0.6,6.5-1.8,9.1s-2.8,4.7-4.8,6.3
			c-3.9,3.1-8.6,4.7-14,4.7c-2.8,0-5.8-0.5-8.7-1.4c-3-0.9-5.6-2.2-7.8-4l4.1-8c3.5,2.7,7.2,4,11.1,4c3.9,0,7-1,9.3-2.9
			S307.9,416.9,307.9,412.7z M306.4,399.2c0-3.1-0.9-5.5-2.6-7.2c-1.7-1.8-3.8-2.6-6.3-2.6c-2.5,0-4.7,0.9-6.5,2.6s-2.7,4.2-2.7,7.2
			c0,3,0.9,5.5,2.7,7.4c1.8,1.9,4,2.8,6.5,2.8c2.6,0,4.7-0.9,6.4-2.8C305.5,404.7,306.4,402.2,306.4,399.2z"/>
	</g>
</g>
</svg>
