<?xml version="1.0" encoding="utf-8"?>
<!-- Generator: Adobe Illustrator 19.1.0, SVG Export Plug-In . SVG Version: 6.00 Build 0)  -->
<svg version="1.1" id="Layer_1" xmlns="http://www.w3.org/2000/svg" xmlns:xlink="http://www.w3.org/1999/xlink" x="0px" y="0px"
	 viewBox="-50 177.1 510.9 198" style="enable-background:new -50 177.1 510.9 198;" xml:space="preserve">
<style type="text/css">
	.st0{fill:#FFFFFF;}
	.st1{fill:#3FA9F5;}
	.st2{fill:#4EA1D9;}
</style>
<g>
	<g>
		<path class="st0" d="M29.5,258.7c0,6.1-2.1,11.2-6.3,15.3c-4.2,4.2-9.5,6.2-15.9,6.2c-6.4,0-11.6-2.1-15.9-6.2
			c-4.2-4.2-6.3-9.3-6.3-15.3c0-6.1,2.1-11.2,6.3-15.4c4.2-4.2,9.5-6.3,15.9-6.3c6.4,0,11.6,2.1,15.9,6.3
			C27.4,247.5,29.5,252.6,29.5,258.7z M-3.1,258.7c0,3.4,1,6.2,2.9,8.4c1.9,2.2,4.4,3.2,7.5,3.2c3,0,5.5-1.1,7.5-3.2
			c1.9-2.2,2.9-4.9,2.9-8.4c0-3.4-1-6.2-2.9-8.4c-1.9-2.2-4.4-3.3-7.5-3.3c-3,0-5.5,1.1-7.5,3.3C-2.1,252.4-3.1,255.2-3.1,258.7z"/>
	</g>
	<g>
		<path class="st0" d="M76.6,257v22.6H64.8v-22.9c0-3.3-0.5-5.8-1.5-7.3c-1-1.6-2.6-2.3-4.9-2.3s-4.3,0.8-6,2.5
			c-1.7,1.7-2.6,4.2-2.6,7.4v22.6H38.1v-41.9h11.7v4.8c3.2-3.6,6.9-5.5,11.1-5.5c2.6,0,5.1,0.8,7.2,2.3c2.2,1.6,3.8,3.5,4.9,5.7
			c1.6-2.5,3.8-4.5,6.5-5.9c2.7-1.4,5.5-2.1,8.2-2.1c4.9,0,8.9,1.5,11.9,4.4c3,2.9,4.5,7.2,4.5,12.7v25.5H92.3v-22.9
			c0-6.4-2.4-9.7-7.1-9.7c-2.3,0-4.4,0.8-6.1,2.5C77.5,251.3,76.6,253.7,76.6,257z"/>
	</g>
	<g>
		<path class="st0" d="M150.3,279.6h-11v-5.1c-3,3.8-6.7,5.7-11.2,5.7c-4.4,0-8.2-1.3-11.2-3.9c-3-2.6-4.5-6-4.5-10.3
			c0-4.3,1.6-7.5,4.7-9.6c3.1-2.1,7.4-3.2,12.8-3.2h8.7V253c0-4.5-2.4-6.7-7.1-6.7c-2,0-4.2,0.4-6.4,1.2c-2.3,0.8-4.2,1.8-5.7,3
			l-5.2-7.6c5.5-4,11.8-6,18.9-6c5.1,0,9.2,1.3,12.5,3.8c3.2,2.5,4.8,6.6,4.8,12.1V279.6z M138.5,263.6v-2h-7.3c-4.7,0-7,1.5-7,4.4
			c0,1.5,0.6,2.7,1.7,3.5c1.1,0.8,2.7,1.2,4.8,1.2c2.1,0,3.9-0.6,5.5-1.9C137.7,267.5,138.5,265.8,138.5,263.6z"/>
	</g>
	<g>
		<path class="st0" d="M172.7,257v22.6H161v-57.8h11.7v20.6c3.5-3.6,7.5-5.4,11.9-5.4c4.4,0,8.1,1.6,11.1,4.7
			c3,3.1,4.5,7.3,4.5,12.5v25.5h-11.7v-22.9c0-6.4-2.4-9.7-7.1-9.7c-2.3,0-4.4,0.8-6.1,2.5C173.5,251.3,172.7,253.7,172.7,257z"/>
	</g>
	<g>
		<path class="st0" d="M246.4,279.6h-11v-5.1c-3,3.8-6.7,5.7-11.2,5.7c-4.4,0-8.2-1.3-11.2-3.9c-3-2.6-4.5-6-4.5-10.3
			c0-4.3,1.6-7.5,4.7-9.6c3.1-2.1,7.4-3.2,12.8-3.2h8.7V253c0-4.5-2.4-6.7-7.1-6.7c-2,0-4.2,0.4-6.4,1.2c-2.3,0.8-4.2,1.8-5.7,3
			l-5.2-7.6c5.5-4,11.8-6,18.9-6c5.1,0,9.2,1.3,12.5,3.8c3.2,2.5,4.8,6.6,4.8,12.1V279.6z M234.6,263.6v-2h-7.3c-4.7,0-7,1.5-7,4.4
			c0,1.5,0.6,2.7,1.7,3.5c1.1,0.8,2.7,1.2,4.8,1.2c2.1,0,3.9-0.6,5.5-1.9C233.8,267.5,234.6,265.8,234.6,263.6z"/>
	</g>
	<g>
		<path class="st1" d="M257.9,278.3c-1.3-1.3-2-2.9-2-4.9c0-1.9,0.7-3.5,2-4.9c1.3-1.3,2.9-2,4.9-2c1.9,0,3.5,0.7,4.9,2
			c1.3,1.3,2,2.9,2,4.9c0,1.9-0.7,3.5-2,4.9c-1.3,1.3-2.9,2-4.9,2C260.8,280.2,259.2,279.6,257.9,278.3z"/>
	</g>
	<g>
		<path class="st2" d="M296.3,281.5c-5.3,0-10.1-2.3-14.2-6.7c-4.1-4.4-6.2-10-6.2-16.5c0-6.5,2-12,6-16.2c4-4.2,8.8-6.4,14.3-6.4
			c4.3,0,8.1,1.2,11.2,3.7v-18.9h14.3v60.4h-14.3v-3.6C304.2,280.1,300.5,281.5,296.3,281.5z M296.2,238.3c-4.8,0-8.8,1.8-12.4,5.6
			c-3.5,3.7-5.3,8.6-5.3,14.4c0,5.9,1.9,10.8,5.5,14.8c3.7,4,7.7,5.9,12.3,5.9c4.6,0,8.3-1.9,11.3-5.7l2.3-2.9v7.9h9.1v-55.3h-9.1
			v22.6l-2.2-2.5C304.7,239.9,300.9,238.3,296.2,238.3z M299.1,271.5c-3.1,0-5.8-1.2-8-3.6c-2.2-2.4-3.4-5.5-3.4-9.2
			c0-3.7,1.1-6.8,3.3-9.3c2.2-2.6,4.9-3.9,8.1-3.9c3.1,0,5.8,1.3,8,3.8c2.1,2.5,3.1,5.6,3.1,9.3c0,3.7-1.1,6.8-3.2,9.2
			C304.8,270.3,302.1,271.5,299.1,271.5z M299,248.1c-2.4,0-4.4,1-6.1,3c-1.8,2.1-2.6,4.6-2.6,7.7c0,3.1,0.9,5.5,2.7,7.4
			c1.8,1.9,3.8,2.8,6.2,2.8c2.3,0,4.3-0.9,5.9-2.8c1.7-1.9,2.5-4.4,2.5-7.5c0-3.1-0.8-5.6-2.5-7.7
			C303.3,249.1,301.4,248.1,299,248.1z"/>
	</g>
	<g>
		<path class="st2" d="M351.1,281.5c-6.7,0-12.3-2.2-16.8-6.6c-4.4-4.4-6.7-9.9-6.7-16.3c0-6.4,2.3-11.9,6.7-16.3
			c4.4-4.4,10.1-6.6,16.8-6.6c6.7,0,12.3,2.2,16.8,6.6c4.4,4.4,6.7,9.9,6.7,16.3c0,6.4-2.3,11.9-6.7,16.3
			C363.5,279.3,357.8,281.5,351.1,281.5z M351.1,238.3c-6,0-11,2-15,5.9c-4,4-5.9,8.7-5.9,14.5c0,5.8,1.9,10.5,5.9,14.4
			c3.9,3.9,9,5.9,15,5.9c6,0,11-2,15-5.9c4-3.9,5.9-8.7,5.9-14.4c0-5.8-1.9-10.5-5.9-14.5C362.2,240.3,357.1,238.3,351.1,238.3z
			 M351.1,271.5c-3.4,0-6.2-1.2-8.4-3.7c-2.2-2.4-3.3-5.5-3.3-9.2c0-3.7,1.1-6.9,3.2-9.3c2.2-2.5,5-3.7,8.4-3.7
			c3.4,0,6.2,1.2,8.4,3.7c2.2,2.4,3.2,5.5,3.2,9.3c0,3.7-1.1,6.8-3.3,9.2C357.4,270.3,354.5,271.5,351.1,271.5z M351.1,248.3
			c-2.7,0-4.8,0.9-6.5,2.8c-1.7,2-2.6,4.4-2.6,7.6c0,3.1,0.8,5.6,2.6,7.5c1.7,1.9,3.8,2.8,6.5,2.8c2.7,0,4.8-0.9,6.5-2.8
			c1.7-1.9,2.6-4.4,2.6-7.5c0-3.1-0.8-5.6-2.6-7.6C356,249.2,353.8,248.3,351.1,248.3z"/>
	</g>
	<g>
		<path class="st2" d="M400.4,297.4c-3.2,0-6.6-0.5-9.9-1.6c-3.4-1.1-6.4-2.6-8.9-4.5l-0.8-0.7l5.7-11.1l1.2,0.9
			c3.6,2.7,7.4,4.1,11.4,4.1c4,0,7.1-1,9.3-2.9c1.6-1.4,2.6-3.3,3-5.9c-3.5,2.8-7.6,4.2-12.2,4.2c-5.8,0-10.8-2-14.8-5.9
			c-4-3.9-6-9.3-6-15.8c0-6.5,2.1-12,6.2-16.2c4.1-4.2,8.9-6.3,14.2-6.3c4.3,0,8,1.4,11.1,4.2v-3.6h14.3v37.8
			c0,3.9-0.7,7.4-2.1,10.5c-1.4,3.1-3.3,5.6-5.6,7.4C412,295.6,406.6,297.4,400.4,297.4z M384,289.9c2.1,1.5,4.6,2.6,7.3,3.5
			c3.1,1,6.2,1.5,9.2,1.5c5.5,0,10.4-1.6,14.5-4.9c2-1.5,3.6-3.7,4.8-6.4c1.2-2.7,1.8-5.9,1.8-9.5v-35.3h-9.1v7.9l-2.3-2.9
			c-3-3.8-6.8-5.7-11.4-5.7c-4.7,0-8.7,1.8-12.4,5.6c-3.6,3.7-5.4,8.5-5.4,14.4c0,5.8,1.8,10.5,5.3,14c3.5,3.5,7.8,5.2,13,5.2
			c5.1,0,9.3-1.9,12.8-5.7l2.2-2.5v3.3c0,5-1.4,8.7-4.2,11.1c-2.7,2.3-6.4,3.5-11,3.5c-4.1,0-8-1.3-11.7-3.7L384,289.9z
			 M401.5,270.1c-3.2,0-5.9-1.2-8.1-3.5c-2.2-2.3-3.3-5.3-3.3-8.9c0-3.7,1.1-6.6,3.4-8.8c2.2-2.1,4.9-3.2,8-3.2
			c3.1,0,5.7,1.1,7.9,3.3c2.1,2.2,3.2,5.1,3.2,8.8c0,3.7-1.1,6.7-3.1,8.9C407.4,269,404.7,270.1,401.5,270.1z M401.6,248.3
			c-2.4,0-4.5,0.8-6.2,2.5c-1.8,1.7-2.6,4-2.6,6.9c0,3,0.8,5.4,2.6,7.2c1.7,1.8,3.7,2.7,6.2,2.7c2.5,0,4.4-0.9,6.1-2.6
			c1.7-1.8,2.5-4.2,2.5-7.2c0-3-0.8-5.3-2.4-7C406,249.1,404,248.3,401.6,248.3z"/>
	</g>
</g>
<g>
	<path class="st0" d="M41.2,312.3c-1.4-1.4-2.1-3.2-2.1-5.5c0-2.3,0.7-4.1,2.1-5.5c1.4-1.4,3.1-2,5.1-2c2,0,3.5,0.8,4.7,2.5v-8.1
		h3.1v20.5H51V312c-1.1,1.6-2.8,2.4-5,2.4C44.2,314.4,42.5,313.7,41.2,312.3z M42.2,306.9c0,1.4,0.5,2.6,1.4,3.4
		c0.9,0.9,2,1.3,3.2,1.3s2.3-0.4,3.1-1.3c0.8-0.9,1.3-2,1.3-3.4c0-1.4-0.4-2.6-1.3-3.5c-0.8-0.9-1.9-1.4-3.1-1.4
		c-1.2,0-2.3,0.5-3.2,1.4S42.2,305.5,42.2,306.9z"/>
	<path class="st0" d="M70.9,312.2c-1.5,1.5-3.3,2.2-5.5,2.2c-2.2,0-4.1-0.7-5.5-2.2c-1.5-1.5-2.2-3.3-2.2-5.4c0-2.1,0.7-3.9,2.2-5.4
		c1.5-1.5,3.3-2.2,5.5-2.2c2.2,0,4.1,0.7,5.5,2.2c1.5,1.5,2.2,3.3,2.2,5.4C73.1,308.9,72.4,310.7,70.9,312.2z M62.1,310.3
		c0.9,0.9,2,1.3,3.3,1.3s2.5-0.4,3.3-1.3c0.9-0.9,1.3-2.1,1.3-3.5c0-1.4-0.4-2.6-1.3-3.5c-0.9-0.9-2-1.3-3.3-1.3s-2.5,0.4-3.3,1.3
		c-0.9,0.9-1.3,2.1-1.3,3.5C60.7,308.2,61.2,309.4,62.1,310.3z"/>
	<path class="st0" d="M90.3,299.5v12.8c0,2.6-0.7,4.6-2.1,5.9c-1.4,1.3-3.2,2-5.4,2s-4.2-0.7-6-2.1l1.5-2.4c1.4,1.1,2.9,1.6,4.4,1.6
		s2.6-0.4,3.5-1.1c0.9-0.8,1.3-2,1.3-3.6v-1.9c-0.5,0.9-1.1,1.6-2,2.1c-0.9,0.5-1.8,0.8-2.9,0.8c-2,0-3.6-0.7-4.8-2
		c-1.3-1.4-1.9-3.1-1.9-5.1c0-2,0.6-3.7,1.9-5.1c1.3-1.4,2.9-2,4.8-2c1.9,0,3.5,0.8,4.7,2.4v-2.2H90.3z M78.8,306.2
		c0,1.2,0.4,2.3,1.1,3.1c0.7,0.9,1.8,1.3,3,1.3c1.3,0,2.3-0.4,3.1-1.3c0.8-0.8,1.2-1.9,1.2-3.2c0-1.3-0.4-2.3-1.2-3.2
		c-0.8-0.9-1.8-1.3-3.1-1.3c-1.3,0-2.3,0.5-3,1.4C79.2,304,78.8,305,78.8,306.2z"/>
	<path class="st0" d="M94.5,307.4v-2.9h9.2v2.9H94.5z"/>
	<path class="st0" d="M111.5,298.2v1.2h3.9v2.5h-3.9v12.2h-3.1v-12.2h-1.9v-2.5h1.9v-1.1c0-1.5,0.5-2.8,1.4-3.7
		c0.9-0.9,2.1-1.4,3.4-1.4c1.3,0,2.5,0.5,3.6,1.5l-1.3,2.2c-0.6-0.6-1.2-1-1.9-1s-1.2,0.2-1.5,0.6
		C111.7,297,111.5,297.5,111.5,298.2z"/>
	<path class="st0" d="M126.1,302.4c-1.5,0-2.7,0.5-3.5,1.5c-0.8,1-1.2,2.3-1.2,4v6.3h-3.1v-14.7h3.1v3c0.5-0.9,1.2-1.7,2-2.3
		c0.9-0.6,1.8-0.9,2.7-0.9l0,3.1C126.2,302.4,126.1,302.4,126.1,302.4z"/>
	<path class="st0" d="M129.5,296.5c-0.4-0.4-0.6-0.8-0.6-1.4c0-0.5,0.2-1,0.6-1.4s0.8-0.6,1.4-0.6s1,0.2,1.4,0.6s0.6,0.8,0.6,1.4
		c0,0.5-0.2,1-0.6,1.4s-0.8,0.6-1.4,0.6S129.9,296.9,129.5,296.5z M132.4,314.2h-3.1v-14.7h3.1V314.2z"/>
	<path class="st0" d="M150.6,308.2h-11.5c0.1,1.1,0.6,1.9,1.5,2.6c0.9,0.7,1.9,1,3.1,1c1.8,0,3.2-0.6,4.2-1.7l1.8,1.9
		c-1.6,1.6-3.7,2.5-6.2,2.5c-2.1,0-3.8-0.7-5.3-2.1c-1.4-1.4-2.2-3.2-2.2-5.5c0-2.3,0.7-4.2,2.2-5.5c1.5-1.4,3.2-2,5.2-2
		c2,0,3.7,0.6,5.1,1.8c1.4,1.2,2.1,2.9,2.1,5V308.2z M139.1,305.7h8.4c0-1.2-0.4-2.2-1.2-2.8c-0.8-0.7-1.7-1-2.9-1
		c-1.1,0-2.2,0.3-3.1,1C139.5,303.6,139.1,304.6,139.1,305.7z"/>
	<path class="st0" d="M157.1,306.2v8H154v-14.7h3.1v2.7c0.5-0.9,1.2-1.6,2.1-2.1c0.9-0.5,1.8-0.8,2.8-0.8c1.7,0,3,0.5,4,1.5
		c1,1,1.5,2.5,1.5,4.4v9h-3.1v-8.1c0-2.7-1.1-4.1-3.4-4.1c-1.1,0-2,0.4-2.8,1.1C157.5,303.8,157.1,304.8,157.1,306.2z"/>
	<path class="st0" d="M173,312.3c-1.4-1.4-2.1-3.2-2.1-5.5c0-2.3,0.7-4.1,2.1-5.5c1.4-1.4,3.1-2,5.1-2s3.5,0.8,4.7,2.5v-8.1h3.1
		v20.5h-3.1V312c-1.1,1.6-2.8,2.4-5,2.4C176.1,314.4,174.4,313.7,173,312.3z M174.1,306.9c0,1.4,0.5,2.6,1.4,3.4
		c0.9,0.9,2,1.3,3.2,1.3c1.2,0,2.3-0.4,3.1-1.3c0.8-0.9,1.3-2,1.3-3.4c0-1.4-0.4-2.6-1.3-3.5c-0.8-0.9-1.9-1.4-3.1-1.4
		c-1.2,0-2.3,0.5-3.2,1.4C174.5,304.3,174.1,305.5,174.1,306.9z"/>
	<path class="st0" d="M193.6,314.2h-3.1v-20.5h3.1V314.2z"/>
	<path class="st0" d="M199.9,320c-1.3,0-2.6-0.5-3.7-1.5l1.4-2.5c0.6,0.6,1.3,0.9,2,0.9s1.3-0.2,1.7-0.7c0.4-0.5,0.7-1,0.7-1.6
		c0-0.3-2-5.3-5.9-15.1h3.3l4.4,10.8l4.4-10.8h3.3l-7.1,17.5c-0.4,1-1,1.7-1.8,2.3C201.8,319.8,200.9,320,199.9,320z"/>
	<path class="st0" d="M229.4,299.2c2,0,3.7,0.7,5.1,2c1.4,1.4,2.1,3.2,2.1,5.5s-0.7,4.1-2.1,5.5c-1.4,1.4-3,2.1-4.9,2.1
		c-1.9,0-3.5-0.8-5-2.4v2.2h-3.1v-20.5h3.1v8.4C225.9,300.2,227.5,299.2,229.4,299.2z M224.6,306.8c0,1.4,0.4,2.6,1.3,3.4
		c0.8,0.9,1.9,1.3,3.1,1.3c1.2,0,2.3-0.4,3.2-1.3c0.9-0.9,1.4-2,1.4-3.4c0-1.4-0.4-2.6-1.3-3.5c-0.9-0.9-1.9-1.4-3.2-1.4
		c-1.2,0-2.3,0.5-3.1,1.4C225,304.3,224.6,305.4,224.6,306.8z"/>
	<path class="st0" d="M250.4,307.4v-8h3.1v14.7h-3.1v-2.7c-0.5,0.9-1.2,1.6-2.1,2.1c-0.9,0.5-1.8,0.8-2.8,0.8c-1.7,0-3-0.5-4-1.5
		c-1-1-1.5-2.5-1.5-4.4v-9h3.1v8.1c0,2.7,1.1,4.1,3.4,4.1c1.1,0,2-0.4,2.8-1.1C250,309.8,250.4,308.8,250.4,307.4z"/>
	<path class="st0" d="M268.5,309.8c0,1.4-0.5,2.5-1.5,3.4c-1,0.8-2.3,1.3-3.9,1.3c-1.1,0-2.2-0.2-3.3-0.6c-1.2-0.4-2.2-0.9-3.1-1.6
		l1.5-2.4c1.7,1.3,3.4,1.9,5,1.9c0.7,0,1.3-0.2,1.7-0.5c0.4-0.3,0.6-0.7,0.6-1.2c0-0.7-1-1.4-2.9-2c-0.1-0.1-0.3-0.1-0.3-0.1
		c-3.1-0.8-4.6-2.2-4.6-4.2c0-1.4,0.5-2.5,1.6-3.3c1.1-0.8,2.4-1.2,4.1-1.2c1.7,0,3.3,0.5,4.8,1.5L267,303c-1.2-0.8-2.5-1.2-3.9-1.2
		c-0.7,0-1.3,0.1-1.8,0.4c-0.5,0.3-0.7,0.7-0.7,1.2c0,0.5,0.2,0.8,0.7,1.1c0.3,0.2,0.8,0.3,1.4,0.5c0.6,0.1,1.1,0.3,1.6,0.4
		c0.5,0.1,0.9,0.3,1.3,0.5c0.4,0.2,0.9,0.4,1.4,0.8C268,307.3,268.5,308.4,268.5,309.8z"/>
	<path class="st0" d="M272.2,296.5c-0.4-0.4-0.6-0.8-0.6-1.4c0-0.5,0.2-1,0.6-1.4s0.8-0.6,1.4-0.6c0.5,0,1,0.2,1.4,0.6
		s0.6,0.8,0.6,1.4c0,0.5-0.2,1-0.6,1.4s-0.8,0.6-1.4,0.6C273.1,297.1,272.6,296.9,272.2,296.5z M275.1,314.2H272v-14.7h3.1V314.2z"
		/>
	<path class="st0" d="M282.7,306.2v8h-3.1v-14.7h3.1v2.7c0.5-0.9,1.2-1.6,2.1-2.1c0.9-0.5,1.8-0.8,2.8-0.8c1.7,0,3,0.5,4,1.5
		c1,1,1.5,2.5,1.5,4.4v9h-3.1v-8.1c0-2.7-1.1-4.1-3.4-4.1c-1.1,0-2,0.4-2.8,1.1C283.1,303.8,282.7,304.8,282.7,306.2z"/>
	<path class="st0" d="M311.2,308.2h-11.5c0.1,1.1,0.6,1.9,1.5,2.6c0.9,0.7,1.9,1,3.1,1c1.8,0,3.2-0.6,4.2-1.7l1.8,1.9
		c-1.6,1.6-3.7,2.5-6.2,2.5c-2.1,0-3.8-0.7-5.3-2.1c-1.4-1.4-2.2-3.2-2.2-5.5c0-2.3,0.7-4.2,2.2-5.5c1.5-1.4,3.2-2,5.2-2
		c2,0,3.7,0.6,5.1,1.8c1.4,1.2,2.1,2.9,2.1,5V308.2z M299.6,305.7h8.4c0-1.2-0.4-2.2-1.2-2.8c-0.8-0.7-1.7-1-2.9-1
		c-1.1,0-2.2,0.3-3.1,1C300.1,303.6,299.6,304.6,299.6,305.7z"/>
	<path class="st0" d="M325.1,309.8c0,1.4-0.5,2.5-1.5,3.4c-1,0.8-2.3,1.3-3.9,1.3c-1.1,0-2.2-0.2-3.3-0.6s-2.2-0.9-3.1-1.6l1.5-2.4
		c1.7,1.3,3.4,1.9,5,1.9c0.7,0,1.3-0.2,1.7-0.5c0.4-0.3,0.6-0.7,0.6-1.2c0-0.7-1-1.4-2.9-2c-0.1-0.1-0.3-0.1-0.3-0.1
		c-3.1-0.8-4.6-2.2-4.6-4.2c0-1.4,0.5-2.5,1.6-3.3c1.1-0.8,2.4-1.2,4.1-1.2c1.7,0,3.3,0.5,4.8,1.5l-1.2,2.3
		c-1.2-0.8-2.5-1.2-3.9-1.2c-0.7,0-1.3,0.1-1.8,0.4c-0.5,0.3-0.7,0.7-0.7,1.2c0,0.5,0.2,0.8,0.7,1.1c0.3,0.2,0.8,0.3,1.4,0.5
		c0.6,0.1,1.1,0.3,1.6,0.4c0.5,0.1,0.9,0.3,1.3,0.5c0.4,0.2,0.9,0.4,1.4,0.8C324.6,307.3,325.1,308.4,325.1,309.8z"/>
	<path class="st0" d="M339.1,309.8c0,1.4-0.5,2.5-1.5,3.4c-1,0.8-2.3,1.3-3.9,1.3c-1.1,0-2.2-0.2-3.3-0.6s-2.2-0.9-3.1-1.6l1.5-2.4
		c1.7,1.3,3.4,1.9,5,1.9c0.7,0,1.3-0.2,1.7-0.5c0.4-0.3,0.6-0.7,0.6-1.2c0-0.7-1-1.4-2.9-2c-0.1-0.1-0.3-0.1-0.3-0.1
		c-3.1-0.8-4.6-2.2-4.6-4.2c0-1.4,0.5-2.5,1.6-3.3c1.1-0.8,2.4-1.2,4.1-1.2c1.7,0,3.3,0.5,4.8,1.5l-1.2,2.3
		c-1.2-0.8-2.5-1.2-3.9-1.2c-0.7,0-1.3,0.1-1.8,0.4c-0.5,0.3-0.7,0.7-0.7,1.2c0,0.5,0.2,0.8,0.7,1.1c0.3,0.2,0.8,0.3,1.4,0.5
		c0.6,0.1,1.1,0.3,1.6,0.4c0.5,0.1,0.9,0.3,1.3,0.5c0.4,0.2,0.9,0.4,1.4,0.8C338.6,307.3,339.1,308.4,339.1,309.8z"/>
	<path class="st0" d="M356.3,308.2h-11.5c0.1,1.1,0.6,1.9,1.5,2.6c0.9,0.7,1.9,1,3.1,1c1.8,0,3.2-0.6,4.2-1.7l1.8,1.9
		c-1.6,1.6-3.7,2.5-6.2,2.5c-2.1,0-3.8-0.7-5.3-2.1c-1.4-1.4-2.2-3.2-2.2-5.5c0-2.3,0.7-4.2,2.2-5.5c1.5-1.4,3.2-2,5.2-2
		c2,0,3.7,0.6,5.1,1.8c1.4,1.2,2.1,2.9,2.1,5V308.2z M344.8,305.7h8.4c0-1.2-0.4-2.2-1.2-2.8c-0.8-0.7-1.7-1-2.9-1
		c-1.1,0-2.2,0.3-3.1,1C345.2,303.6,344.8,304.6,344.8,305.7z"/>
	<path class="st0" d="M370.2,309.8c0,1.4-0.5,2.5-1.5,3.4c-1,0.8-2.3,1.3-3.9,1.3c-1.1,0-2.2-0.2-3.3-0.6c-1.2-0.4-2.2-0.9-3.1-1.6
		l1.5-2.4c1.7,1.3,3.4,1.9,5,1.9c0.7,0,1.3-0.2,1.7-0.5c0.4-0.3,0.6-0.7,0.6-1.2c0-0.7-1-1.4-2.9-2c-0.1-0.1-0.3-0.1-0.3-0.1
		c-3.1-0.8-4.6-2.2-4.6-4.2c0-1.4,0.5-2.5,1.6-3.3c1.1-0.8,2.4-1.2,4.1-1.2c1.7,0,3.3,0.5,4.8,1.5l-1.2,2.3
		c-1.2-0.8-2.5-1.2-3.9-1.2c-0.7,0-1.3,0.1-1.8,0.4c-0.5,0.3-0.7,0.7-0.7,1.2c0,0.5,0.2,0.8,0.7,1.1c0.3,0.2,0.8,0.3,1.4,0.5
		c0.6,0.1,1.1,0.3,1.6,0.4c0.5,0.1,0.9,0.3,1.3,0.5c0.4,0.2,0.9,0.4,1.4,0.8C369.7,307.3,370.2,308.4,370.2,309.8z"/>
</g>
</svg>
