<?xml version="1.0" encoding="utf-8"?>
<!-- Generator: Adobe Illustrator 19.1.0, SVG Export Plug-In . SVG Version: 6.00 Build 0)  -->
<svg version="1.1" id="Layer_1" xmlns="http://www.w3.org/2000/svg" xmlns:xlink="http://www.w3.org/1999/xlink" x="0px" y="0px"
	 viewBox="-675 139.5 648.4 523.5" style="enable-background:new -675 139.5 648.4 523.5;" xml:space="preserve">
<style type="text/css">
	.st0{fill:#4EA1D9;}
	.st1{fill:#3FA9F5;}
	.st2{fill:#FFFFFF;}
	.st3{enable-background:new    ;}
</style>
<g>
	<g>
		<path d="M-619.8,352.2c0.7,1.7,0.6,3.3-0.2,4.8s-2.2,2.6-4.1,3.4c-1.3,0.5-2.7,0.8-4.3,0.9s-3.1-0.1-4.5-0.5l0.6-3.6
			c2.7,0.7,5,0.7,7-0.1c0.8-0.3,1.4-0.8,1.8-1.4c0.3-0.6,0.4-1.2,0.1-1.8c-0.4-0.9-1.9-1.2-4.5-1c-0.2,0-0.4,0-0.5,0
			c-4.1,0.5-6.6-0.5-7.6-2.8c-0.7-1.7-0.5-3.2,0.3-4.7c0.9-1.5,2.4-2.7,4.4-3.5c2.1-0.8,4.2-1,6.6-0.5l-0.3,3.3
			c-1.8-0.4-3.6-0.2-5.3,0.4c-0.9,0.4-1.6,0.8-2,1.4c-0.4,0.5-0.5,1.1-0.3,1.8c0.2,0.6,0.7,0.9,1.4,0.9c0.5,0,1.1,0,1.9-0.1
			s1.5-0.2,2.1-0.2c0.6,0,1.3-0.1,1.9,0c0.6,0,1.3,0.1,2.1,0.3C-621.6,349.4-620.5,350.5-619.8,352.2z"/>
	</g>
	<g>
		<path d="M-614.7,339.1l3.6,9.1c0.3,0.8,0.8,1.4,1.5,1.8c0.6,0.3,1.4,0.3,2.2,0s1.4-1,1.8-2.1l2.6,2c-0.8,1.7-2.1,2.9-3.7,3.5
			s-3.2,0.6-4.8,0c-1.6-0.7-2.7-1.9-3.5-3.8l-3.6-9l-2.2,0.9l-1.2-3l2.2-0.9l-2.2-5.6l3.8-1.5l2.2,5.6l4.7-1.9l1.2,3L-614.7,339.1z"
			/>
	</g>
	<g>
		<path d="M-607.7,328.7c-0.7-0.3-1.1-0.7-1.4-1.4c-0.3-0.7-0.2-1.3,0-2c0.3-0.7,0.7-1.1,1.4-1.4c0.6-0.3,1.3-0.2,2,0
			c0.7,0.3,1.1,0.7,1.4,1.4c0.3,0.7,0.2,1.3,0,2c-0.3,0.7-0.7,1.1-1.4,1.4C-606.4,329-607,329-607.7,328.7z M-595.7,348.7l-3.8,1.5
			l-7.1-17.8l3.8-1.5L-595.7,348.7z"/>
	</g>
	<g>
		<path d="M-582.2,343.7c-2.5,1-5,1-7.4,0c-2.5-1-4.2-2.8-5.3-5.6c-1.1-2.7-1-5.3,0.1-7.8c1.2-2.5,3.1-4.2,5.8-5.3s5.3-1,7.9,0.1
			l-1.1,3.6c-2.1-0.7-3.9-0.8-5.5-0.2c-1.6,0.6-2.7,1.7-3.5,3.2c-0.7,1.5-0.8,3.1-0.1,4.7s1.8,2.8,3.4,3.5c1.6,0.7,3.2,0.7,4.9,0
			c1.7-0.7,2.9-2,3.8-4.2l3.2,1.5C-577.3,340.4-579.4,342.5-582.2,343.7z"/>
	</g>
	<g>
		<path d="M-567.1,337.4l-3.8,1.5l-9.9-24.9l3.8-1.5l5.8,14.6l4.2-10.5l4.8-1.9l-4,9.8l11.6,7.9l-4.6,1.8l-8.4-5.7l-1.6,3.8
			L-567.1,337.4z"/>
	</g>
	<g>
		<path d="M-537.7,317.2l-14,5.6c0.6,1.3,1.6,2.1,3,2.4c1.4,0.4,2.8,0.3,4.2-0.3c2.2-0.9,3.7-2.3,4.3-4.1l3.1,1.5
			c-1.1,2.8-3.2,4.7-6.3,6c-2.5,1-5,1-7.4,0c-2.4-1-4.2-2.9-5.3-5.7c-1.1-2.8-1.1-5.4,0-7.8c1.1-2.4,2.9-4,5.3-5
			c2.4-1,4.8-1.1,7.1-0.3c2.3,0.8,3.9,2.5,5,5L-537.7,317.2z M-552.9,319.8l10.2-4.1c-0.6-1.5-1.5-2.5-2.8-2.9s-2.6-0.4-4,0.2
			c-1.4,0.5-2.4,1.5-3.2,2.7C-553.3,317-553.4,318.4-552.9,319.8z"/>
	</g>
	<g>
		<path d="M-527,304.8c-1.9,0.7-3,1.9-3.5,3.5s-0.3,3.4,0.5,5.4l3,7.6l-3.8,1.5l-7.1-17.8l3.8-1.5l1.4,3.6c0.2-1.4,0.6-2.6,1.4-3.7
			c0.8-1.1,1.7-1.9,2.9-2.4L-527,304.8C-526.9,304.7-527,304.8-527,304.8z"/>
	</g>
</g>
<g>
	<g>
		<path d="M-549.9,347v3.1l-11.7,5.4v-2.9l8.7-4v-0.3l-8.7-3.9v-2.8L-549.9,347z"/>
	</g>
	<g>
		<path d="M-535.2,347v3.1l-11.7,5.4v-2.9l8.7-4v-0.3l-8.7-3.9v-2.8L-535.2,347z"/>
	</g>
</g>
<g>
	<g>
		<g>
			<g>
				<path class="st0" d="M-502.2,601.1c0,5.3-1.8,9.7-5.5,13.3c-3.6,3.6-8.2,5.4-13.8,5.4c-5.5,0-10.1-1.8-13.8-5.4
					c-3.6-3.6-5.5-8-5.5-13.3s1.8-9.7,5.5-13.3c3.6-3.6,8.2-5.4,13.8-5.4c5.5,0,10.1,1.8,13.8,5.4S-502.2,595.9-502.2,601.1z
					 M-530.5,601.1c0,3,0.8,5.4,2.5,7.3c1.7,1.9,3.9,2.8,6.5,2.8c2.6,0,4.8-0.9,6.5-2.8c1.7-1.9,2.5-4.3,2.5-7.3s-0.8-5.4-2.5-7.3
					s-3.9-2.8-6.5-2.8c-2.6,0-4.8,0.9-6.5,2.8C-529.6,595.7-530.5,598.1-530.5,601.1z"/>
			</g>
		</g>
		<g>
			<g>
				<path class="st0" d="M-461.3,599.7v19.6h-10.2v-19.9c0-2.9-0.4-5-1.3-6.4c-0.9-1.4-2.3-2-4.3-2s-3.7,0.7-5.2,2.2
					s-2.3,3.6-2.3,6.5v19.6h-10.1v-36.4h10.1v4.1c2.8-3.2,6-4.7,9.6-4.7c2.3,0,4.4,0.7,6.3,2c1.9,1.4,3.3,3,4.2,4.9
					c1.4-2.2,3.3-3.9,5.6-5.1c2.4-1.2,4.7-1.8,7.1-1.8c4.3,0,7.7,1.3,10.3,3.8s3.9,6.2,3.9,11v22.1h-10.2v-19.9
					c0-5.6-2.1-8.4-6.1-8.4c-2,0-3.8,0.7-5.3,2.2C-460.6,594.7-461.3,596.9-461.3,599.7z"/>
			</g>
		</g>
		<g>
			<g>
				<path class="st0" d="M-397.4,619.3h-9.5v-4.4c-2.6,3.3-5.8,4.9-9.7,4.9c-3.9,0-7.1-1.1-9.7-3.3c-2.6-2.2-3.9-5.2-3.9-8.9
					s1.4-6.5,4.1-8.3s6.4-2.8,11.1-2.8h7.6v-0.2c0-3.9-2.1-5.8-6.1-5.8c-1.8,0-3.6,0.3-5.6,1s-3.6,1.6-5,2.6l-4.5-6.6
					c4.8-3.5,10.2-5.2,16.4-5.2c4.4,0,8,1.1,10.8,3.3c2.8,2.2,4.2,5.7,4.2,10.5v23.2H-397.4z M-407.6,605.4v-1.8h-6.4
					c-4.1,0-6.1,1.3-6.1,3.8c0,1.3,0.5,2.3,1.5,3s2.4,1,4.2,1s3.4-0.6,4.8-1.7C-408.3,608.8-407.6,607.3-407.6,605.4z"/>
			</g>
		</g>
		<g>
			<g>
				<path class="st0" d="M-378,599.7v19.6h-10.1v-50.1h10.1V587c3.1-3.1,6.5-4.7,10.3-4.7s7,1.4,9.6,4.1c2.6,2.7,3.9,6.3,3.9,10.8
					v22.1h-10.1v-19.9c0-5.6-2.1-8.4-6.1-8.4c-2,0-3.8,0.7-5.3,2.2C-377.3,594.7-378,596.9-378,599.7z"/>
			</g>
		</g>
		<g>
			<g>
				<path class="st0" d="M-314.1,619.3h-9.5v-4.4c-2.6,3.3-5.8,4.9-9.7,4.9c-3.9,0-7.1-1.1-9.7-3.3c-2.6-2.2-3.9-5.2-3.9-8.9
					s1.4-6.5,4.1-8.3s6.4-2.8,11.1-2.8h7.6v-0.2c0-3.9-2.1-5.8-6.1-5.8c-1.8,0-3.6,0.3-5.6,1s-3.6,1.6-5,2.6l-4.5-6.6
					c4.8-3.5,10.2-5.2,16.4-5.2c4.4,0,8,1.1,10.8,3.3c2.8,2.2,4.2,5.7,4.2,10.5v23.2H-314.1z M-324.3,605.4v-1.8h-6.4
					c-4.1,0-6.1,1.3-6.1,3.8c0,1.3,0.5,2.3,1.5,3s2.4,1,4.2,1s3.4-0.6,4.8-1.7C-325,608.8-324.3,607.3-324.3,605.4z"/>
			</g>
		</g>
		<g>
			<g>
				<path class="st1" d="M-304.1,618.1c-1.1-1.1-1.7-2.6-1.7-4.2c0-1.7,0.6-3.1,1.7-4.2c1.1-1.1,2.6-1.7,4.2-1.7
					c1.7,0,3.1,0.6,4.2,1.7c1.1,1.1,1.7,2.6,1.7,4.2c0,1.7-0.6,3.1-1.7,4.2c-1.1,1.1-2.6,1.7-4.2,1.7
					C-301.6,619.8-303,619.3-304.1,618.1z"/>
			</g>
		</g>
		<g>
			<g>
				<path class="st0" d="M-270.8,620.9c-4.6,0-8.8-2-12.3-5.8c-3.6-3.8-5.4-8.7-5.4-14.3c0-5.7,1.8-10.4,5.2-14
					c3.5-3.7,7.6-5.5,12.4-5.5c3.8,0,7,1.1,9.7,3.2v-16.4h12.4v52.4h-12.4v-3.1C-263.9,619.7-267.1,620.9-270.8,620.9z
					 M-270.9,583.4c-4.1,0-7.7,1.6-10.8,4.8c-3.1,3.2-4.6,7.4-4.6,12.5s1.6,9.4,4.8,12.8c3.2,3.4,6.7,5.1,10.7,5.1s7.2-1.6,9.8-4.9
					l2-2.5v6.9h7.9v-47.9h-7.9v19.6l-1.9-2.2C-263.5,584.9-266.8,583.4-270.9,583.4z M-268.4,612.3c-2.7,0-5-1.1-7-3.2
					c-1.9-2.1-2.9-4.7-2.9-8c0-3.2,1-5.9,2.8-8.1c1.9-2.2,4.3-3.4,7-3.4s5,1.1,6.9,3.3c1.8,2.2,2.7,4.9,2.7,8.1c0,3.2-0.9,5.9-2.7,8
					C-263.5,611.2-265.8,612.3-268.4,612.3z M-268.5,592c-2.1,0-3.8,0.8-5.3,2.6s-2.3,4-2.3,6.6c0,2.7,0.8,4.8,2.3,6.4
					c1.6,1.7,3.3,2.5,5.3,2.5s3.7-0.8,5.1-2.4c1.5-1.7,2.2-3.8,2.2-6.5s-0.7-4.9-2.2-6.7C-264.7,592.8-266.4,592-268.5,592z"/>
			</g>
		</g>
		<g>
			<g>
				<path class="st0" d="M-223.2,620.9c-5.8,0-10.7-1.9-14.5-5.7c-3.9-3.8-5.8-8.5-5.8-14.1s2-10.3,5.8-14.1s8.7-5.8,14.5-5.8
					s10.7,1.9,14.5,5.8c3.8,3.8,5.8,8.6,5.8,14.1c0,5.6-2,10.3-5.8,14.1C-212.6,619-217.5,620.9-223.2,620.9z M-223.2,583.4
					c-5.2,0-9.6,1.7-13,5.1c-3.5,3.4-5.1,7.5-5.1,12.6c0,5,1.7,9.1,5.1,12.5c3.4,3.4,7.8,5.1,13,5.1s9.6-1.7,13-5.1
					c3.5-3.4,5.1-7.5,5.1-12.5s-1.7-9.1-5.1-12.6C-213.7,585.2-218.1,583.4-223.2,583.4z M-223.2,612.3c-3,0-5.4-1.1-7.3-3.2
					c-1.9-2.1-2.8-4.8-2.8-8s0.9-5.9,2.8-8c1.9-2.1,4.4-3.2,7.3-3.2c3,0,5.4,1.1,7.3,3.2c1.9,2.1,2.8,4.8,2.8,8s-0.9,5.9-2.8,8
					C-217.8,611.2-220.3,612.3-223.2,612.3z M-223.2,592.1c-2.3,0-4.2,0.8-5.7,2.5s-2.3,3.8-2.3,6.6c0,2.7,0.7,4.8,2.2,6.5
					c1.5,1.6,3.3,2.4,5.7,2.4c2.3,0,4.2-0.8,5.7-2.4c1.5-1.7,2.2-3.8,2.2-6.5s-0.7-4.9-2.3-6.6
					C-219.1,592.9-220.9,592.1-223.2,592.1z"/>
			</g>
		</g>
		<g>
			<g>
				<path class="st0" d="M-180.5,634.7c-2.8,0-5.7-0.5-8.6-1.4c-2.9-0.9-5.5-2.2-7.7-3.9l-0.7-0.6l4.9-9.6l1.1,0.8
					c3.1,2.4,6.5,3.6,9.9,3.6s6.2-0.8,8.1-2.5c1.4-1.2,2.3-2.9,2.6-5.1c-3,2.4-6.6,3.7-10.6,3.7c-5,0-9.3-1.7-12.8-5.2
					c-3.5-3.4-5.2-8-5.2-13.7s1.8-10.4,5.3-14c3.6-3.7,7.7-5.5,12.3-5.5c3.7,0,6.9,1.2,9.6,3.6v-3.1h12.4v32.8
					c0,3.4-0.6,6.4-1.8,9.1c-1.2,2.7-2.8,4.8-4.9,6.4C-170.5,633.2-175.2,634.7-180.5,634.7z M-194.8,628.2c1.8,1.3,4,2.3,6.3,3
					c2.7,0.8,5.4,1.3,7.9,1.3c4.8,0,9-1.4,12.6-4.2c1.8-1.3,3.2-3.2,4.2-5.5c1.1-2.4,1.6-5.1,1.6-8.2V584h-7.9v6.9l-2-2.5
					c-2.6-3.3-5.9-4.9-9.9-4.9s-7.6,1.6-10.7,4.8c-3.1,3.2-4.7,7.4-4.7,12.5c0,5.1,1.5,9.1,4.6,12.1s6.8,4.5,11.2,4.5
					c4.5,0,8.1-1.6,11.1-5l1.9-2.2v2.9c0,4.3-1.2,7.6-3.6,9.6c-2.4,2-5.6,3-9.5,3c-3.5,0-7-1.1-10.2-3.2L-194.8,628.2z
					 M-179.6,611.1c-2.7,0-5.1-1-7-3s-2.8-4.6-2.8-7.8s1-5.7,2.9-7.6c1.9-1.9,4.3-2.8,7-2.8s5,1,6.8,2.8c1.8,1.9,2.7,4.4,2.7,7.6
					s-0.9,5.8-2.7,7.7C-174.5,610.1-176.8,611.1-179.6,611.1z M-179.5,592.1c-2.1,0-3.9,0.7-5.4,2.2s-2.3,3.4-2.3,6s0.7,4.6,2.2,6.2
					c1.5,1.6,3.2,2.3,5.4,2.3c2.1,0,3.9-0.7,5.3-2.3c1.4-1.6,2.1-3.6,2.1-6.2c0-2.6-0.7-4.6-2.1-6.1
					C-175.7,592.8-177.4,592.1-179.5,592.1z"/>
			</g>
		</g>
	</g>
	<g>
		<g>
			<g>
				<g>
					<path class="st2" d="M-459,296.4c-45.7,60.1-34,145.8,26.1,191.5c54.4,41.3,129.8,35.7,177.4-10.3c-4.4-2.4-8.8-5.2-13-8.4
						c-26.9-20.5-38.9-50-23.8-69.9c15.1-19.9,49.2-19.5,76.2,0.9c0.3,0.2,0.5,0.4,0.8,0.6c7.7-48.2-10.7-99-52.3-130.5
						C-327.6,224.6-413.4,236.3-459,296.4z"/>
				</g>
			</g>
		</g>
		<g>
			<g>
				<g>
					<path class="st0" d="M-350.3,235.2c-77.4,0-140.2,62.8-140.2,140.2c0,70.1,51.4,128.1,118.6,138.5c-0.8-5.1-1.2-10.4-1.2-15.9
						c0-34.7,16.7-62.8,42.3-62.8c25.7,0,46.5,28.1,46.5,62.8c0,0.3,0,0.7,0,1c44.2-23.5,74.2-70.1,74.2-123.6
						C-210.1,297.9-272.9,235.2-350.3,235.2z"/>
				</g>
			</g>
		</g>
		<g>
			<g>
				<g>
					<path class="st2" d="M-349.1,454.6h-1.1c-29.7,0-51.2-24.1-51.2-53.8v-27.1c0-29.7,21.5-43.9,51.2-43.9h1.1
						c29.7,0,53.8,14.2,53.8,43.9v27.1C-295.3,430.5-319.4,454.6-349.1,454.6z"/>
				</g>
			</g>
			<g>
				<g>
					<path class="st0" d="M-349.1,457.6h-1.1c-15,0-28.9-5.9-38.9-16.7c-9.8-10.5-15.3-24.8-15.3-40.1v-27.1
						c0-29.3,20.3-46.8,54.2-46.8h1.1c16,0,29.8,3.9,39.8,11.4c11.1,8.3,16.9,20.5,16.9,35.4v27.1
						C-292.4,432.1-317.8,457.6-349.1,457.6z M-350.2,332.8c-14.5,0-26.6,3.5-34.9,10.1c-8.9,7.1-13.4,17.4-13.4,30.8v27.1
						c0,13.8,4.9,26.6,13.7,36c8.9,9.6,21.2,14.8,34.6,14.8h1.1c28,0,50.8-22.8,50.8-50.8v-27.1c0-13.2-4.9-23.5-14.6-30.7
						c-9-6.7-21.5-10.2-36.3-10.2L-350.2,332.8L-350.2,332.8z"/>
				</g>
			</g>
		</g>
		<g>
			<g>
				<g>
					<ellipse class="st0" cx="-355" cy="410.6" rx="25.2" ry="17.4"/>
				</g>
			</g>
		</g>
		<g>
			<g>
				<g>
					<ellipse class="st0" cx="-388.5" cy="400" rx="4" ry="8.9"/>
				</g>
			</g>
		</g>
		<g>
			<g>
				<g>
					<ellipse class="st0" cx="-314.6" cy="400" rx="4" ry="8.9"/>
				</g>
			</g>
		</g>
		<g>
			<g>
				<g>
					<path class="st0" d="M-354.2,448.1c-1.1,0-2-0.9-2-2s0.9-2,2-2c12.1,0,23.1-5.9,27.3-14.6c0.5-1,1.7-1.4,2.7-0.9
						s1.4,1.7,0.9,2.7C-328.3,441.5-340.4,448.1-354.2,448.1z"/>
				</g>
			</g>
		</g>
		<g>
			<g>
				<g>
					<path class="st2" d="M-373.7,407.5c-0.5,0-1-0.2-1.4-0.5c-0.8-0.8-0.9-2-0.1-2.8c3-3.2,7.3-5.7,12.3-7.2
						c1.1-0.3,2.2,0.3,2.5,1.4s-0.3,2.2-1.4,2.5c-4.3,1.3-8,3.4-10.5,6.1C-372.6,407.3-373.1,407.5-373.7,407.5z"/>
				</g>
			</g>
		</g>
		<g>
			<g>
				<g>
					<path class="st2" d="M-302,360.8c6.8-15.6,9.4-33.4,5-49.8s-16.4-31.2-32.5-36.6c-16.1-5.5-35.8-0.2-45.5,13.8
						c-3.8,5.6-5.9,13.1-2.8,19c3.2,6.1,10.6,8.6,17.4,9.3c8.4,0.9,16.9-0.2,25.4,0.5c8.4,0.7,17.3,3.5,22.4,10.2
						c4.3,5.5,5.4,13,4.5,20c-0.9,6.9-3.5,13.5-6.1,20"/>
				</g>
			</g>
		</g>
		<g>
			<g>
				<g>
					<ellipse class="st0" cx="-346.4" cy="464.9" rx="6.4" ry="9.3"/>
				</g>
			</g>
		</g>
		<g>
			<g>
				<g>
					<path class="st2" d="M-374.3,341.3c-5.1-12-13.6-22.9-25.1-29.2c-11.5-6.3-26.1-7.4-37.6-1.3c-11.6,6.1-19.1,19.9-16.4,32.6
						c1.1,5.1,4.1,10.2,9.1,11.7c5.1,1.4,10.4-1.4,14.4-4.8c4.9-4.2,8.9-9.5,13.7-13.9c4.9-4.3,11.1-7.8,17.6-7.1
						c5.4,0.6,10.1,3.9,13.5,8c3.4,4.2,5.7,9.1,7.9,14"/>
				</g>
			</g>
		</g>
	</g>
	<g class="st3">
		<path class="st0" d="M-532.2,553c-1.7-1.7-2.6-4-2.6-6.8s0.9-5.1,2.6-6.7c1.7-1.7,3.8-2.5,6.2-2.5s4.4,1,5.8,3.1v-9.9h3.8v25.3
			h-3.8v-2.7c-1.4,2-3.5,3-6.2,3C-528.5,555.6-530.5,554.8-532.2,553z M-530.9,546.4c0,1.7,0.6,3.1,1.7,4.2c1.1,1.1,2.4,1.6,3.9,1.6
			c1.5,0,2.8-0.5,3.8-1.7c1-1.1,1.6-2.5,1.6-4.2s-0.5-3.2-1.6-4.3c-1-1.2-2.3-1.7-3.8-1.7c-1.5,0-2.8,0.6-3.9,1.7
			S-530.9,544.6-530.9,546.4z"/>
		<path class="st0" d="M-495.6,552.9c-1.8,1.8-4.1,2.7-6.8,2.7c-2.7,0-5-0.9-6.8-2.7c-1.8-1.8-2.7-4-2.7-6.6c0-2.6,0.9-4.8,2.7-6.6
			c1.8-1.8,4.1-2.7,6.8-2.7c2.7,0,5,0.9,6.8,2.7c1.8,1.8,2.7,4,2.7,6.6C-492.9,548.9-493.8,551.1-495.6,552.9z M-506.5,550.6
			c1.1,1.1,2.4,1.7,4.1,1.7s3-0.5,4.1-1.7c1.1-1.1,1.6-2.5,1.6-4.3c0-1.7-0.5-3.2-1.6-4.3c-1.1-1.1-2.4-1.7-4.1-1.7s-3,0.6-4.1,1.7
			c-1.1,1.1-1.6,2.5-1.6,4.3C-508.1,548-507.6,549.5-506.5,550.6z"/>
		<path class="st0" d="M-471.8,537.2V553c0,3.2-0.9,5.6-2.6,7.2c-1.7,1.6-4,2.4-6.7,2.4c-2.7,0-5.2-0.9-7.4-2.6l1.8-2.9
			c1.8,1.3,3.6,2,5.4,2c1.8,0,3.2-0.5,4.3-1.4s1.6-2.4,1.6-4.5V551c-0.6,1.1-1.4,1.9-2.4,2.6c-1.1,0.6-2.2,1-3.6,1
			c-2.4,0-4.4-0.8-5.9-2.5s-2.3-3.8-2.3-6.3c0-2.5,0.8-4.6,2.3-6.3c1.5-1.7,3.5-2.5,5.9-2.5c2.4,0,4.3,1,5.8,3v-2.7H-471.8z
			 M-485.9,545.6c0,1.5,0.5,2.8,1.4,3.8c0.9,1.1,2.2,1.6,3.7,1.6c1.6,0,2.8-0.5,3.8-1.6c1-1,1.4-2.3,1.4-3.9s-0.5-2.9-1.5-3.9
			c-1-1.1-2.2-1.6-3.8-1.6c-1.5,0-2.8,0.6-3.7,1.7C-485.5,542.8-485.9,544.1-485.9,545.6z"/>
		<path class="st0" d="M-466.6,547v-3.6h11.3v3.6H-466.6z"/>
		<path class="st0" d="M-445.7,535.7v1.5h4.8v3.1h-4.8v15h-3.8v-15h-2.3v-3.1h2.3v-1.4c0-1.9,0.6-3.4,1.7-4.5
			c1.1-1.1,2.5-1.7,4.2-1.7s3.1,0.6,4.4,1.8l-1.6,2.7c-0.7-0.8-1.5-1.2-2.3-1.2s-1.5,0.3-1.9,0.8
			C-445.4,534.2-445.7,534.9-445.7,535.7z"/>
		<path class="st0" d="M-427.7,540.8c-1.9,0-3.3,0.6-4.3,1.8s-1.4,2.9-1.4,4.9v7.8h-3.8v-18.1h3.8v3.6c0.6-1.1,1.4-2.1,2.5-2.8
			c1.1-0.7,2.2-1.1,3.4-1.1l0,3.8C-427.6,540.8-427.7,540.8-427.7,540.8z"/>
		<path class="st0" d="M-423.5,533.6c-0.5-0.5-0.7-1-0.7-1.7s0.2-1.2,0.7-1.7s1-0.7,1.7-0.7s1.2,0.2,1.7,0.7s0.7,1,0.7,1.7
			s-0.2,1.2-0.7,1.7s-1,0.7-1.7,0.7S-423,534.1-423.5,533.6z M-419.9,555.3h-3.8v-18.1h3.8V555.3z"/>
		<path class="st0" d="M-397.5,548h-14.2c0.1,1.3,0.7,2.4,1.8,3.2s2.4,1.2,3.8,1.2c2.3,0,4-0.7,5.2-2.1l2.2,2.4c-2,2-4.5,3-7.6,3
			c-2.5,0-4.7-0.8-6.5-2.5c-1.8-1.7-2.7-4-2.7-6.8c0-2.8,0.9-5.1,2.7-6.8c1.8-1.7,4-2.5,6.4-2.5s4.6,0.7,6.3,2.2
			c1.7,1.5,2.6,3.5,2.6,6.1V548z M-411.7,545h10.4c0-1.5-0.5-2.7-1.4-3.5c-1-0.8-2.1-1.2-3.5-1.2c-1.4,0-2.7,0.4-3.8,1.3
			C-411.2,542.4-411.7,543.5-411.7,545z"/>
		<path class="st0" d="M-389.5,545.5v9.8h-3.8v-18.1h3.8v3.3c0.6-1.1,1.5-2,2.5-2.6c1.1-0.6,2.2-1,3.5-1c2,0,3.7,0.6,5,1.9
			c1.3,1.2,1.9,3.1,1.9,5.4v11.1h-3.8v-9.9c0-3.3-1.4-5-4.2-5c-1.3,0-2.5,0.4-3.4,1.3C-389,542.6-389.5,543.9-389.5,545.5z"/>
		<path class="st0" d="M-370,553c-1.7-1.7-2.6-4-2.6-6.8s0.9-5.1,2.6-6.7c1.7-1.7,3.8-2.5,6.2-2.5s4.4,1,5.8,3.1v-9.9h3.8v25.3h-3.8
			v-2.7c-1.4,2-3.5,3-6.2,3C-366.3,555.6-368.3,554.8-370,553z M-368.7,546.4c0,1.7,0.6,3.1,1.7,4.2c1.1,1.1,2.4,1.6,3.9,1.6
			c1.5,0,2.8-0.5,3.8-1.7c1-1.1,1.6-2.5,1.6-4.2s-0.5-3.2-1.6-4.3c-1-1.2-2.3-1.7-3.8-1.7c-1.5,0-2.8,0.6-3.9,1.7
			S-368.7,544.6-368.7,546.4z"/>
		<path class="st0" d="M-344.7,555.3h-3.8v-25.3h3.8V555.3z"/>
		<path class="st0" d="M-336.9,562.6c-1.7,0-3.2-0.6-4.5-1.8l1.7-3.1c0.8,0.7,1.6,1.1,2.5,1.1c0.9,0,1.5-0.3,2.1-0.9
			c0.5-0.6,0.8-1.3,0.8-2c0-0.3-2.4-6.5-7.3-18.6h4.1l5.4,13.3l5.4-13.3h4.1l-8.8,21.5c-0.5,1.2-1.3,2.1-2.2,2.8
			C-334.6,562.2-335.7,562.6-336.9,562.6z"/>
		<path class="st0" d="M-300.6,537c2.4,0,4.5,0.8,6.2,2.5c1.7,1.7,2.6,3.9,2.6,6.7c0,2.8-0.9,5.1-2.6,6.8c-1.7,1.7-3.7,2.6-6,2.6
			c-2.3,0-4.3-1-6.1-3v2.7h-3.8v-25.3h3.8v10.3C-305,538.1-303,537-300.6,537z M-306.5,546.3c0,1.7,0.5,3.1,1.6,4.2
			c1,1.1,2.3,1.7,3.8,1.7s2.8-0.5,3.9-1.6c1.1-1.1,1.7-2.5,1.7-4.2c0-1.7-0.5-3.2-1.6-4.3c-1.1-1.1-2.4-1.7-3.9-1.7
			c-1.5,0-2.8,0.6-3.8,1.7C-306,543.2-306.5,544.6-306.5,546.3z"/>
		<path class="st0" d="M-274.7,547v-9.8h3.8v18.1h-3.8V552c-0.6,1.1-1.5,2-2.5,2.6c-1.1,0.6-2.2,1-3.5,1c-2,0-3.7-0.6-5-1.9
			c-1.3-1.2-1.9-3.1-1.9-5.4v-11.1h3.8v9.9c0,3.3,1.4,5,4.2,5c1.3,0,2.5-0.4,3.4-1.3C-275.2,550-274.7,548.7-274.7,547z"/>
		<path class="st0" d="M-252.5,549.9c0,1.7-0.6,3.1-1.9,4.1c-1.2,1-2.8,1.5-4.8,1.5c-1.3,0-2.7-0.2-4.1-0.7c-1.4-0.5-2.7-1.1-3.8-2
			l1.8-3c2.1,1.6,4.2,2.4,6.1,2.4c0.9,0,1.5-0.2,2-0.6c0.5-0.4,0.7-0.9,0.7-1.5c0-0.9-1.2-1.7-3.6-2.5c-0.2-0.1-0.3-0.1-0.4-0.1
			c-3.8-1-5.7-2.7-5.7-5.1c0-1.7,0.7-3,2-4c1.3-1,3-1.5,5.1-1.5s4.1,0.6,5.9,1.8l-1.4,2.8c-1.5-1-3.1-1.5-4.8-1.5
			c-0.9,0-1.6,0.2-2.2,0.5c-0.6,0.3-0.9,0.8-0.9,1.5c0,0.6,0.3,1,0.9,1.3c0.4,0.2,1,0.4,1.7,0.6c0.7,0.2,1.4,0.4,2,0.5
			s1.1,0.4,1.7,0.6c0.5,0.2,1.1,0.5,1.7,1C-253.1,546.9-252.5,548.2-252.5,549.9z"/>
		<path class="st0" d="M-248,533.6c-0.5-0.5-0.7-1-0.7-1.7s0.2-1.2,0.7-1.7s1-0.7,1.7-0.7s1.2,0.2,1.7,0.7s0.7,1,0.7,1.7
			s-0.2,1.2-0.7,1.7s-1,0.7-1.7,0.7S-247.5,534.1-248,533.6z M-244.4,555.3h-3.8v-18.1h3.8V555.3z"/>
		<path class="st0" d="M-235.1,545.5v9.8h-3.8v-18.1h3.8v3.3c0.6-1.1,1.5-2,2.5-2.6c1.1-0.6,2.2-1,3.5-1c2,0,3.7,0.6,5,1.9
			c1.3,1.2,1.9,3.1,1.9,5.4v11.1h-3.8v-9.9c0-3.3-1.4-5-4.2-5c-1.3,0-2.5,0.4-3.4,1.3S-235.1,543.9-235.1,545.5z"/>
		<path class="st0" d="M-200,548h-14.2c0.1,1.3,0.7,2.4,1.8,3.2c1.1,0.8,2.4,1.2,3.8,1.2c2.3,0,4-0.7,5.2-2.1l2.2,2.4
			c-2,2-4.5,3-7.6,3c-2.5,0-4.7-0.8-6.5-2.5c-1.8-1.7-2.7-4-2.7-6.8c0-2.8,0.9-5.1,2.7-6.8c1.8-1.7,4-2.5,6.4-2.5
			c2.5,0,4.6,0.7,6.3,2.2c1.7,1.5,2.6,3.5,2.6,6.1V548z M-214.2,545h10.4c0-1.5-0.5-2.7-1.4-3.5c-1-0.8-2.1-1.2-3.5-1.2
			s-2.7,0.4-3.8,1.3C-213.7,542.4-214.2,543.5-214.2,545z"/>
		<path class="st0" d="M-182.9,549.9c0,1.7-0.6,3.1-1.9,4.1c-1.2,1-2.8,1.5-4.8,1.5c-1.3,0-2.7-0.2-4.1-0.7c-1.4-0.5-2.7-1.1-3.8-2
			l1.8-3c2.1,1.6,4.2,2.4,6.1,2.4c0.9,0,1.5-0.2,2-0.6c0.5-0.4,0.7-0.9,0.7-1.5c0-0.9-1.2-1.7-3.6-2.5c-0.2-0.1-0.3-0.1-0.4-0.1
			c-3.8-1-5.7-2.7-5.7-5.1c0-1.7,0.7-3,2-4c1.3-1,3-1.5,5.1-1.5s4.1,0.6,5.9,1.8l-1.4,2.8c-1.5-1-3.1-1.5-4.8-1.5
			c-0.9,0-1.6,0.2-2.2,0.5c-0.6,0.3-0.9,0.8-0.9,1.5c0,0.6,0.3,1,0.9,1.3c0.4,0.2,1,0.4,1.7,0.6c0.7,0.2,1.4,0.4,2,0.5
			s1.1,0.4,1.7,0.6c0.5,0.2,1.1,0.5,1.7,1C-183.5,546.9-182.9,548.2-182.9,549.9z"/>
		<path class="st0" d="M-165.7,549.9c0,1.7-0.6,3.1-1.9,4.1c-1.2,1-2.8,1.5-4.8,1.5c-1.3,0-2.7-0.2-4.1-0.7c-1.4-0.5-2.7-1.1-3.8-2
			l1.8-3c2.1,1.6,4.2,2.4,6.1,2.4c0.9,0,1.5-0.2,2-0.6c0.5-0.4,0.7-0.9,0.7-1.5c0-0.9-1.2-1.7-3.6-2.5c-0.2-0.1-0.3-0.1-0.4-0.1
			c-3.8-1-5.7-2.7-5.7-5.1c0-1.7,0.7-3,2-4c1.3-1,3-1.5,5.1-1.5s4.1,0.6,5.9,1.8l-1.4,2.8c-1.5-1-3.1-1.5-4.8-1.5
			c-0.9,0-1.6,0.2-2.2,0.5c-0.6,0.3-0.9,0.8-0.9,1.5c0,0.6,0.3,1,0.9,1.3c0.4,0.2,1,0.4,1.7,0.6c0.7,0.2,1.4,0.4,2,0.5
			s1.1,0.4,1.7,0.6c0.5,0.2,1.1,0.5,1.7,1C-166.3,546.9-165.7,548.2-165.7,549.9z"/>
	</g>
</g>
</svg>
