<?xml version="1.0" encoding="utf-8"?>
<!-- Generator: Adobe Illustrator 19.1.0, SVG Export Plug-In . SVG Version: 6.00 Build 0)  -->
<svg version="1.1" id="Layer_1" xmlns="http://www.w3.org/2000/svg" xmlns:xlink="http://www.w3.org/1999/xlink" x="0px" y="0px"
	 viewBox="155.6 88.1 648.4 523.5" style="enable-background:new 155.6 88.1 648.4 523.5;" xml:space="preserve">
<style type="text/css">
	.st0{fill:#4EA1D9;}
	.st1{fill:#3FA9F5;}
	.st2{fill:#FFFFFF;}
	.st3{font-family:'Montserrat-Regular';}
	.st4{font-size:34.0425px;}
</style>
<g>
	<path d="M210.3,268.6c0.7,1.7,0.6,3.3-0.2,4.8s-2.2,2.6-4.1,3.4c-1.3,0.5-2.7,0.8-4.3,0.9c-1.6,0.1-3.1-0.1-4.5-0.5l0.6-3.6
		c2.7,0.7,5,0.7,7-0.1c0.8-0.3,1.4-0.8,1.8-1.4c0.3-0.6,0.4-1.2,0.1-1.8c-0.4-0.9-1.9-1.2-4.5-1c-0.2,0-0.4,0-0.5,0
		c-4.1,0.5-6.6-0.5-7.6-2.8c-0.7-1.7-0.5-3.2,0.3-4.7c0.9-1.5,2.4-2.7,4.4-3.5c2.1-0.8,4.2-1,6.6-0.5l-0.3,3.3
		c-1.8-0.4-3.6-0.2-5.3,0.4c-0.9,0.4-1.6,0.8-2,1.4c-0.4,0.5-0.5,1.1-0.3,1.8c0.2,0.6,0.7,0.9,1.4,0.9c0.5,0,1.1,0,1.9-0.1
		c0.8-0.1,1.5-0.2,2.1-0.2c0.6,0,1.3-0.1,1.9,0c0.6,0,1.3,0.1,2.1,0.3C208.5,265.8,209.6,266.9,210.3,268.6z"/>
	<path d="M215.4,255.5l3.6,9.1c0.3,0.8,0.8,1.4,1.5,1.8c0.6,0.3,1.4,0.3,2.2,0c0.8-0.3,1.4-1,1.8-2.1l2.6,2
		c-0.8,1.7-2.1,2.9-3.7,3.5s-3.2,0.6-4.8,0c-1.6-0.7-2.7-1.9-3.5-3.8l-3.6-9l-2.2,0.9l-1.2-3l2.2-0.9l-2.2-5.6l3.8-1.5l2.2,5.6
		l4.7-1.9l1.2,3L215.4,255.5z"/>
	<path d="M222.4,245.1c-0.7-0.3-1.1-0.7-1.4-1.4s-0.2-1.3,0-2c0.3-0.7,0.7-1.1,1.4-1.4c0.6-0.3,1.3-0.2,2,0c0.7,0.3,1.1,0.7,1.4,1.4
		s0.2,1.3,0,2c-0.3,0.7-0.7,1.1-1.4,1.4S223.1,245.4,222.4,245.1z M234.4,265.1l-3.8,1.5l-7.1-17.8l3.8-1.5L234.4,265.1z"/>
	<path d="M247.9,260.1c-2.5,1-5,1-7.4,0c-2.5-1-4.2-2.8-5.3-5.6c-1.1-2.7-1-5.3,0.1-7.8c1.2-2.5,3.1-4.2,5.8-5.3s5.3-1,7.9,0.1
		l-1.1,3.6c-2.1-0.7-3.9-0.8-5.5-0.2c-1.6,0.6-2.7,1.7-3.5,3.2c-0.7,1.5-0.8,3.1-0.1,4.7c0.7,1.6,1.8,2.8,3.4,3.5
		c1.6,0.7,3.2,0.7,4.9,0c1.7-0.7,2.9-2,3.8-4.2l3.2,1.5C252.8,256.8,250.7,258.9,247.9,260.1z"/>
	<path d="M263,253.8l-3.8,1.5l-9.9-24.9l3.8-1.5l5.8,14.6l4.2-10.5l4.8-1.9l-4,9.8l11.6,7.9l-4.6,1.8l-8.4-5.7l-1.6,3.8L263,253.8z"
		/>
	<path d="M292.4,233.6l-14,5.6c0.6,1.3,1.6,2.1,3,2.4c1.4,0.4,2.8,0.3,4.2-0.3c2.2-0.9,3.7-2.3,4.3-4.1l3.1,1.5
		c-1.1,2.8-3.2,4.7-6.3,6c-2.5,1-5,1-7.4,0s-4.2-2.9-5.3-5.7s-1.1-5.4,0-7.8c1.1-2.4,2.9-4,5.3-5s4.8-1.1,7.1-0.3s3.9,2.5,5,5
		L292.4,233.6z M277.2,236.2l10.2-4.1c-0.6-1.5-1.5-2.5-2.8-2.9c-1.3-0.4-2.6-0.4-4,0.2c-1.4,0.5-2.4,1.5-3.2,2.7
		C276.8,233.4,276.7,234.8,277.2,236.2z"/>
	<path d="M303.1,221.2c-1.9,0.7-3,1.9-3.5,3.5c-0.5,1.6-0.3,3.4,0.5,5.4l3,7.6l-3.8,1.5l-7.1-17.8l3.8-1.5l1.4,3.6
		c0.2-1.4,0.6-2.6,1.4-3.7c0.8-1.1,1.7-1.9,2.9-2.4L303.1,221.2C303.2,221.1,303.1,221.2,303.1,221.2z"/>
</g>
<g>
	<path d="M280.2,263.4v3.1l-11.7,5.4V269l8.7-4v-0.3l-8.7-3.9V258L280.2,263.4z"/>
	<path d="M294.9,263.4v3.1l-11.7,5.4V269l8.7-4v-0.3l-8.7-3.9V258L294.9,263.4z"/>
</g>
<g>
	<g>
		<g>
			<path class="st0" d="M327.9,517.5c0,5.3-1.8,9.7-5.5,13.3c-3.6,3.6-8.2,5.4-13.8,5.4c-5.5,0-10.1-1.8-13.8-5.4
				c-3.6-3.6-5.5-8-5.5-13.3c0-5.3,1.8-9.7,5.5-13.3c3.6-3.6,8.2-5.4,13.8-5.4c5.5,0,10.1,1.8,13.8,5.4
				C326.1,507.8,327.9,512.3,327.9,517.5z M299.6,517.5c0,3,0.8,5.4,2.5,7.3c1.7,1.9,3.9,2.8,6.5,2.8c2.6,0,4.8-0.9,6.5-2.8
				c1.7-1.9,2.5-4.3,2.5-7.3s-0.8-5.4-2.5-7.3c-1.7-1.9-3.9-2.8-6.5-2.8c-2.6,0-4.8,0.9-6.5,2.8
				C300.5,512.1,299.6,514.5,299.6,517.5z"/>
		</g>
		<g>
			<path class="st0" d="M368.8,516.1v19.6h-10.2v-19.9c0-2.9-0.4-5-1.3-6.4c-0.9-1.4-2.3-2-4.3-2c-2,0-3.7,0.7-5.2,2.2
				c-1.5,1.5-2.3,3.6-2.3,6.5v19.6h-10.1v-36.4h10.1v4.1c2.8-3.2,6-4.7,9.6-4.7c2.3,0,4.4,0.7,6.3,2c1.9,1.4,3.3,3,4.2,4.9
				c1.4-2.2,3.3-3.9,5.6-5.1c2.4-1.2,4.7-1.8,7.1-1.8c4.3,0,7.7,1.3,10.3,3.8c2.6,2.5,3.9,6.2,3.9,11v22.1h-10.2v-19.9
				c0-5.6-2.1-8.4-6.1-8.4c-2,0-3.8,0.7-5.3,2.2C369.5,511.1,368.8,513.3,368.8,516.1z"/>
		</g>
		<g>
			<path class="st0" d="M432.7,535.7h-9.5v-4.4c-2.6,3.3-5.8,4.9-9.7,4.9c-3.9,0-7.1-1.1-9.7-3.3c-2.6-2.2-3.9-5.2-3.9-8.9
				c0-3.7,1.4-6.5,4.1-8.3c2.7-1.8,6.4-2.8,11.1-2.8h7.6v-0.2c0-3.9-2.1-5.8-6.1-5.8c-1.8,0-3.6,0.3-5.6,1c-2,0.7-3.6,1.6-5,2.6
				l-4.5-6.6c4.8-3.5,10.2-5.2,16.4-5.2c4.4,0,8,1.1,10.8,3.3c2.8,2.2,4.2,5.7,4.2,10.5V535.7z M422.5,521.8v-1.8h-6.4
				c-4.1,0-6.1,1.3-6.1,3.8c0,1.3,0.5,2.3,1.5,3c1,0.7,2.4,1,4.2,1c1.8,0,3.4-0.6,4.8-1.7C421.8,525.2,422.5,523.7,422.5,521.8z"/>
		</g>
		<g>
			<path class="st0" d="M452.1,516.1v19.6h-10.1v-50.1h10.1v17.8c3.1-3.1,6.5-4.7,10.3-4.7c3.8,0,7,1.4,9.6,4.1
				c2.6,2.7,3.9,6.3,3.9,10.8v22.1h-10.1v-19.9c0-5.6-2.1-8.4-6.1-8.4c-2,0-3.8,0.7-5.3,2.2C452.8,511.1,452.1,513.3,452.1,516.1z"
				/>
		</g>
		<g>
			<path class="st0" d="M516,535.7h-9.5v-4.4c-2.6,3.3-5.8,4.9-9.7,4.9c-3.9,0-7.1-1.1-9.7-3.3c-2.6-2.2-3.9-5.2-3.9-8.9
				c0-3.7,1.4-6.5,4.1-8.3c2.7-1.8,6.4-2.8,11.1-2.8h7.6v-0.2c0-3.9-2.1-5.8-6.1-5.8c-1.8,0-3.6,0.3-5.6,1c-2,0.7-3.6,1.6-5,2.6
				l-4.5-6.6c4.8-3.5,10.2-5.2,16.4-5.2c4.4,0,8,1.1,10.8,3.3c2.8,2.2,4.2,5.7,4.2,10.5V535.7z M505.8,521.8v-1.8h-6.4
				c-4.1,0-6.1,1.3-6.1,3.8c0,1.3,0.5,2.3,1.5,3c1,0.7,2.4,1,4.2,1c1.8,0,3.4-0.6,4.8-1.7C505.1,525.2,505.8,523.7,505.8,521.8z"/>
		</g>
		<g>
			<path class="st1" d="M526,534.5c-1.1-1.1-1.7-2.6-1.7-4.2c0-1.7,0.6-3.1,1.7-4.2c1.1-1.1,2.6-1.7,4.2-1.7c1.7,0,3.1,0.6,4.2,1.7
				c1.1,1.1,1.7,2.6,1.7,4.2c0,1.7-0.6,3.1-1.7,4.2c-1.1,1.1-2.6,1.7-4.2,1.7C528.5,536.2,527.1,535.7,526,534.5z"/>
		</g>
		<g>
			<path class="st0" d="M559.3,537.3c-4.6,0-8.8-2-12.3-5.8c-3.6-3.8-5.4-8.7-5.4-14.3c0-5.7,1.8-10.4,5.2-14
				c3.5-3.7,7.6-5.5,12.4-5.5c3.8,0,7,1.1,9.7,3.2v-16.4h12.4v52.4h-12.4v-3.1C566.2,536.1,563,537.3,559.3,537.3z M559.2,499.8
				c-4.1,0-7.7,1.6-10.8,4.8c-3.1,3.2-4.6,7.4-4.6,12.5c0,5.1,1.6,9.4,4.8,12.8c3.2,3.4,6.7,5.1,10.7,5.1c4,0,7.2-1.6,9.8-4.9l2-2.5
				v6.9h7.9v-47.9h-7.9v19.6l-1.9-2.2C566.6,501.3,563.3,499.8,559.2,499.8z M561.7,528.7c-2.7,0-5-1.1-7-3.2
				c-1.9-2.1-2.9-4.7-2.9-8c0-3.2,1-5.9,2.8-8.1c1.9-2.2,4.3-3.4,7-3.4c2.7,0,5,1.1,6.9,3.3c1.8,2.2,2.7,4.9,2.7,8.1
				c0,3.2-0.9,5.9-2.7,8C566.6,527.6,564.3,528.7,561.7,528.7z M561.6,508.4c-2.1,0-3.8,0.8-5.3,2.6c-1.5,1.8-2.3,4-2.3,6.6
				c0,2.7,0.8,4.8,2.3,6.4c1.6,1.7,3.3,2.5,5.3,2.5c2,0,3.7-0.8,5.1-2.4c1.5-1.7,2.2-3.8,2.2-6.5c0-2.7-0.7-4.9-2.2-6.7
				C565.4,509.2,563.7,508.4,561.6,508.4z"/>
		</g>
		<g>
			<path class="st0" d="M606.9,537.3c-5.8,0-10.7-1.9-14.5-5.7c-3.9-3.8-5.8-8.5-5.8-14.1c0-5.6,2-10.3,5.8-14.1
				c3.8-3.8,8.7-5.8,14.5-5.8c5.8,0,10.7,1.9,14.5,5.8c3.8,3.8,5.8,8.6,5.8,14.1c0,5.6-2,10.3-5.8,14.1
				C617.5,535.4,612.6,537.3,606.9,537.3z M606.9,499.8c-5.2,0-9.6,1.7-13,5.1c-3.5,3.4-5.1,7.5-5.1,12.6c0,5,1.7,9.1,5.1,12.5
				c3.4,3.4,7.8,5.1,13,5.1c5.2,0,9.6-1.7,13-5.1c3.5-3.4,5.1-7.5,5.1-12.5c0-5-1.7-9.1-5.1-12.6C616.4,501.6,612,499.8,606.9,499.8
				z M606.9,528.7c-3,0-5.4-1.1-7.3-3.2c-1.9-2.1-2.8-4.8-2.8-8c0-3.2,0.9-5.9,2.8-8c1.9-2.1,4.4-3.2,7.3-3.2c3,0,5.4,1.1,7.3,3.2
				c1.9,2.1,2.8,4.8,2.8,8c0,3.2-0.9,5.9-2.8,8C612.3,527.6,609.8,528.7,606.9,528.7z M606.9,508.5c-2.3,0-4.2,0.8-5.7,2.5
				c-1.5,1.7-2.3,3.8-2.3,6.6c0,2.7,0.7,4.8,2.2,6.5c1.5,1.6,3.3,2.4,5.7,2.4c2.3,0,4.2-0.8,5.7-2.4c1.5-1.7,2.2-3.8,2.2-6.5
				c0-2.7-0.7-4.9-2.3-6.6C611,509.3,609.2,508.5,606.9,508.5z"/>
		</g>
		<g>
			<path class="st0" d="M649.6,551.1c-2.8,0-5.7-0.5-8.6-1.4c-2.9-0.9-5.5-2.2-7.7-3.9l-0.7-0.6l4.9-9.6l1.1,0.8
				c3.1,2.4,6.5,3.6,9.9,3.6c3.4,0,6.2-0.8,8.1-2.5c1.4-1.2,2.3-2.9,2.6-5.1c-3,2.4-6.6,3.7-10.6,3.7c-5,0-9.3-1.7-12.8-5.2
				c-3.5-3.4-5.2-8-5.2-13.7c0-5.7,1.8-10.4,5.3-14c3.6-3.7,7.7-5.5,12.3-5.5c3.7,0,6.9,1.2,9.6,3.6v-3.1h12.4V531
				c0,3.4-0.6,6.4-1.8,9.1c-1.2,2.7-2.8,4.8-4.9,6.4C659.6,549.6,654.9,551.1,649.6,551.1z M635.3,544.6c1.8,1.3,4,2.3,6.3,3
				c2.7,0.8,5.4,1.3,7.9,1.3c4.8,0,9-1.4,12.6-4.2c1.8-1.3,3.2-3.2,4.2-5.5c1.1-2.4,1.6-5.1,1.6-8.2v-30.6H660v6.9l-2-2.5
				c-2.6-3.3-5.9-4.9-9.9-4.9c-4,0-7.6,1.6-10.7,4.8c-3.1,3.2-4.7,7.4-4.7,12.5c0,5.1,1.5,9.1,4.6,12.1c3.1,3,6.8,4.5,11.2,4.5
				c4.5,0,8.1-1.6,11.1-5l1.9-2.2v2.9c0,4.3-1.2,7.6-3.6,9.6c-2.4,2-5.6,3-9.5,3c-3.5,0-7-1.1-10.2-3.2L635.3,544.6z M650.5,527.5
				c-2.7,0-5.1-1-7-3c-1.9-2-2.8-4.6-2.8-7.8c0-3.2,1-5.7,2.9-7.6c1.9-1.9,4.3-2.8,7-2.8c2.7,0,5,1,6.8,2.8c1.8,1.9,2.7,4.4,2.7,7.6
				c0,3.2-0.9,5.8-2.7,7.7C655.6,526.5,653.3,527.5,650.5,527.5z M650.6,508.5c-2.1,0-3.9,0.7-5.4,2.2c-1.5,1.5-2.3,3.4-2.3,6
				c0,2.6,0.7,4.6,2.2,6.2c1.5,1.6,3.2,2.3,5.4,2.3c2.1,0,3.9-0.7,5.3-2.3c1.4-1.6,2.1-3.6,2.1-6.2c0-2.6-0.7-4.6-2.1-6.1
				C654.4,509.2,652.7,508.5,650.6,508.5z"/>
		</g>
	</g>
	<g>
		<g>
			<g>
				<path class="st2" d="M371.1,212.8c-45.7,60.1-34,145.8,26.1,191.5c54.4,41.3,129.8,35.7,177.4-10.3c-4.4-2.4-8.8-5.2-13-8.4
					c-26.9-20.5-38.9-50-23.8-69.9c15.1-19.9,49.2-19.5,76.2,0.9c0.3,0.2,0.5,0.4,0.8,0.6c7.7-48.2-10.7-99-52.3-130.5
					C502.5,141,416.7,152.7,371.1,212.8z"/>
			</g>
		</g>
		<g>
			<g>
				<path class="st0" d="M479.8,151.6c-77.4,0-140.2,62.8-140.2,140.2c0,70.1,51.4,128.1,118.6,138.5c-0.8-5.1-1.2-10.4-1.2-15.9
					c0-34.7,16.7-62.8,42.3-62.8c25.7,0,46.5,28.1,46.5,62.8c0,0.3,0,0.7,0,1C590,391.9,620,345.3,620,291.8
					C620,214.3,557.2,151.6,479.8,151.6z"/>
			</g>
		</g>
		<g>
			<g>
				<path class="st2" d="M481,371h-1.1c-29.7,0-51.2-24.1-51.2-53.8v-27.1c0-29.7,21.5-43.9,51.2-43.9h1.1
					c29.7,0,53.8,14.2,53.8,43.9v27.1C534.8,346.9,510.7,371,481,371z"/>
			</g>
			<g>
				<path class="st0" d="M481,374h-1.1c-15,0-28.9-5.9-38.9-16.7c-9.8-10.5-15.3-24.8-15.3-40.1v-27.1c0-29.3,20.3-46.8,54.2-46.8
					h1.1c16,0,29.8,3.9,39.8,11.4c11.1,8.3,16.9,20.5,16.9,35.4v27.1C537.7,348.5,512.3,374,481,374z M479.9,249.2
					c-14.5,0-26.6,3.5-34.9,10.1c-8.9,7.1-13.4,17.4-13.4,30.8v27.1c0,13.8,4.9,26.6,13.7,36c8.9,9.6,21.2,14.8,34.6,14.8h1.1
					c28,0,50.8-22.8,50.8-50.8v-27.1c0-13.2-4.9-23.5-14.6-30.7c-9-6.7-21.5-10.2-36.3-10.2H479.9z"/>
			</g>
		</g>
		<g>
			<g>
				<ellipse class="st0" cx="475.1" cy="327" rx="25.2" ry="17.4"/>
			</g>
		</g>
		<g>
			<g>
				<ellipse class="st0" cx="441.6" cy="316.4" rx="4" ry="8.9"/>
			</g>
		</g>
		<g>
			<g>
				<ellipse class="st0" cx="515.5" cy="316.4" rx="4" ry="8.9"/>
			</g>
		</g>
		<g>
			<g>
				<path class="st0" d="M475.9,364.5c-1.1,0-2-0.9-2-2c0-1.1,0.9-2,2-2c12.1,0,23.1-5.9,27.3-14.6c0.5-1,1.7-1.4,2.7-0.9
					c1,0.5,1.4,1.7,0.9,2.7C501.8,357.9,489.7,364.5,475.9,364.5z"/>
			</g>
		</g>
		<g>
			<g>
				<path class="st2" d="M456.4,323.9c-0.5,0-1-0.2-1.4-0.5c-0.8-0.8-0.9-2-0.1-2.8c3-3.2,7.3-5.7,12.3-7.2c1.1-0.3,2.2,0.3,2.5,1.4
					c0.3,1.1-0.3,2.2-1.4,2.5c-4.3,1.3-8,3.4-10.5,6.1C457.5,323.7,457,323.9,456.4,323.9z"/>
			</g>
		</g>
		<g>
			<g>
				<path class="st2" d="M528.1,277.2c6.8-15.6,9.4-33.4,5-49.8c-4.4-16.4-16.4-31.2-32.5-36.6c-16.1-5.5-35.8-0.2-45.5,13.8
					c-3.8,5.6-5.9,13.1-2.8,19c3.2,6.1,10.6,8.6,17.4,9.3c8.4,0.9,16.9-0.2,25.4,0.5c8.4,0.7,17.3,3.5,22.4,10.2
					c4.3,5.5,5.4,13,4.5,20c-0.9,6.9-3.5,13.5-6.1,20"/>
			</g>
		</g>
		<g>
			<g>
				<ellipse class="st0" cx="483.7" cy="381.3" rx="6.4" ry="9.3"/>
			</g>
		</g>
		<g>
			<g>
				<path class="st2" d="M455.8,257.7c-5.1-12-13.6-22.9-25.1-29.2c-11.5-6.3-26.1-7.4-37.6-1.3c-11.6,6.1-19.1,19.9-16.4,32.6
					c1.1,5.1,4.1,10.2,9.1,11.7c5.1,1.4,10.4-1.4,14.4-4.8c4.9-4.2,8.9-9.5,13.7-13.9c4.9-4.3,11.1-7.8,17.6-7.1
					c5.4,0.6,10.1,3.9,13.5,8c3.4,4.2,5.7,9.1,7.9,14"/>
			</g>
		</g>
	</g>
	<text transform="matrix(1 0 0 1 293.6957 471.7042)" class="st0 st3 st4">dog-friendly business</text>
</g>
</svg>
