<?xml version="1.0" encoding="utf-8"?>
<!-- Generator: Adobe Illustrator 19.1.0, SVG Export Plug-In . SVG Version: 6.00 Build 0)  -->
<?xml-stylesheet type="text/css" href="../css/animate.css" ?>
<svg version="1.1" xmlns="http://www.w3.org/2000/svg" xmlns:xlink="http://www.w3.org/1999/xlink" x="0px" y="0px"
	 viewBox="0 0 300 300" enable-background="new 0 0 300 300" xml:space="preserve">
<g id="Layer_1">
	<rect x="162.375" y="194.172" fill="#4F5169" width="7.291" height="100.323"/>
	<text transform="matrix(1 0 0 1 59.8728 62.5695)" fill="#4F5169" font-family="'RobotoSlab-Light'" font-size="14.2337px">street style</text>
	<text transform="matrix(1 0 0 1 63.6605 234.0309)"><tspan x="0" y="0" fill="#4F5169" font-family="'RobotoSlab-Light'" font-size="14.2337px">ted &amp; wally&apos;s </tspan><tspan x="-2.447" y="17.08" fill="#4F5169" font-family="'RobotoSlab-Light'" font-size="14.2337px">residence inn</tspan><tspan x="8.472" y="34.161" fill="#4F5169" font-family="'RobotoSlab-Light'" font-size="14.2337px">hayneedle</tspan></text>
	<text transform="matrix(1 0 0 1 112.4859 119.0866)" fill="#4F5169" font-family="'RobotoSlab-Light'" font-size="14.2337px">cordon bleu rounders</text>
	<text transform="matrix(1 0 0 1 154.4463 135.1425)" fill="#4F5169" font-family="'RobotoSlab-Light'" font-size="14.2337px">samosas</text>
	<text transform="matrix(1 0 0 1 65.8855 41.6625)" fill="#4F5169" font-family="'RobotoSlab-Regular'" font-size="15.8579px">FLAVOR</text>
	<polygon fill="#00A79F" points="233.09,199.939 96.411,199.939 78.944,183.672 96.411,169.51 233.09,169.51 	"/>
	<g>
		<text transform="matrix(1 0 0 1 109.5339 190.5883)" fill="#FFFFFF" font-family="'RobotoSlab-Regular'" font-size="15.8579px">11th &amp; Jackson</text>
	</g>
	<text transform="matrix(1 0 0 1 131.8086 97.1604)" fill="#4F5169" font-family="'RobotoSlab-Regular'" font-size="15.8579px">MUST ORDER</text>
	<g>
		<path fill="none" stroke="#4F5169" stroke-miterlimit="10" d="M263.422,84.454c0.272-0.005,0.547-0.006,0.823-0.006
			c0.877,0,1.737,0.021,2.573,0.062"/>
		<path fill="none" stroke="#4F5169" stroke-miterlimit="10" d="M273.539,85.367c3.481,0.784,5.716,1.999,5.716,3.363
			c0,2.365-6.72,4.283-15.01,4.283c-8.29,0-15.01-1.918-15.01-4.283c0-1.293,2.008-2.452,5.183-3.238"/>
		<path fill="none" stroke="#4F5169" stroke-miterlimit="10" d="M279.255,88.73c0,7.69-6.72,13.925-15.01,13.925
			c-8.29,0-15.01-6.235-15.01-13.925"/>
		<g>
			<path fill="none" stroke="#4F5169" stroke-miterlimit="10" d="M275.506,81.719c0.46-0.769,0.11-1.498-0.776-1.622l-9.045-1.263
				c-0.886-0.124-1.294,0.435-0.906,1.241l4.517,9.376c0.388,0.806,1.082,0.838,1.542,0.07L275.506,81.719z"/>
			<path fill="none" stroke="#4F5169" stroke-miterlimit="10" d="M262.997,79.918c-0.084-0.892-0.797-1.273-1.585-0.848l-8.041,4.33
				c-0.788,0.424-0.786,1.116,0.004,1.537l9.187,4.89c0.79,0.421,1.368,0.036,1.284-0.856L262.997,79.918z"/>
		</g>
		<circle fill="none" stroke="#4F5169" stroke-miterlimit="10" cx="269.212" cy="81.892" r="0.52"/>
		<circle fill="none" stroke="#4F5169" stroke-miterlimit="10" cx="271.506" cy="82.932" r="0.52"/>
		<circle fill="none" stroke="#4F5169" stroke-miterlimit="10" cx="270.17" cy="85.367" r="0.52"/>
		<circle fill="none" stroke="#4F5169" stroke-miterlimit="10" cx="260.642" cy="82.932" r="0.52"/>
		<circle fill="none" stroke="#4F5169" stroke-miterlimit="10" cx="258.318" cy="83.97" r="0.52"/>
		<circle fill="none" stroke="#4F5169" stroke-miterlimit="10" cx="257.798" cy="83.97" r="0.52"/>
		<circle fill="none" stroke="#4F5169" stroke-miterlimit="10" cx="260.862" cy="85.886" r="0.52"/>
	</g>
</g>
<g id="Layer_2">
	<path fill="none" stroke="#4F5169" stroke-miterlimit="10" d="M38.268,50.969c7.674,0,13.894-5.539,13.894-12.371H24.374
		C24.374,45.43,30.594,50.969,38.268,50.969z"/>
	<line fill="none" stroke="#4F5169" stroke-miterlimit="10" x1="21.147" y1="38.598" x2="55.389" y2="38.598"/>
	<g>
		<polyline fill="none" stroke="#4F5169" stroke-miterlimit="10" points="31.256,53.261 33.094,51.438 38.268,51.438 		"/>
		<polyline fill="none" stroke="#4F5169" stroke-miterlimit="10" points="45.28,53.261 43.442,51.438 38.268,51.438 		"/>
	</g>
</g>
<g id="shaker" class="animated shake transformOrigin delay2">
	<path fill="none" stroke="#4F5169" stroke-miterlimit="10" d="M38.274,27.466c0.566,0.505,0.685,1.434,0.266,2.063l-1.651,2.482
		c-0.419,0.63-1.327,0.885-2.018,0.568l-11.106-5.091c-0.69-0.316-0.912-1.09-0.494-1.721l4.127-6.202
		c0.419-0.63,1.224-0.732,1.79-0.226L38.274,27.466z"/>
</g>
<g id="pieces">
	<circle fill="none" stroke="#4F5169" stroke-miterlimit="10" cx="41.091" cy="36.437" r="0.597"/>
	<ellipse fill="none" stroke="#4F5169" stroke-miterlimit="10" cx="41.774" cy="33.832" rx="0.637" ry="0.631"/>
	<ellipse fill="none" stroke="#4F5169" stroke-miterlimit="10" cx="38.757" cy="35.659" rx="0.588" ry="0.582"/>
	<circle fill="none" stroke="#4F5169" stroke-miterlimit="10" cx="39.139" cy="33.128" r="0.62"/>
</g>
</svg>
