<?xml version="1.0" encoding="utf-8"?>
<!-- Generator: Adobe Illustrator 19.1.0, SVG Export Plug-In . SVG Version: 6.00 Build 0)  -->
<svg version="1.1" xmlns="http://www.w3.org/2000/svg" xmlns:xlink="http://www.w3.org/1999/xlink" x="0px" y="0px"
	 viewBox="-129.627 366 184.627 289" enable-background="new -129.627 366 184.627 289" xml:space="preserve">
<g id="Layer_1">
	<rect x="-28.465" y="539.2" fill="#4F5169" width="7.291" height="100.323"/>
	<text transform="matrix(1 0 0 1 -73.1706 415.2238)" fill="#4F5169" font-family="'RobotoSlab-Light'" font-size="14.2337px">street style</text>
	<text transform="matrix(1 0 0 1 -127.1798 579.0593)" fill="#4F5169" font-family="'RobotoSlab-Light'" font-size="14.2337px">ted &amp; wally&apos;s </text>
	<text transform="matrix(1 0 0 1 -129.6268 596.1393)" fill="#4F5169" font-family="'RobotoSlab-Light'" font-size="14.2337px">residence inn</text>
	<text transform="matrix(1 0 0 1 -118.7078 613.2203)" fill="#4F5169" font-family="'RobotoSlab-Light'" font-size="14.2337px">hayneedle</text>
	<text transform="matrix(1 0 0 1 -114.8397 474.0866)" fill="#4F5169" font-family="'RobotoSlab-Light'" font-size="14.2337px">cordon bleu rounders</text>
	<text transform="matrix(1 0 0 1 -72.8793 490.1425)" fill="#4F5169" font-family="'RobotoSlab-Light'" font-size="14.2337px">samosas</text>
	<text transform="matrix(1 0 0 1 -67.1579 394.3168)" fill="#4F5169" font-family="'RobotoSlab-Regular'" font-size="15.8579px">FLAVOR</text>
	<polygon fill="#00A79F" points="42.25,544.967 -94.429,544.967 -111.896,528.7 -94.429,514.538 42.25,514.538 	"/>
	<g>
		<text transform="matrix(1 0 0 1 -81.3064 535.6167)" fill="#FFFFFF" font-family="'RobotoSlab-Regular'" font-size="15.8579px">11th &amp; Jackson</text>
	</g>
	<text transform="matrix(1 0 0 1 -95.517 452.1604)" fill="#4F5169" font-family="'RobotoSlab-Regular'" font-size="15.8579px">MUST ORDER</text>
	<g>
		<path fill="none" stroke="#4F5169" stroke-miterlimit="10" d="M36.096,439.454c0.272-0.005,0.547-0.006,0.823-0.006
			c0.877,0,1.737,0.021,2.573,0.062"/>
		<path fill="none" stroke="#4F5169" stroke-miterlimit="10" d="M46.213,440.367c3.481,0.784,5.716,1.999,5.716,3.363
			c0,2.365-6.72,4.283-15.01,4.283c-8.29,0-15.01-1.918-15.01-4.283c0-1.293,2.008-2.452,5.183-3.238"/>
		<path fill="none" stroke="#4F5169" stroke-miterlimit="10" d="M51.929,443.73c0,7.69-6.72,13.925-15.01,13.925
			c-8.29,0-15.01-6.235-15.01-13.925"/>
		<g>
			<path fill="none" stroke="#4F5169" stroke-miterlimit="10" d="M48.18,436.719c0.46-0.769,0.11-1.498-0.776-1.622l-9.045-1.263
				c-0.886-0.124-1.294,0.435-0.906,1.241l4.517,9.376c0.388,0.806,1.082,0.838,1.542,0.07L48.18,436.719z"/>
			<path fill="none" stroke="#4F5169" stroke-miterlimit="10" d="M35.671,434.918c-0.084-0.892-0.797-1.273-1.585-0.848l-8.041,4.33
				c-0.788,0.424-0.786,1.116,0.004,1.537l9.187,4.89c0.79,0.421,1.368,0.036,1.284-0.856L35.671,434.918z"/>
		</g>
		<circle fill="none" stroke="#4F5169" stroke-miterlimit="10" cx="41.886" cy="436.892" r="0.52"/>
		<circle fill="none" stroke="#4F5169" stroke-miterlimit="10" cx="44.18" cy="437.932" r="0.52"/>
		<circle fill="none" stroke="#4F5169" stroke-miterlimit="10" cx="42.844" cy="440.367" r="0.52"/>
		<circle fill="none" stroke="#4F5169" stroke-miterlimit="10" cx="33.316" cy="437.932" r="0.52"/>
		<circle fill="none" stroke="#4F5169" stroke-miterlimit="10" cx="30.992" cy="438.97" r="0.52"/>
		<circle fill="none" stroke="#4F5169" stroke-miterlimit="10" cx="30.472" cy="438.97" r="0.52"/>
		<circle fill="none" stroke="#4F5169" stroke-miterlimit="10" cx="33.536" cy="440.886" r="0.52"/>
	</g>
	<path fill="none" stroke="#4F5169" stroke-miterlimit="10" d="M-94.775,403.623c7.674,0,13.894-5.539,13.894-12.371h-27.788
		C-108.669,398.084-102.449,403.623-94.775,403.623z"/>
	<line fill="none" stroke="#4F5169" stroke-miterlimit="10" x1="-111.896" y1="391.252" x2="-77.654" y2="391.252"/>
	<g>
		<polyline fill="none" stroke="#4F5169" stroke-miterlimit="10" points="-101.787,405.915 -99.949,404.092 -94.775,404.092 		"/>
		<polyline fill="none" stroke="#4F5169" stroke-miterlimit="10" points="-87.763,405.915 -89.601,404.092 -94.775,404.092 		"/>
	</g>
	<circle fill="none" stroke="#4F5169" stroke-miterlimit="10" cx="-91.952" cy="389.091" r="0.597"/>
	<ellipse fill="none" stroke="#4F5169" stroke-miterlimit="10" cx="-91.269" cy="386.486" rx="0.637" ry="0.631"/>
	<ellipse fill="none" stroke="#4F5169" stroke-miterlimit="10" cx="-94.286" cy="388.313" rx="0.588" ry="0.582"/>
	<circle fill="none" stroke="#4F5169" stroke-miterlimit="10" cx="-93.904" cy="385.782" r="0.62"/>
</g>
<g id="shaker">
	<path fill="none" stroke="#4F5169" stroke-miterlimit="10" d="M-94.769,380.12c0.566,0.505,0.685,1.434,0.266,2.063l-1.651,2.482
		c-0.419,0.63-1.327,0.885-2.018,0.568l-11.106-5.091c-0.69-0.316-0.912-1.09-0.494-1.721l4.127-6.202
		c0.419-0.63,1.224-0.732,1.79-0.226L-94.769,380.12z"/>
</g>
</svg>
