<?xml version="1.0" encoding="utf-8"?>
<?xml-stylesheet type="text/css" href="../css/animate.css" ?>
<!-- Generator: Adobe Illustrator 19.1.0, SVG Export Plug-In . SVG Version: 6.00 Build 0)  -->
<svg version="1.1" xmlns="http://www.w3.org/2000/svg" xmlns:xlink="http://www.w3.org/1999/xlink" x="0px" y="0px"
	 viewBox="0 0 1536 1173.834" enable-background="new 0 0 1536 1173.834" xml:space="preserve">
<g id="Layer_4">
	<rect x="3.855" y="-2.512" fill="#F9F7E9" width="1536.657" height="1008.329"/>
</g>
<g id="sun" class="animated pulse infinite long">
	<g>
		<g>
			<circle fill="#00A79F" cx="114.267" cy="171.86" r="67.978"/>
		</g>
		<polygon fill="none" stroke="#4F5169" stroke-miterlimit="10" points="114.267,120.959 134.128,72.013 133.747,124.833 
			170.826,87.214 150.26,135.867 198.914,115.301 161.294,152.381 214.115,151.999 165.169,171.86 214.115,191.721 161.294,191.339 
			198.914,228.419 150.26,207.853 170.826,256.507 133.747,218.887 134.128,271.707 114.267,222.762 94.407,271.707 94.788,218.887 
			57.709,256.507 78.275,207.853 29.621,228.419 67.241,191.339 14.42,191.721 63.366,171.86 14.42,151.999 67.241,152.381 
			29.621,115.301 78.275,135.867 57.709,87.214 94.788,124.833 94.407,72.013 		"/>
	</g>
</g>
<g id="skyline">
	<path fill="#E6E7E8" d="M1532.999,941.326c0-0.007,0.008-0.013,0.008-0.02c0-15.944,0-31.888,0-47.833c0-38.117,0-76.235,0-114.352
		c0-46.252,0-92.505,0-138.757c0-39.833,0-79.667,0-119.501c0-13.131,0-26.262,0-39.393c0-4.115,0-8.23,0-12.345
		c0-1.898,0.481-4.532,0-6.381c-0.062-0.241,0-0.575,0-0.828c0-0.453-0.448-0.607-0.906-0.56c-9.159,0-18.318,0-27.476,0
		c-5.913,0-11.825,0-17.738,0c-1.866,0-5.164-0.691-6.824,0.397c-0.009,0.006-0.018,0.019-0.027,0.026
		c-8.12,2.112-16.24,4.223-24.36,6.335c-9.805,2.55-20.222,4.377-29.782,7.745c-3.565,1.256-5.825,6.045-8.052,8.951
		c-7.131,9.302-14.261,18.604-21.392,27.906c-0.105,0.138-0.211,0.275-0.317,0.413c-25.389,0-50.778,0-76.168,0
		c-10.032,0-20.065,0-30.097,0c-0.357,0-1.322,0.199-1.322,0.687c0,0.135,0,0.271,0,0.406c-5.635,1.56-11.271,3.119-16.906,4.679
		c0-37.983,0-75.967,0-113.95c0-33.021,0-66.043,0-99.064c0-10.895,0-21.789,0-32.684c0-3.399,0-6.798,0-10.196
		c0-1.574,0.422-3.834,0-5.363c-0.055-0.2,0-0.484,0-0.696c0-0.491-0.448-0.657-0.875-0.657c-7.211,0-14.44,0.153-21.649,0.003
		c0.121-0.672-0.008-1.539-0.008-2.2c0-3.002,0-6.004,0-9.005c0-19.073,0-38.146,0-57.218c0-5.3,0-10.601,0-15.901
		c0-0.491-0.448-0.657-0.875-0.657c-7.667,0-15.333,0-22.999,0c-1.186,0-2.399-0.056-3.589-0.006c0.285-1.835-0.01-3.966-0.01-5.809
		c0-18.173,0-36.346,0-54.519c0-5.498,0-10.997,0-16.496c0-0.491-0.448-0.657-0.875-0.657c-5.444,0-10.888,0-16.333,0
		c-1.069,0-2.485-0.257-3.53,0c-0.084,0.021-0.129,0.032-0.197,0.049c0.042-2.766,0-5.536,0-8.302c0-0.491-0.448-0.657-0.875-0.657
		c-2.044,0-4.089,0-6.133,0c-0.385,0-1.022,0.329-1.022,0.78c0,2.104,0,4.209,0,6.313c0,0.285-0.071,1.132-0.029,1.719
		c-0.596-0.027-1.527,0.098-2.034,0.098c-0.523,0-1.462,0.155-2.195,0.127c0.187-0.171-0.015-0.78-0.015-1.652
		c0-2.243,0-4.486,0-6.728c0-0.491-0.448-0.657-0.875-0.657c-2.044,0-4.089,0-6.133,0c-0.385,0-1.022,0.329-1.022,0.78
		c0,2.104,0,4.208,0,6.312c0,0.285-0.071,1.132-0.029,1.719c-0.596-0.027-1.527,0.098-2.033,0.098c-0.522,0-1.461,0.154-2.194,0.127
		c0.186-0.171-0.015-0.78-0.015-1.652c0-2.243,0-4.485,0-6.728c0-0.491-0.448-0.657-0.875-0.657c-2.045,0-4.09,0-6.135,0
		c-0.385,0-1.022,0.329-1.022,0.78c0,2.104,0,4.208,0,6.312c0,0.285-0.071,1.132-0.029,1.719c-0.596-0.027-1.527,0.098-2.033,0.098
		c-0.522,0-1.461,0.154-2.194,0.127c0.186-0.171-0.015-0.78-0.015-1.652c0-2.243,0-4.485,0-6.728c0-0.491-0.448-0.657-0.875-0.657
		c-2.044,0-4.089,0-6.133,0c-0.385,0-1.022,0.329-1.022,0.78c0,1.982-0.88,6.38-0.016,8.091c-0.947-0.29-2.629,0.038-3.565,0.038
		c-5.444,0-10.889,0-16.334,0c-0.385,0-1.022,0.329-1.022,0.78c0,13.715,0,27.429,0,41.144c0,8.83,0,17.66,0,26.491
		c0,2.611-0.323,5.455,0,8.048c0.041,0.329-0.015,0.722-0.022,1.092c-0.082-0.024-0.132-0.037-0.234-0.067
		c-1.573-0.465-4.058,0-5.696,0c-2.761,0-5.521,0-8.282,0c-3.519,0-7.038,0-10.557,0c-0.385,0-1.022,0.329-1.022,0.78
		c0,0.14,0,0.279,0,0.419c-3.975,5.183-7.95,10.365-11.925,15.548c-2.384,3.108-4.525,4.722-4.525,8.526c0,15.439,0,30.879,0,46.319
		c0,4.48,0,8.959,0,13.439c-2.242-0.028-4.482-0.052-6.718-0.052c-0.385,0-1.022,0.329-1.022,0.78c0,0.005,0,0.009,0,0.014
		c-5.309,6.269-11.294,12.323-16.064,19.001c-1.064,1.49-1.012,1.646-1.012,3.461c0,7.628,0,15.257,0,22.885
		c0,33.456,0,66.912,0,100.367c0,44.879,0,89.757,0,134.636c0,30.902,0,61.803,0,92.705c-24.787,0-49.574,0-74.36,0
		c-0.008,0-0.018,0.003-0.026,0.004c-0.332,0.022-0.734,0.123-1.002,0.286c-13.292,1.844-26.583,3.688-39.875,5.533
		c-0.022,0.003-0.043,0.012-0.065,0.016c-0.498,0.086-1.033,0.305-1.033,0.613c0,11.55,0,23.101,0,34.651
		c0,27.732,0,55.463,0,83.195c0,33.379,0,66.759,0,100.138c0,29.007,0,58.015,0,87.022c0,9.53,0,19.059,0,28.589
		c0,0.026,0,0.051,0,0.077h-11.741c0-7.282,0-14.564,0-21.846c0-28.494,0-56.987,0-85.481c0-34.479,0-68.957,0-103.436
		c0-29.818,0-59.637,0-89.455c0-9.8,0-19.601,0-29.401c0-3.112,0-6.224,0-9.336c0-1.148,0.507-3.745,0-4.8
		c-0.067-0.14,0-0.457,0-0.624c0-0.113-0.283-0.144-0.332-0.144c-6.995,0-13.99,0-20.985,0c0-8.809,0-17.618,0-26.427
		c0-0.113-0.283-0.144-0.332-0.144c-24.191,0-48.383,0-72.574,0c-3.452,0-6.905,0-10.357,0c-0.298,0-1.149,0.108-1.418,0.448
		c-14.405,8.412-28.81,16.823-43.214,25.235c-9.467,5.528-18.935,11.057-28.402,16.585c-2.707,1.581-5.413,3.161-8.12,4.741
		c-0.941,0.55-1.664,0.778-2.027,1.667c-0.469,1.148-0.176,3.245-0.055,4.788c-2.253,0.977-4.507,1.953-6.76,2.93
		c0-15.3,0-30.6,0-45.9c0-49.61,0-99.22,0-148.83c0-16.394,0-32.788,0-49.182c0-5.122,0-10.243,0-15.365c0-2.467,0.48-5.496,0-7.926
		c-0.061-0.308,0-0.678,0-0.995c0-0.323-0.283-0.497-0.593-0.497c-15.116,0-30.231,0-45.347,0c0-7.839,0-15.679,0-23.518
		c0-0.323-0.283-0.497-0.593-0.497c-24.149,0-48.297,0-72.446,0c-0.342,0-1.285,0.17-1.285,0.692c0,7.775,0,15.549,0,23.324
		c-14.885,0-29.77,0-44.656,0c-0.342,0-1.285,0.17-1.285,0.692c0,19.83,0,39.66,0,59.49c0,47.605,0,95.211,0,142.816
		c0,3.015,0,6.031,0,9.046c-18.207,0-36.414,0-54.621,0c-0.346,0-1.035,0.306-1.035,0.731c0,3.642,0,7.284,0,10.926
		c0,2.919,0,5.838,0,8.757c0,1.355-0.637,4.813,0,6.03c0.035,0.067,0.046,0.11,0.069,0.164c-0.187-0.008-0.378-0.017-0.536-0.037
		c-2.348-0.29-4.921,0-7.284,0c-4.177,0-8.354,0-12.531,0c-0.346,0-1.035,0.306-1.035,0.731c0,11.864,0,23.727,0,35.591
		c0,28.494,0,56.987,0,85.481c0,34.479,0,68.957,0,103.436c0,29.818,0,59.637,0,89.455c0,9.8,0,19.601,0,29.401
		c0,0.228,0,0.456,0,0.684h-63.029c0-6.986,0-13.971,0-20.957c0-27.747,0-55.494,0-83.242c0-33.718,0-67.436,0-101.154
		c0-29.021,0-58.041,0-87.062c0-9.619,0-19.238,0-28.857c0-2.995,0-5.99,0-8.985c0-1.293,0.43-3.469,0-4.705
		c-0.054-0.156,0-0.423,0-0.594c0-0.35-0.283-0.486-0.599-0.518c-13.658-1.408-27.316-2.816-40.974-4.224
		c-0.25-0.036-0.539,0.005-0.79,0.107c-36.243,0-72.486,0-108.729,0c-49.914,0-99.828,0-149.742,0c0-39.124,0-78.248,0-117.372
		c0-62.692,0-125.385,0-188.078c0-20.747,0-41.493,0-62.24c0-6.387,0-12.773,0-19.16c0-3.006,0.635-7.147,0-10.073
		c-0.083-0.382,0-0.906,0-1.307c0-0.078-0.053-0.128-0.128-0.167c-0.269-0.241-0.537-0.482-0.806-0.723v-4.541l-32.793-24.882
		c-2.318-2.079-4.635-4.159-6.952-6.238c0-0.005,0.001-0.012,0.001-0.018c0-0.038-0.044-0.061-0.107-0.078l-0.001-0.001
		l-0.004-0.004c-0.009-0.008-0.018-0.016-0.027-0.024c-0.207-0.186-0.693-0.166-1.113-0.011c-4.043,0-8.086,0-12.129,0
		c0-11.162,0-22.324,0-33.486c0-11.074,0.659-22.379,0-33.439c-0.028-0.47,0-0.949,0-1.421c0-0.021-0.012-0.034-0.013-0.053
		c0-0.077-0.016-0.154-0.058-0.231c-0.023-0.047-0.057-0.082-0.09-0.12c-0.028-0.032-0.036-0.065-0.073-0.096
		c-23.335-19.726-46.67-39.453-70.006-59.179c-3.327-2.812-6.654-5.625-9.981-8.438c-0.458-0.388-1.663-0.071-1.663,0.621
		c0,9.455,0,18.909,0,28.364c0,25.491,0,50.982,0,76.473c0,37.358,0,74.716,0,112.074c0,44.654,0,89.308,0,133.962
		c0,47.749,0,95.497,0,143.246c0,46.534,0,93.068,0,139.602c0,41.01,0,82.02,0,123.03c0,31.26,0,62.521,0,93.781
		c0,16.98,0,33.961,0,50.941c0,4.262,0.075,7.347,1.746,10.893v81.967h1527.642v-83.384h-0.626c1.313-3.002,2.083-6.275,2.15-9.643
		c0.081-4.082,0-8.175,0-12.258C1532.999,946.017,1532.999,943.671,1532.999,941.326z M523.361,625.807
		C523.368,626.002,523.236,625.944,523.361,625.807L523.361,625.807z"/>
</g>
<g id="bushes">
	<path fill="#00A79F" d="M220.018,1026.76c5.328-5.464,10.657-15.785-7.991-16.999c14.652-18.82-13.32-39.461-59.941-35.212
		c6.659-19.427-21.312-35.212-65.269-29.141c2.664-11.535-7.992-23.07-26.641-30.355C46.5,909.319,23.611,905.532,0,904.615v137.946
		c0,7.822,7.895,14.164,17.635,14.164h264.966C294.397,1046.067,239.467,1027.314,220.018,1026.76z"/>
	<path fill="#00A79F" d="M1306.776,1090.049c-5.599-5.743-11.2-16.589,8.398-17.864c-15.398-19.779,13.999-41.471,62.993-37.005
		c-6.998-20.417,22.398-37.006,68.593-30.625c-2.799-12.123,8.4-24.245,27.998-31.901c14.373-6.027,38.428-10.006,63.241-10.971
		v144.972c0,8.22-8.297,14.885-18.533,14.885h-278.461C1228.609,1110.339,1286.337,1090.63,1306.776,1090.049z"/>
</g>
</svg>
