<?xml version="1.0" encoding="utf-8"?>
<!-- Generator: Adobe Illustrator 19.1.0, SVG Export Plug-In . SVG Version: 6.00 Build 0)  -->
<svg version="1.1" id="Layer_1" xmlns="http://www.w3.org/2000/svg" xmlns:xlink="http://www.w3.org/1999/xlink" x="0px" y="0px"
	 viewBox="805.786 -82.834 1102.214 1737.934" enable-background="new 805.786 -82.834 1102.214 1737.934" xml:space="preserve">
<g id="Layer_4">
</g>
<g id="sun">
	<ellipse opacity="0.09" fill="#362027" enable-background="new    " cx="1518.701" cy="623.898" rx="116.152" ry="3.767"/>
	<rect x="900.359" y="285.58" fill="#4F5169" width="521.668" height="322.55"/>
	<rect x="991.766" y="337.632" fill="#F9F7E9" width="338.853" height="218.447"/>
	<rect x="1478.308" y="277.67" fill="#00A79F" width="95.903" height="298.366"/>
	<g>
		<path fill="#4F5169" d="M900.359,576.037v330.334h141.329c0-52.66,26.319-95.349,58.785-95.349s58.785,42.689,58.785,95.349
			h130.944c0-52.66,26.319-95.349,58.785-95.349c32.466,0,58.785,42.689,58.785,95.349h138.714c0-52.66,26.319-95.349,58.785-95.349
			c32.467,0,58.785,42.689,58.785,95.349h172.311V576.037H900.359z"/>
	</g>
	<ellipse fill="#404041" cx="1097.754" cy="938.024" rx="40.018" ry="95.349"/>
	<ellipse fill="#404041" cx="1347.531" cy="938.024" rx="40.018" ry="95.349"/>
	<ellipse fill="#404041" cx="1602.817" cy="938.024" rx="40.018" ry="95.349"/>
	<line fill="none" stroke="#404041" stroke-miterlimit="10" x1="1033.609" y1="385.883" x2="1033.609" y2="505.156"/>
	<line fill="none" stroke="#404041" stroke-miterlimit="10" x1="1063.717" y1="363.275" x2="1063.717" y2="482.547"/>
	
		<line fill="none" stroke="#404041" stroke-width="4" stroke-miterlimit="10" x1="1064.351" y1="958.136" x2="1555.087" y2="958.136"/>
</g>
<g id="smoke">
	<path fill="#E6E7E8" d="M1474.487,183.025c21.927,38.588,69.562,52.902,106.396,31.972c19.391-11.019,31.838-29.631,36.159-50.396
		c13.471,4.808,28.527,4.232,41.596-3.195c24.497-13.92,32.535-46.01,17.951-71.674c-5.319-9.36-12.945-16.508-21.635-21.219
		c0.344-15.969-3.456-32.391-12.037-47.492c-24.365-42.878-77.295-58.782-118.223-35.526c-25.04,14.229-39.721,39.83-41.817,67.374
		c-24.513-20.819-59.351-25.745-87.794-9.582c-36.833,20.93-48.918,69.179-26.991,107.767
		C1390.018,189.641,1437.654,203.955,1474.487,183.025z"/>
</g>
<g id="skyline">
</g>
<g id="bushes">
</g>
<ellipse opacity="0.09" fill="#362027" cx="1363.363" cy="1033.373" rx="449.099" ry="11.047"/>
<g>
	<path fill="#00A79F" d="M1293.416,1273.148c-14.426,6.397-29.926,10.721-46.196,12.665c16.605-9.954,29.359-25.717,35.365-44.5
		c-15.543,9.218-32.755,15.912-51.077,19.518c-14.671-15.632-35.576-25.399-58.711-25.399c-44.42,0-80.433,36.011-80.433,80.43
		c0,6.304,0.711,12.443,2.083,18.331c-66.847-3.355-126.115-35.376-165.785-84.04c-6.924,11.879-10.891,25.696-10.891,40.437
		c0,27.906,14.2,52.525,35.782,66.949c-13.185-0.418-25.587-4.036-36.431-10.061c-0.008,0.335-0.008,0.672-0.008,1.011
		c0,38.971,27.726,71.478,64.52,78.869c-6.748,1.837-13.855,2.823-21.19,2.823c-5.183,0-10.222-0.505-15.134-1.446
		c10.236,31.953,39.94,55.211,75.137,55.858c-27.528,21.575-62.209,34.432-99.894,34.432c-6.493,0-12.895-0.38-19.187-1.126
		c35.595,22.824,77.874,36.14,123.297,36.14c147.945,0,228.849-122.562,228.849-228.852c0-3.487-0.08-6.956-0.234-10.406
		C1268.996,1303.443,1282.633,1289.277,1293.416,1273.148z"/>
</g>
<g>
	<path fill="#00A79F" d="M1578.589,1202.88c-99.922,0-181.235,81.323-181.235,181.244c0,99.958,81.313,181.271,181.235,181.271
		c99.958,0,181.281-81.314,181.281-181.271C1759.87,1284.203,1678.547,1202.88,1578.589,1202.88L1578.589,1202.88z
		 M1623.691,1390.503h-29.487v105.133h-43.705v-105.133h-20.78v-37.143h20.78v-24.029c0-17.184,8.168-44.097,44.098-44.097
		l32.37,0.137v36.048h-23.491c-3.851,0-9.272,1.926-9.272,10.121v21.857h33.301L1623.691,1390.503z M1623.691,1390.503"/>
</g>
</svg>
