<?xml version="1.0" encoding="utf-8"?>
<!-- Generator: Adobe Illustrator 19.1.0, SVG Export Plug-In . SVG Version: 6.00 Build 0)  -->

<?xml-stylesheet type="text/css" href="../css/animate.css" ?>
<svg version="1.1" xmlns="http://www.w3.org/2000/svg" xmlns:xlink="http://www.w3.org/1999/xlink" x="0px" y="0px"
	 viewBox="0 0 1536 1173.834" enable-background="new 0 0 1536 1173.834" xml:space="preserve">
<g id="Layer_4">
</g>
<g id="sun">
	<ellipse opacity="0.09" fill="#362027" cx="1077.469" cy="694.891" rx="116.152" ry="3.767"/>
	<rect x="459.127" y="356.573" fill="#4F5169" width="521.668" height="322.55"/>
	<rect x="550.534" y="408.625" fill="#F9F7E9" width="338.853" height="218.447"/>
	<rect x="1037.076" y="348.663" fill="#00A79F" width="95.903" height="298.366"/>
	<g>
		<path fill="#4F5169" d="M459.127,647.03v330.334h141.329c0-52.66,26.319-95.349,58.785-95.349
			c32.466,0,58.785,42.689,58.785,95.349H848.97c0-52.66,26.319-95.349,58.785-95.349s58.785,42.689,58.785,95.349h138.714
			c0-52.66,26.319-95.349,58.785-95.349c32.467,0,58.785,42.689,58.785,95.349h172.311V647.03H459.127z"/>
	</g>
	<ellipse fill="#404041" cx="656.522" cy="1009.017" rx="40.018" ry="95.349"/>
	<ellipse fill="#404041" cx="906.299" cy="1009.017" rx="40.018" ry="95.349"/>
	<ellipse fill="#404041" cx="1161.585" cy="1009.017" rx="40.018" ry="95.349"/>
	<line fill="none" stroke="#404041" stroke-miterlimit="10" x1="592.377" y1="456.876" x2="592.377" y2="576.149"/>
	<line fill="none" stroke="#404041" stroke-miterlimit="10" x1="622.485" y1="434.268" x2="622.485" y2="553.54"/>
	
		<line fill="none" stroke="#404041" stroke-width="4" stroke-miterlimit="10" x1="623.119" y1="1029.129" x2="1113.855" y2="1029.129"/>
</g>
<g id="smoke" class="animated pulse delay2">
	<path fill="#E6E7E8" d="M1033.255,254.018c21.927,38.588,69.562,52.902,106.396,31.972c19.391-11.019,31.838-29.631,36.159-50.396
		c13.471,4.808,28.527,4.232,41.596-3.195c24.497-13.92,32.535-46.01,17.951-71.674c-5.319-9.36-12.945-16.508-21.635-21.219
		c0.344-15.969-3.456-32.391-12.037-47.492c-24.365-42.878-77.295-58.782-118.223-35.526c-25.04,14.229-39.721,39.83-41.817,67.374
		c-24.513-20.819-59.351-25.745-87.794-9.582c-36.833,20.93-48.918,69.179-26.991,107.767
		C948.786,260.634,996.422,274.948,1033.255,254.018z"/>
</g>
<g id="social">
	<g>
		<path fill="#00A79F" d="M342.105,498.115c-7.481,3.317-15.52,5.56-23.957,6.568c8.612-5.162,15.226-13.337,18.341-23.078
			c-8.061,4.781-16.987,8.252-26.489,10.122c-7.609-8.107-18.45-13.172-30.448-13.172c-23.036,0-41.713,18.675-41.713,41.712
			c0,3.269,0.369,6.453,1.08,9.506c-34.667-1.74-65.404-18.346-85.977-43.583c-3.591,6.161-5.648,13.326-5.648,20.971
			c0,14.472,7.364,27.24,18.557,34.72c-6.838-0.217-13.27-2.093-18.893-5.218c-0.004,0.174-0.004,0.349-0.004,0.525
			c0,20.21,14.379,37.069,33.46,40.902c-3.5,0.953-7.185,1.464-10.989,1.464c-2.688,0-5.301-0.262-7.848-0.75
			c5.309,16.571,20.713,28.633,38.966,28.968c-14.276,11.189-32.262,17.857-51.806,17.857c-3.367,0-6.687-0.197-9.951-0.584
			c18.46,11.837,40.386,18.742,63.942,18.742c76.725,0,118.682-63.561,118.682-118.684c0-1.808-0.041-3.607-0.121-5.397
			C329.441,513.826,336.513,506.48,342.105,498.115z"/>
	</g>
	<g>
		<path fill="#00A79F" d="M240.434,691.689c-51.82,0-93.989,42.174-93.989,93.994c0,51.839,42.169,94.008,93.989,94.008
			c51.839,0,94.013-42.17,94.013-94.008C334.447,733.863,292.273,691.689,240.434,691.689L240.434,691.689z M263.824,788.991
			h-15.292v54.522h-22.666v-54.522H215.09v-19.263h10.777v-12.462c0-8.912,4.236-22.869,22.869-22.869l16.787,0.071v18.695h-12.182
			c-1.997,0-4.809,0.999-4.809,5.249v11.335h17.27L263.824,788.991z M263.824,788.991"/>
	</g>
</g>
<g id="skyline">
</g>
<g id="bushes">
</g>
</svg>
