<?xml version="1.0" encoding="utf-8"?>
<!-- Generator: Adobe Illustrator 19.1.0, SVG Export Plug-In . SVG Version: 6.00 Build 0)  -->
<svg version="1.1" id="Layer_1" xmlns="http://www.w3.org/2000/svg" xmlns:xlink="http://www.w3.org/1999/xlink" x="0px" y="0px"
	 viewBox="0 438.166 1536 1173.834" enable-background="new 0 438.166 1536 1173.834" xml:space="preserve">
<g id="Layer_4">
</g>
<g id="sun">
	<ellipse opacity="0.09" fill="#362027" enable-background="new    " cx="1156.476" cy="1134.13" rx="116.152" ry="3.767"/>
	<rect x="538.134" y="795.812" fill="#4F5169" width="521.668" height="322.55"/>
	<rect x="629.541" y="847.864" fill="#F9F7E9" width="338.853" height="218.447"/>
	<rect x="1116.083" y="787.902" fill="#00A79F" width="95.903" height="298.366"/>
	<g>
		<path fill="#4F5169" d="M538.134,1086.269v330.334h141.329c0-52.66,26.319-95.349,58.785-95.349
			c32.466,0,58.785,42.689,58.785,95.349h130.944c0-52.66,26.319-95.349,58.785-95.349s58.785,42.689,58.785,95.349h138.714
			c0-52.66,26.319-95.349,58.785-95.349c32.467,0,58.785,42.689,58.785,95.349h172.311v-330.334H538.134z"/>
	</g>
	<ellipse fill="#404041" cx="735.529" cy="1448.256" rx="40.018" ry="95.349"/>
	<ellipse fill="#404041" cx="985.306" cy="1448.256" rx="40.018" ry="95.349"/>
	<ellipse fill="#404041" cx="1240.592" cy="1448.256" rx="40.018" ry="95.349"/>
	<line fill="none" stroke="#404041" stroke-miterlimit="10" x1="671.384" y1="896.115" x2="671.384" y2="1015.388"/>
	<line fill="none" stroke="#404041" stroke-miterlimit="10" x1="701.492" y1="873.507" x2="701.492" y2="992.779"/>
	
		<line fill="none" stroke="#404041" stroke-width="4" stroke-miterlimit="10" x1="702.126" y1="1468.368" x2="1192.862" y2="1468.368"/>
</g>
<g id="smoke">
	<path fill="#E6E7E8" d="M1112.262,693.257c21.927,38.588,69.562,52.902,106.396,31.972c19.391-11.019,31.838-29.631,36.159-50.396
		c13.471,4.808,28.527,4.232,41.596-3.195c24.497-13.92,32.535-46.01,17.951-71.674c-5.319-9.36-12.945-16.508-21.635-21.219
		c0.344-15.969-3.456-32.391-12.037-47.492c-24.365-42.878-77.295-58.782-118.223-35.526c-25.04,14.229-39.721,39.83-41.817,67.374
		c-24.513-20.819-59.351-25.745-87.794-9.582c-36.833,20.93-48.918,69.179-26.991,107.767
		C1027.793,699.873,1075.429,714.187,1112.262,693.257z"/>
</g>
<g>
	<path fill="#00A79F" d="M417.086,756.183c-13.993,6.204-29.03,10.4-44.812,12.285c16.109-9.656,28.48-24.947,34.307-43.168
		c-15.078,8.943-31.774,15.435-49.548,18.933c-14.233-15.164-34.511-24.638-56.953-24.638c-43.089,0-78.025,34.932-78.025,78.023
		c0,6.115,0.69,12.07,2.02,17.781c-64.845-3.255-122.339-34.316-160.821-81.522c-6.717,11.524-10.565,24.926-10.565,39.226
		c0,27.07,13.774,50.953,34.711,64.944c-12.791-0.406-24.822-3.915-35.34-9.76c-0.007,0.326-0.007,0.653-0.007,0.982
		c0,37.803,26.896,69.338,62.587,76.508c-6.547,1.783-13.44,2.738-20.555,2.738c-5.028,0-9.916-0.49-14.68-1.403
		c9.931,30.996,38.744,53.558,72.886,54.185c-26.703,20.929-60.346,33.402-96.904,33.402c-6.298,0-12.508-0.369-18.613-1.092
		c34.53,22.141,75.542,35.057,119.604,35.057c143.515,0,221.996-118.891,221.996-222c0-3.382-0.077-6.747-0.226-10.095
		C393.398,785.57,406.626,771.83,417.086,756.183z"/>
</g>
<g>
	<path fill="#00A79F" d="M226.909,1143.265c-96.93,0-175.807,78.887-175.807,175.817c0,96.965,78.877,175.843,175.807,175.843
		c96.965,0,175.852-78.879,175.852-175.843C402.761,1222.151,323.875,1143.265,226.909,1143.265L226.909,1143.265z M270.66,1325.269
		h-28.604v101.984H199.66v-101.984h-20.157v-36.032h20.158v-23.31c0-16.67,7.923-42.777,42.777-42.777l31.4,0.133v34.969h-22.787
		c-3.735,0-8.995,1.869-8.995,9.818v21.202h32.304L270.66,1325.269z"/>
</g>
<g id="skyline">
</g>
<g id="bushes">
</g>
</svg>
